<svg width="110" height="103" viewBox="0 0 110 103" fill="none" xmlns="http://www.w3.org/2000/svg">
<rect width="110" height="103" rx="30" fill="#FFAB0E"/>
<path d="M70 33H68V31C68 29.8 67.2 29 66 29C64.8 29 64 29.8 64 31V33H48V31C48 29.8 47.2 29 46 29C44.8 29 44 29.8 44 31V33H42C38.6 33 36 35.6 36 39V41H76V39C76 35.6 73.4 33 70 33ZM36 63C36 66.4 38.6 69 42 69H70C73.4 69 76 66.4 76 63V45H36V63ZM66 49C67.2 49 68 49.8 68 51C68 52.2 67.2 53 66 53C64.8 53 64 52.2 64 51C64 49.8 64.8 49 66 49ZM66 57C67.2 57 68 57.8 68 59C68 60.2 67.2 61 66 61C64.8 61 64 60.2 64 59C64 57.8 64.8 57 66 57ZM56 49C57.2 49 58 49.8 58 51C58 52.2 57.2 53 56 53C54.8 53 54 52.2 54 51C54 49.8 54.8 49 56 49ZM56 57C57.2 57 58 57.8 58 59C58 60.2 57.2 61 56 61C54.8 61 54 60.2 54 59C54 57.8 54.8 57 56 57ZM46 49C47.2 49 48 49.8 48 51C48 52.2 47.2 53 46 53C44.8 53 44 52.2 44 51C44 49.8 44.8 49 46 49ZM46 57C47.2 57 48 57.8 48 59C48 60.2 47.2 61 46 61C44.8 61 44 60.2 44 59C44 57.8 44.8 57 46 57Z" fill="white"/>
</svg>
