<svg width="990" height="706" viewBox="0 0 990 706" fill="none" xmlns="http://www.w3.org/2000/svg">
<path d="M420.526 155.316C420.334 155.617 418.991 155.918 417.648 155.918C416.305 155.918 414.962 156.16 414.77 156.521C414.578 156.823 413.427 157.124 412.211 157.124C410.996 157.124 409.845 157.365 409.653 157.727C409.461 158.028 408.438 158.33 407.415 158.33C406.391 158.33 404.92 158.571 404.089 158.872C403.257 159.173 401.466 159.716 400.059 160.017C396.094 161.042 384.198 164.418 382.791 164.96C382.087 165.261 379.337 166.166 376.651 167.01C371.278 168.637 361.365 172.254 357.079 174.062C355.544 174.665 354.201 175.207 354.009 175.207C353.754 175.207 348.637 177.317 342.049 180.21C340.13 181.054 339.107 181.838 339.299 182.32C339.747 183.405 337.06 185.575 334.182 186.54C330.729 187.745 321.519 192.869 321.582 193.592C321.646 193.893 322.542 194.315 323.629 194.496L325.612 194.798L323.949 195.943C322.478 197.028 322.414 197.148 323.501 197.872C325.164 199.077 326.315 198.896 331.688 196.606C334.374 195.461 338.212 194.255 340.194 193.954C343.392 193.471 343.904 193.532 345.247 194.677C347.997 197.088 349.468 199.318 348.637 200.102C347.614 201.066 347.741 202.935 348.829 202.935C349.34 202.935 349.98 202.634 350.172 202.332C350.747 201.428 353.05 201.609 353.05 202.573C353.05 203.056 352.282 203.598 351.323 203.839C349.724 204.201 347.997 205.648 347.933 206.672C347.933 207.757 351.195 207.034 352.922 205.648C354.905 204.08 356.248 203.719 356.248 204.743C356.248 205.467 354.841 206.733 351.515 209.144C349.788 210.41 349.212 211.253 349.212 212.58C349.212 213.604 349.468 214.388 349.724 214.388C350.044 214.388 351.067 215.171 352.155 216.076C353.178 216.98 355.225 218.246 356.76 218.848C359.062 219.813 359.83 219.873 361.94 219.331C363.283 218.909 365.202 218.607 366.225 218.607C369.551 218.607 370.766 217.944 371.918 215.654C372.493 214.388 373.645 212.7 374.412 211.916C375.244 211.073 376.267 209.626 376.779 208.661C377.674 206.853 378.505 206.371 386.564 202.815C389.059 201.79 391.937 200.162 392.96 199.258C395.518 197.209 397.757 196.184 403.257 194.496C409.077 192.748 415.09 190.277 415.09 189.614C415.09 189.312 415.537 189.071 416.049 189.071C416.561 189.071 417.008 188.77 417.008 188.468C417.008 188.107 417.776 187.564 418.671 187.263C420.59 186.54 420.398 185.455 418.224 184.43C417.072 183.827 416.944 183.646 417.84 183.646C418.479 183.646 418.927 183.164 418.927 182.501C418.927 181.838 419.439 181.175 420.078 180.934C421.805 180.391 424.491 177.92 425.003 176.413C425.387 175.328 425.131 174.785 423.98 173.941C422.765 173.098 422.573 172.736 423.276 172.073C423.852 171.53 424.491 171.47 425.899 172.013C427.434 172.555 427.881 172.495 428.137 171.771C428.649 170.506 428.649 170.385 427.625 170.385C427.114 170.385 426.474 170.084 426.218 169.722C425.771 169.059 427.753 164.357 428.521 164.357C428.777 164.357 430.312 163.272 431.911 161.946C433.51 160.62 435.045 159.535 435.3 159.535C436.324 159.535 441.952 156.883 441.952 156.401C441.952 154.833 430.567 156.642 425.515 159.053C424.683 159.415 423.852 159.535 423.596 159.234C423.276 158.993 423.468 158.631 423.916 158.51C424.3 158.33 424.683 157.968 424.683 157.666C424.683 156.823 421.933 157.064 420.59 158.028C419.119 159.053 417.008 159.234 417.008 158.269C417.008 157.486 420.974 155.918 423.02 155.918C423.916 155.918 424.811 155.617 425.003 155.316C425.259 154.954 424.491 154.713 423.148 154.713C421.933 154.713 420.718 154.954 420.526 155.316Z" fill="url(#paint0_linear_25_275)"/>
<path d="M504.951 155.798C502.904 155.918 500.858 156.22 500.41 156.581C500.026 156.883 497.084 157.305 493.886 157.486C490.688 157.727 487.746 158.088 487.299 158.39C486.083 159.113 487.49 160.379 490.624 161.343C492.031 161.826 493.566 162.609 493.95 163.152C494.59 163.935 499.387 166.166 500.474 166.166C500.602 166.166 501.625 164.96 502.776 163.453C503.928 161.946 505.271 160.741 505.719 160.741C506.742 160.741 508.469 162.187 508.469 163.031C508.469 163.333 509.62 163.574 511.027 163.634C512.946 163.694 513.585 163.513 513.585 162.85C513.585 162.368 513.138 161.946 512.626 161.946C512.114 161.946 511.155 161.705 510.515 161.404C508.533 160.439 506.23 159.656 504.631 159.294C502.585 158.872 501.05 157.908 501.561 157.425C501.753 157.184 502.585 157.365 503.352 157.727C505.335 158.751 515.12 158.812 516.4 157.787C516.975 157.365 517.423 156.762 517.423 156.521C517.423 155.918 510.387 155.557 504.951 155.798Z" fill="url(#paint1_linear_25_275)"/>
<path d="M597.371 172.676C593.342 172.736 589.76 173.098 589.44 173.399C589.056 173.761 588.161 174.002 587.329 174.002C586.498 174.002 585.858 174.303 585.858 174.665C585.858 175.026 585.155 176.172 584.259 177.257C583.364 178.342 582.66 179.547 582.66 179.909C582.66 180.271 582.213 180.813 581.701 181.054C581.062 181.416 582.277 182.2 586.114 183.827C593.342 186.841 595.388 186.841 591.615 183.827C589.248 181.958 589.184 180.994 591.487 178.884C593.725 176.714 599.226 175.207 604.598 175.207C608.564 175.207 610.354 174.484 609.139 173.399C608.244 172.676 605.238 172.495 597.371 172.676Z" fill="url(#paint2_linear_25_275)"/>
<path d="M516.719 179.427C516.208 179.668 513.649 180.21 511.091 180.632C508.469 181.054 505.91 181.778 505.463 182.199C504.887 182.682 503.8 182.863 502.521 182.682C500.666 182.38 500.602 182.441 501.561 183.224C502.649 184.008 502.649 184.128 501.561 185.093C500.922 185.635 500.026 186.057 499.643 186.057C499.259 186.057 498.363 186.781 497.66 187.624C496.061 189.553 492.479 191.301 486.275 193.23C483.717 194.014 481.542 195.039 481.35 195.521C480.775 196.907 483.397 200.343 485.316 200.705C486.211 200.886 488.706 200.524 490.816 199.861C494.974 198.655 495.101 198.716 498.108 201.669L499.643 203.116L497.596 203.96C495.038 204.924 495.229 204.984 494.782 203.236C494.334 201.549 492.607 201.247 490.624 202.453C489.665 202.995 489.537 203.417 489.985 204.321C491.072 206.19 490.177 206.974 486.595 207.396C484.676 207.637 482.118 208.42 480.903 209.083C476.042 212.037 471.949 213.484 464.977 214.93L462.739 215.413L464.529 216.076C465.553 216.498 466.704 216.799 467.152 216.799C467.599 216.799 468.495 217.341 469.07 217.944C470.158 219.029 470.158 219.15 468.943 220.295C467.983 221.199 466.448 221.501 461.395 221.802C452.505 222.344 452.377 222.405 452.058 225.72C451.866 227.287 452.058 228.854 452.377 229.276C452.697 229.698 454.424 230.06 456.215 230.181C461.012 230.422 460.948 231.748 456.023 234.219C453.529 235.485 452.185 236.51 452.185 237.233C452.185 238.439 449.627 240.91 448.412 240.91C447.197 240.91 442.592 244.105 439.714 246.878C437.539 249.048 437.283 249.53 437.987 250.434C439.458 252.363 439.586 253.146 438.882 254.894C438.051 257.064 439.01 258.993 440.993 258.993C442.592 258.993 447.325 260.561 449.179 261.646C450.65 262.489 456.151 263.394 459.86 263.394C462.994 263.333 471.437 262.068 477.449 260.741C483.461 259.415 485.636 259.295 487.554 260.319C488.322 260.741 491.008 261.224 493.439 261.404C498.299 261.706 498.299 261.766 497.276 265.624C496.892 266.95 497.212 267.372 499.643 268.578C503.032 270.386 505.079 272.556 505.591 275.148C505.91 276.775 505.655 277.378 504.056 278.945C501.497 281.296 501.561 282.924 504.375 285.516C505.591 286.661 506.87 288.59 507.19 289.795C507.573 291.061 508.98 293.352 510.388 294.919C511.795 296.546 512.946 298.475 512.946 299.199C512.946 299.922 513.458 300.645 514.097 300.826C516.336 301.429 527.273 301.067 530.406 300.284C534.564 299.259 541.088 295.944 541.088 294.859C541.088 293.954 542.495 293.352 544.541 293.352C546.46 293.352 547.483 292.267 547.483 290.278C547.483 288.349 547.995 288.108 554.775 287.083C558.548 286.48 559.444 286.058 560.147 284.853C560.915 283.526 560.787 279.849 559.891 276.956C559.252 274.846 562.897 273.52 574.602 271.591C581.701 270.446 589.184 267.734 589.888 266.046C590.208 265.202 586.754 264.418 579.143 263.514C575.753 263.092 573.067 261.826 573.067 260.621C573.067 259.898 568.526 256.582 567.63 256.582C566.735 256.582 561.426 250.856 560.787 249.228C560.467 248.324 559.635 247.42 558.932 247.239C558.292 246.998 557.717 246.636 557.717 246.335C557.717 246.034 556.885 244.828 555.798 243.743C553.431 241.211 553.431 240.91 555.478 240.91C556.501 240.91 558.164 241.814 559.699 243.14C561.17 244.406 562.705 245.672 563.217 245.913C563.729 246.154 564.56 247.36 565.072 248.505C565.584 249.59 566.223 250.554 566.543 250.554C566.863 250.554 568.462 251.82 570.125 253.327C572.235 255.377 573.067 256.643 573.067 257.848C573.067 259.174 573.386 259.656 574.538 259.837C586.882 262.188 609.523 262.068 611.122 259.596C611.506 259.054 608.18 256.582 607.029 256.582C606.517 256.582 605.558 255.497 604.023 253.086C604.023 253.026 603.127 253.207 602.104 253.568C599.801 254.412 594.173 253.267 594.173 252.001C594.173 251.519 593.661 250.916 593.022 250.675C591.87 250.253 587.138 245.612 587.138 244.888C587.138 243.803 590.399 244.768 591.998 246.275C594.365 248.565 600.633 251.76 602.679 251.76C603.511 251.76 605.302 252.544 606.645 253.568C607.988 254.533 609.331 255.377 609.587 255.377C609.907 255.377 611.378 255.919 612.913 256.522C615.983 257.788 620.076 259.295 624.169 260.621C626.856 261.465 632.548 266.046 632.548 267.251C632.548 268.276 635.49 270.446 637.345 270.808C639.136 271.109 639.264 271.29 639.328 274.244C639.328 277.8 642.461 287.203 643.933 288.349C644.508 288.771 645.915 289.132 647.13 289.132C648.793 289.132 649.817 288.65 651.352 287.083L653.334 284.973L661.649 285.636C668.62 286.179 670.667 286.601 674.313 288.168C676.679 289.193 678.598 290.278 678.598 290.639C678.598 290.941 679.301 292.568 680.197 294.135C681.22 296.064 681.604 297.631 681.412 298.716C681.092 300.223 681.284 300.525 683.587 301.369C686.529 302.454 686.785 302.936 686.529 306.613C686.465 308.542 686.017 309.566 684.93 310.35C683.715 311.314 683.651 311.676 684.29 313.002C685.058 314.69 685.25 320.477 684.482 320.477C683.97 320.477 683.139 319.331 681.028 315.715C678.47 311.314 674.824 308.843 677.191 313.063C678.918 316.137 679.685 318.427 680.261 321.682C680.836 325.48 682.371 328.916 684.226 330.844C685.761 332.412 685.889 332.472 687.744 331.508C689.407 330.724 689.535 330.483 688.767 329.88C687.04 328.674 685.569 323.491 686.913 323.491C687.296 323.491 687.552 323.732 687.552 324.093C687.552 325.48 688.575 324.576 689.215 322.586C689.791 320.838 689.727 320.175 688.639 318.548C686.849 315.775 686.017 312.098 686.976 311.073C688.384 309.446 690.494 310.109 692.285 312.641C693.18 313.967 693.948 315.413 693.948 315.896C693.948 316.378 694.268 316.981 694.651 317.161C694.971 317.403 695.547 318.246 695.867 319.03C696.25 319.874 697.018 320.658 697.594 320.838C698.233 321.079 700.024 321.743 701.559 322.406C704.181 323.491 704.373 323.491 705.524 322.526C707.059 321.2 707.059 319.452 705.46 317.041C703.67 314.208 703.542 311.797 705.141 311.556C706.804 311.314 710.705 313.726 711.536 315.534C711.856 316.257 712.624 316.86 713.263 316.86C713.839 316.86 714.542 317.161 714.734 317.463C714.926 317.824 716.333 318.608 717.804 319.211C719.275 319.874 721.194 321.019 722.09 321.803C724.456 323.913 730.212 325.781 734.434 325.841C737.312 325.902 738.079 325.721 738.079 324.998C738.079 324.515 738.399 323.551 738.847 322.948C739.422 322.104 739.358 321.019 738.591 318.126C737.951 315.715 737.887 314.389 738.335 314.268C739.23 313.967 742.556 315.172 742.556 315.775C742.556 316.016 743.004 316.257 743.516 316.257C744.347 316.257 744.283 316.016 743.196 314.931C742.492 314.208 741.917 313.424 741.917 313.243C741.917 313.002 741.213 312.52 740.318 312.158C739.486 311.797 738.335 310.651 737.759 309.627C736.672 307.698 736.992 306.131 738.271 307.095C738.719 307.396 740.062 307.818 741.341 308.059C744.347 308.542 745.626 309.868 744.475 311.134C744.027 311.676 743.771 312.158 743.899 312.219C744.027 312.339 745.179 313.063 746.394 313.846C749.464 315.835 750.295 316.92 749.848 318.608C749.656 319.452 749.975 320.477 750.615 321.14C751.574 322.164 751.638 322.586 750.871 324.696C750.039 327.107 750.039 327.168 752.214 328.916C753.429 329.88 754.772 330.664 755.22 330.724C756.179 330.724 756.243 326.685 755.348 324.334C754.452 322.164 754.964 320.658 756.307 321.682C756.883 322.104 758.098 322.285 759.313 322.104C761.808 321.682 763.599 322.526 765.645 324.937C766.413 325.902 768.012 327.047 769.163 327.469C772.553 328.795 781.571 328.433 781.571 327.047C781.571 326.685 782.019 325.54 782.466 324.395C783.17 322.828 783.681 322.406 784.449 322.707C785.728 323.129 785.536 326.746 783.873 332.171C783.106 334.823 782.978 335.908 783.554 336.511C784.641 337.776 785.472 337.535 785.344 335.968C785.089 333.075 785.344 332.412 786.688 332.834C787.903 333.195 787.967 332.954 787.967 326.263C787.967 319.693 787.903 319.271 786.688 319.271C785.984 319.271 785.408 319.693 785.408 320.236C785.408 320.718 785.152 320.959 784.769 320.778C784.449 320.597 784.129 319.633 784.129 318.729C784.129 316.318 782.338 313.243 780.228 312.098C779.204 311.556 778.373 310.832 778.373 310.471C778.373 310.109 777.925 309.446 777.414 309.024C776.902 308.602 776.454 307.758 776.454 307.155C776.454 306.492 776.198 306.01 775.879 306.01C775.559 306.01 775.175 305.528 775.047 304.925C774.791 304.021 775.367 303.9 781.315 303.9H787.903L793.531 309.084C796.601 311.917 799.479 314.389 799.799 314.509C800.886 314.871 803.317 318.427 803.317 319.573C803.317 320.115 804.404 321.501 805.747 322.586C807.858 324.455 808.114 324.515 808.305 323.43C808.433 322.828 809.009 322.285 809.649 322.285C810.224 322.285 811.056 321.984 811.439 321.622C811.951 321.14 812.463 321.2 813.294 321.682C815.213 322.888 817.643 325.962 817.707 327.348C817.835 329.759 818.731 331.206 820.394 331.628C821.673 331.929 822.376 331.749 822.952 330.965C823.591 330.121 823.975 330.061 824.551 330.603C825.062 331.086 825.062 331.809 824.359 333.497C823.4 335.908 823.719 335.787 814.637 336.39C812.591 336.511 810.544 336.933 810.16 337.294C808.945 338.439 808.881 353.75 810.032 355.197C810.8 356.161 811.12 356.221 812.207 355.558C812.974 355.197 814.126 354.835 814.829 354.835C815.533 354.835 816.108 354.534 816.108 354.172C816.108 353.75 816.684 353.871 817.643 354.473C819.178 355.378 819.242 355.378 819.434 354.051C819.562 353.208 820.074 352.725 820.841 352.725C821.929 352.725 822.12 352.243 822.184 350.013C822.248 348.506 821.992 346.818 821.609 346.276C820.841 345.13 821.929 342.358 823.4 341.815C824.423 341.453 827.621 343.804 827.621 344.949C827.621 345.371 828.388 346.095 829.412 346.517C830.499 346.999 831.714 348.446 832.674 350.435C834.145 353.388 834.464 353.629 836.383 353.629C837.598 353.629 839.709 354.172 841.052 354.835C844.442 356.463 844.378 355.92 840.604 347.783C834.72 334.943 826.214 319.814 817.387 306.311C802.293 283.104 774.727 252.182 763.023 245.069C760.401 243.502 757.331 241.513 756.243 240.669C754.261 239.162 754.261 239.162 753.621 240.428C753.109 241.573 752.981 241.573 751.958 240.669C749.72 238.559 746.394 234.4 746.394 233.737C746.394 232.773 743.644 228.794 742.172 227.589C738.463 224.695 732.707 221.38 732.515 222.043C732.323 222.465 731.875 222.827 731.427 222.827C730.212 222.827 726.822 221.139 725.927 220.114C725.479 219.632 724.776 219.21 724.328 219.21C723.816 219.21 722.921 218.547 722.217 217.703C721.514 216.859 717.612 214.689 713.519 212.881C709.426 211.073 706.1 209.324 706.1 209.023C706.1 208.179 703.478 207.757 702.262 208.481C701.559 208.903 700.6 208.963 699.32 208.541L697.466 207.938L701.495 206.25C703.67 205.286 705.46 204.261 705.46 203.899C705.46 201.247 695.675 194.737 690.75 194.134C688.511 193.833 687.552 193.471 687.36 192.628C687.168 192.025 686.337 191.241 685.441 190.94C684.546 190.638 683.651 190.096 683.395 189.734C683.203 189.373 681.732 188.408 680.197 187.504C677.702 186.178 677.191 186.057 676.104 186.781C675.208 187.383 675.016 187.866 675.464 188.468C675.784 188.951 676.04 189.553 676.04 189.734C676.04 190.337 668.876 189.855 668.429 189.252C667.853 188.348 664.975 187.926 657.684 187.564C650.392 187.142 649.177 187.685 652.055 190.036L653.846 191.482L651.671 191.121C650.456 190.94 648.665 190.518 647.642 190.216C646.619 189.915 644.956 189.674 643.996 189.674H642.206L643.293 191.482C643.869 192.447 644.764 193.291 645.212 193.291C646.619 193.291 648.601 194.496 648.218 195.099C648.026 195.4 646.683 194.978 645.34 194.195C643.933 193.351 641.694 192.266 640.287 191.723C637.92 190.88 637.665 190.88 636.066 191.844C634.403 192.869 634.275 192.869 633.443 191.844C632.996 191.181 632.484 190.458 632.356 190.096C632.228 189.734 631.589 189.855 630.757 190.337L629.35 191.181L631.205 192.989C632.228 193.954 633.188 195.34 633.315 196.003C633.443 196.666 634.339 197.57 635.298 197.992C636.577 198.595 637.025 199.198 637.025 200.524C637.025 202.513 635.554 203.538 632.804 203.538H631.077L632.42 202.151C634.083 200.524 634.211 198.836 632.868 198.294C632.292 198.113 631.269 196.847 630.501 195.461C629.798 194.134 628.71 192.447 628.071 191.784C627.495 191.121 626.792 189.855 626.536 188.89C626.28 187.805 625.704 187.263 624.873 187.263C624.233 187.263 623.082 186.72 622.379 185.997C621.355 184.972 620.908 184.852 619.82 185.394C619.053 185.816 618.477 186.359 618.477 186.66C618.477 186.961 617.965 187.624 617.39 188.167C616.558 189.011 616.494 189.433 617.07 190.337C617.518 190.94 617.838 191.844 617.838 192.326C617.838 192.808 618.477 193.411 619.309 193.652C620.076 193.893 621.419 194.556 622.251 195.159C624.297 196.726 622.506 196.666 619.309 195.159C610.866 191.121 600.377 187.926 604.15 190.518C605.302 191.362 605.302 191.422 604.15 191.844C603.511 192.085 602.424 191.964 601.784 191.603C601.144 191.181 598.714 190.88 596.411 190.88C593.789 190.88 591.423 190.518 590.208 189.915C588.545 189.131 587.138 189.011 583.108 189.312C580.358 189.553 577.608 190.036 576.968 190.397C575.113 191.482 572.427 190.518 572.427 188.77C572.427 187.444 572.171 187.263 570.189 187.263C568.014 187.263 567.055 188.468 568.59 189.373C570.125 190.277 569.101 191 566.927 190.699C563.857 190.216 560.915 190.819 560.915 191.904C560.915 192.628 560.275 192.748 557.781 192.386C555.99 192.145 554.135 192.266 553.431 192.567C551.96 193.351 550.042 192.447 548.059 190.036L546.588 188.288L549.786 188.83C554.071 189.553 561.49 189.493 561.682 188.77C562.13 187.082 550.873 183.706 539.169 182.019C537.954 181.838 536.61 181.356 536.291 180.934C535.907 180.512 534.052 179.909 532.133 179.547C528.232 178.824 518.063 178.764 516.719 179.427ZM504.503 217.341C506.358 218.246 513.841 220.416 514.993 220.416C515.568 220.416 517.743 221.923 519.789 223.791C523.819 227.468 525.546 228.372 527.528 227.83C529.191 227.468 529.831 226.082 528.552 225.6C526.889 224.997 527.656 224.153 530.151 223.731C532.901 223.309 535.331 224.153 535.331 225.539C535.331 227.77 540.896 230.06 546.332 230.06C547.995 230.06 549.53 230.301 549.722 230.663C549.914 230.964 551.833 231.266 553.879 231.266C555.926 231.266 557.845 231.567 558.036 231.868C558.676 232.833 557.845 234.46 556.118 235.666C554.711 236.63 553.879 236.691 547.355 236.088C540.256 235.485 536.61 234.943 530.854 233.616C529.255 233.255 526.441 232.833 524.586 232.652C521.452 232.411 521.133 232.471 520.813 233.677C520.493 234.822 520.109 234.943 518.126 234.641C515.824 234.279 512.818 233.677 508.149 232.531C506.742 232.23 503.928 231.748 501.881 231.567C498.811 231.266 498.235 231.024 498.491 230.181C498.683 229.638 498.555 228.734 498.235 228.252C497.148 226.564 480.007 227.77 472.204 230.12C469.646 230.904 467.024 231.266 464.529 231.145C460.884 230.964 460.82 230.964 462.739 230.12C463.826 229.698 465.809 229.156 467.216 228.975C470.286 228.613 472.588 227.287 473.292 225.6C473.548 224.876 474.891 223.972 476.234 223.49C477.641 223.068 479.176 222.164 479.688 221.561C480.455 220.657 481.67 220.295 484.484 220.174C486.595 220.054 489.601 219.632 491.2 219.21C493.886 218.547 494.398 218.607 497.596 219.933C499.515 220.777 502.713 221.802 504.631 222.224C508.597 223.128 511.219 224.454 510.643 225.358C510.388 225.72 510.771 225.841 511.411 225.72C512.178 225.6 512.69 224.936 512.818 223.912C513.01 222.525 512.754 222.284 510.899 221.923C508.341 221.501 502.585 219.15 501.945 218.366C500.986 217.04 502.521 216.377 504.503 217.341Z" fill="url(#paint3_linear_25_275)"/>
<path d="M314.355 193.773C303.994 199.318 296.127 204.141 296.127 204.985C296.127 205.406 295.04 206.009 293.761 206.311C292.034 206.672 291.266 207.215 291.138 208.119C291.01 208.782 289.411 210.41 287.493 211.736C285.574 213.001 284.295 214.207 284.679 214.267C285.446 214.569 292.098 212.097 294.208 210.771C295.104 210.168 297.534 209.144 299.581 208.42C304.186 206.793 307.192 204.864 306.744 203.839C306.488 203.056 312.117 197.51 313.204 197.51C314.035 197.45 318.513 193.471 318.513 192.748C318.513 191.784 317.873 191.904 314.355 193.773Z" fill="url(#paint4_linear_25_275)"/>
<path d="M426.922 194.315C424.108 195.099 420.398 195.762 418.607 195.762C415.729 195.702 415.537 195.762 416.625 196.546C417.264 197.028 417.584 197.691 417.392 198.053C416.753 199.017 419.887 199.499 423.596 199.077C427.753 198.595 436.835 195.22 436.835 194.195C436.835 192.266 433.765 192.326 426.922 194.315Z" fill="url(#paint5_linear_25_275)"/>
<path d="M457.366 203.417L455.959 204.442L457.302 205.828C458.07 206.612 459.413 207.155 460.5 207.155C462.739 207.155 463.634 208.3 462.227 209.264C461.587 209.686 461.14 210.771 461.14 211.675C461.14 213.243 461.268 213.303 463.57 212.941C464.849 212.7 467.663 212.278 469.774 211.977C474.123 211.374 476.426 209.566 473.803 208.903C470.03 207.878 464.849 205.226 464.529 204.201C464.338 203.538 463.442 202.935 462.291 202.694C459.413 202.151 458.837 202.212 457.366 203.417Z" fill="url(#paint6_linear_25_275)"/>
<path d="M295.104 212.338C285.958 216.859 284.487 217.462 283.591 217.161C283.08 216.98 282.696 216.437 282.696 215.895C282.696 214.991 281.545 215.292 276.364 217.643C274.125 218.607 273.742 219.994 275.916 219.21C277.259 218.728 277.707 218.788 278.027 219.572C278.219 220.054 278.091 220.777 277.643 221.199C277.259 221.561 276.94 222.103 276.94 222.345C276.94 223.008 279.882 222.947 281.289 222.284C281.864 221.983 286.086 219.994 290.563 217.884C298.941 214.026 301.5 212.399 301.052 211.193C300.604 209.927 299.517 210.168 295.104 212.338Z" fill="url(#paint7_linear_25_275)"/>
<path d="M297.342 217.583C294.4 219.029 291.138 220.657 290.051 221.199C289.028 221.742 287.365 222.345 286.405 222.525C284.167 222.947 279.626 227.287 277.387 231.145C275.788 233.918 275.66 234.4 276.556 235.184C277.579 236.148 279.882 236.389 280.393 235.545C280.585 235.244 281.417 234.882 282.248 234.762C283.527 234.521 283.783 234.701 283.527 235.726C283.08 237.535 281.225 240.91 280.585 240.91C280.329 240.91 279.818 241.573 279.498 242.417C278.73 244.346 277.707 244.346 276.94 242.417C276.236 240.669 274.637 240.91 273.998 242.899C273.614 243.984 273.486 244.045 272.846 243.201C272.463 242.718 271.759 242.417 271.375 242.538C270.864 242.718 270.544 242.296 270.544 241.392C270.544 240.609 270.096 239.343 269.52 238.559C268.561 237.293 268.561 237.052 269.648 235.123C270.288 233.978 271.311 232.893 271.887 232.773C273.23 232.351 277.899 227.106 277.323 226.624C276.812 226.142 273.102 227.589 270.672 229.276C268.305 230.964 266.706 233.556 266.706 235.786C266.706 236.691 266.067 238.137 265.363 238.981L264.02 240.609L264.404 238.68C264.724 237.535 264.596 236.63 264.148 236.389C263.764 236.148 263.636 235.485 263.828 234.822C264.404 233.134 263.444 233.436 260.055 235.847C257.496 237.655 257.049 238.258 257.368 239.463C257.688 240.669 257.432 241.031 255.45 241.814C252.508 242.96 252.955 244.105 256.473 244.346C258.903 244.527 259.543 244.286 261.142 242.718C262.229 241.694 263.189 240.97 263.317 241.091C263.444 241.211 263.061 242.477 262.549 243.924C261.845 245.913 261.782 246.636 262.293 246.998C262.805 247.239 262.421 247.721 261.206 248.324C258.839 249.47 256.281 252.242 256.857 253.026C257.624 254.231 255.769 257.004 252.763 259.114C247.391 262.972 243.042 264.358 243.042 262.309C243.042 261.826 243.425 261.405 243.873 261.405C245.28 261.405 250.077 257.245 249.693 256.281C249.502 255.799 250.013 255.015 250.973 254.473C253.147 253.146 252.572 252.363 249.757 252.785L247.519 253.146V249.952C247.519 247.721 247.903 246.335 248.862 245.009C249.629 244.045 250.077 243.08 249.821 242.899C249.31 242.417 246.24 244.406 245.728 245.612C245.536 246.154 244.705 247.119 243.873 247.721C242.786 248.565 242.402 249.47 242.402 251.157C242.402 253.81 241.635 254.593 240.483 253.267C239.396 252.001 238.884 252.122 237.925 253.87C237.349 254.895 236.518 255.377 235.367 255.377C234.407 255.377 233.256 255.799 232.808 256.281C232.361 256.823 231.465 257.065 230.826 256.884C229.994 256.643 228.971 257.366 227.052 259.717C225.581 261.465 223.918 263.454 223.343 264.117C222.703 264.78 221.871 266.046 221.36 266.95C220.592 268.336 220.592 268.758 221.36 269.602C222.063 270.446 222.063 270.687 221.424 270.868C221.04 271.049 220.784 271.411 221.04 271.712C221.552 272.496 223.47 271.35 226.54 268.578C227.948 267.312 229.547 266.227 229.994 266.227C231.465 266.227 231.018 267.131 228.843 268.336C225.581 270.145 221.744 273.942 222.191 274.967C222.639 276.173 223.407 276.112 224.814 274.666C225.645 273.822 226.413 273.581 227.5 273.822C228.843 274.183 229.738 273.581 233 270.627C237.733 266.408 239.78 264.84 238.884 266.227C238.565 266.709 238.117 268.216 237.925 269.542C237.669 271.652 237.413 271.953 235.687 272.134C234.471 272.315 232.489 273.52 230.058 275.63C226.029 279.186 223.662 280.091 225.517 277.378C226.924 275.329 225.645 275.449 222.703 277.619C220.528 279.186 218.354 280.332 213.493 282.502C212.534 282.924 211.446 284.069 210.999 284.973C210.231 286.842 209.4 287.203 208.952 285.938C208.824 285.576 208.248 286.118 207.609 287.143C206.521 289.193 205.69 289.615 204.986 288.53C204.219 287.384 202.748 287.927 202.748 289.313C202.748 290.7 201.021 292.749 199.806 292.749C199.486 292.749 198.079 294.437 196.672 296.486C195.265 298.596 193.346 301.067 192.451 302.092C187.398 307.638 171.216 336.028 164.501 351.098C157.721 366.228 150.878 385.938 147.36 400.586C146.209 405.107 146.529 406.975 148.447 406.975C149.215 406.975 150.366 405.348 151.134 403.359C151.261 402.997 151.901 403.118 152.541 403.66C153.18 404.203 153.82 404.323 153.948 403.961C154.076 403.6 154.587 402.696 155.099 401.852C155.611 401.008 156.314 399.621 156.762 398.657C157.146 397.753 157.721 397.03 158.041 397.03C159.256 397.03 159.384 400.405 158.297 406.975C157.721 410.713 157.338 414.269 157.529 414.872C157.721 415.535 157.849 415.233 157.913 414.088C157.913 413.063 158.233 412.039 158.553 411.858C158.873 411.617 159.32 410.05 159.576 408.301C159.96 405.227 160.28 403.419 161.879 394.618C162.71 390.278 162.71 390.218 163.35 392.207L163.925 394.317L164.757 391.906C165.204 390.58 165.524 388.41 165.524 387.084C165.46 384.733 165.46 384.673 165.076 386.662C164.885 387.747 164.437 388.711 164.053 388.771C163.158 388.952 162.39 383.949 163.094 382.201C163.478 381.357 163.733 379.85 163.733 378.886C163.733 377.319 163.861 377.198 165.013 377.861C166.484 378.765 166.292 379.006 168.146 373.521C169.042 371.05 170.001 368.639 170.385 368.156C170.897 367.554 170.897 367.252 170.321 367.071C168.914 366.589 169.362 365.926 173.519 361.948C175.694 359.778 178.444 356.945 179.531 355.558C181.514 353.268 184.712 351.218 186.439 351.218C186.886 351.218 187.462 350.796 187.654 350.194C188.038 349.29 188.101 349.29 188.869 350.194C189.509 351.038 190.276 351.158 193.026 350.857C195.84 350.495 196.416 350.194 196.736 349.048C197.184 347.361 198.655 347.18 200.318 348.626C200.957 349.169 201.469 349.29 201.469 348.928C201.469 348.325 206.33 348.385 207.033 349.048C207.161 349.169 207.033 349.892 206.585 350.555C205.69 352.183 206.074 352.123 209.336 350.375L212.022 348.868L213.621 350.194C215.22 351.52 216.819 354.895 216.819 356.885C216.819 357.427 217.586 358.874 218.61 360.019C220.273 362.008 220.464 362.068 225.005 362.068C229.547 362.068 229.738 362.008 232.425 359.657C234.791 357.548 235.559 357.246 238.117 357.246C239.716 357.246 241.826 356.945 242.722 356.523C244.065 355.98 244.513 355.98 244.96 356.643C245.344 357.246 245.856 357.186 247.199 356.101C248.158 355.438 249.693 354.835 250.653 354.835C251.548 354.835 253.019 354.293 253.915 353.63L255.514 352.424H253.275C252.06 352.424 249.182 352.966 246.879 353.63C243.809 354.534 242.658 354.654 242.274 354.051C241.507 352.906 243.681 351.218 245.92 351.218C247.071 351.218 249.118 350.736 250.461 350.194C251.868 349.591 253.275 349.109 253.659 349.109C254.362 349.109 256.281 348.325 259.159 346.939C260.694 346.215 264.148 346.276 264.148 346.999C264.148 348.024 265.427 347.662 268.497 345.673C274.957 341.574 280.649 337.355 283.016 334.823C284.423 333.376 287.045 331.568 288.772 330.784C290.563 330.001 293.441 328.373 295.168 327.107C298.174 324.998 301.564 323.611 303.802 323.611C305.337 323.551 309.558 321.984 310.902 320.838C311.605 320.296 312.564 319.874 313.076 319.874C313.971 319.874 316.146 317.463 315.634 316.981C315.507 316.8 314.483 317.403 313.46 318.246C310.774 320.356 307.64 320.959 306.552 319.512C306.105 318.91 305.721 318.066 305.721 317.644C305.721 315.835 302.779 317.222 298.558 321.019C295.36 323.852 294.592 323.189 294.272 317.463C294.208 316.076 294.144 316.076 291.65 318.367C289.731 320.115 289.092 321.2 289.092 322.586C289.092 324.696 285.702 329.338 282.888 331.086C278.155 333.979 275.213 333.256 273.23 328.735L271.823 325.661L274.381 321.923C275.852 319.874 277.899 317.583 279.05 316.8C282.184 314.57 283.975 312.761 283.975 311.797C283.975 310.772 287.109 308.12 291.97 305.106C295.104 303.117 295.743 302.936 297.023 303.539C299.261 304.684 302.779 304.141 303.035 302.695C303.163 301.791 302.587 301.188 300.924 300.404C299.645 299.862 298.494 299.018 298.302 298.536C298.11 298.114 299.517 295.642 301.372 293.05C306.169 286.48 306.424 285.998 305.593 285.094C304.57 283.888 308.215 277.258 311.733 273.942C313.524 272.315 314.483 270.989 314.099 270.748C313.076 270.205 314.867 267.915 318.96 264.66C321.583 262.49 322.606 262.007 322.99 262.61C323.373 263.213 324.333 262.731 326.827 260.621C328.682 259.054 330.409 257.788 330.729 257.788C331.048 257.788 331.304 257.486 331.304 257.185C331.304 256.823 330.473 256.582 329.449 256.582C328.362 256.582 327.339 256.823 327.147 257.185C326.507 258.15 324.908 257.908 324.908 256.884C324.908 255.678 323.245 255.075 322.158 255.799C321.774 256.16 320.879 256.582 320.175 256.823C319.088 257.185 319.024 257.125 319.92 255.919C321.135 254.171 324.717 252.363 326.955 252.363C328.106 252.363 328.618 252.122 328.426 251.579C328.234 251.157 329.258 250.374 330.793 249.65C332.264 248.987 334.758 247.42 336.293 246.154C340.514 242.718 341.282 243.08 338.659 247.36C336.869 250.193 337.316 250.615 340.514 249.048C341.474 248.565 343.009 248.023 343.904 247.842C344.799 247.721 345.887 247.3 346.334 246.938C346.846 246.516 347.486 246.395 347.805 246.576C348.125 246.757 348.893 246.576 349.468 246.154C350.492 245.431 350.492 245.31 349.213 244.225C348.125 243.261 347.678 243.201 346.654 243.803C344.991 244.768 342.817 244.708 342.753 243.743C342.689 243.381 342.753 242.236 342.817 241.272L342.945 239.524L336.805 239.885C331.944 240.187 330.537 240.126 330.281 239.463C330.089 239.041 328.49 238.017 326.699 237.233C323.565 235.847 323.437 235.847 322.734 236.932C321.199 239.403 318.449 241.995 316.53 242.779C314.739 243.442 314.419 243.381 313.652 242.417C313.204 241.814 312.948 241.091 313.14 240.85C313.268 240.548 311.477 240.488 309.111 240.729C305.849 240.97 303.61 241.633 300.284 243.321L295.807 245.491L295.743 248.806C295.743 250.615 295.551 252.483 295.296 252.966C294.976 253.568 295.296 254.051 296.255 254.473C298.621 255.437 298.366 257.245 295.488 259.898C292.801 262.369 292.481 263.394 293.697 265.865C294.72 268.095 292.929 269.843 289.731 269.843C287.557 269.843 287.301 269.663 286.981 268.035L286.597 266.227L284.423 267.372C282.312 268.457 281.097 269.06 278.219 270.446C277.515 270.748 276.556 271.049 275.98 271.049C274.701 271.049 268.177 273.942 267.666 274.726C267.41 275.088 266.77 275.148 266.131 274.907C265.555 274.666 264.34 274.545 263.38 274.605C261.845 274.666 261.59 274.425 261.59 273.159C261.59 271.29 263.956 266.709 266.834 263.153C268.049 261.706 269.584 259.536 270.352 258.391C271.119 257.245 272.718 255.558 273.934 254.653C275.149 253.81 276.62 252.061 277.195 250.916C278.411 248.505 279.754 248.505 279.114 250.916C278.539 253.146 280.905 252.785 283.144 250.313C284.103 249.228 286.022 247.963 287.365 247.601C291.138 246.395 290.243 245.612 285.318 245.793C282.824 245.913 280.649 245.853 280.457 245.612C280.201 245.431 281.033 244.768 282.312 244.225C283.591 243.683 285.894 242.116 287.493 240.729C289.987 238.74 290.371 238.077 290.051 236.811C289.795 235.847 290.051 234.943 290.755 234.219C291.778 233.134 291.778 233.074 290.371 232.592L288.964 232.11L290.627 231.085C291.522 230.542 292.609 230.06 293.057 230.06C293.569 230.06 295.04 229.156 296.447 228.131C298.877 226.202 300.732 225.901 302.267 227.106C302.651 227.408 303.93 227.348 305.273 226.986C309.303 225.961 309.942 227.106 307.192 230.603C306.169 231.808 305.081 233.315 304.698 233.978C304.314 234.641 302.651 235.907 300.988 236.751C297.598 238.499 295.679 240.066 296.319 240.669C296.511 240.91 297.79 240.428 299.133 239.705C305.017 236.389 305.401 236.269 309.878 236.208C315.315 236.148 319.472 234.882 319.472 233.255C319.472 232.531 320.175 231.989 321.519 231.627C325.164 230.603 324.78 227.709 321.007 227.77C318.704 227.83 318.065 227.348 319.152 226.142C319.664 225.539 321.071 225.238 323.118 225.238C325.932 225.238 326.507 224.997 329.258 222.525L332.264 219.813L325.996 220.175C319.792 220.536 318.704 220.235 320.751 218.607C321.455 218.065 321.519 217.643 321.007 217.04C320.239 216.136 312.181 216.377 310.39 217.341C309.175 217.944 305.081 216.859 304.634 215.774C304.122 214.569 303.099 214.81 297.342 217.583Z" fill="url(#paint8_linear_25_275)"/>
<path d="M400.059 286.721C397.245 286.902 393.664 287.565 392.065 288.108C390.466 288.65 388.611 289.132 387.907 289.132C387.204 289.132 384.709 289.735 382.343 290.398L377.994 291.724L374.028 290.519C369.551 289.193 366.161 289.494 362.26 291.604C361.109 292.146 357.527 293.111 354.201 293.653C350.939 294.196 347.422 294.738 346.334 294.919C345.311 295.1 343.84 295.703 343.136 296.366C341.41 297.812 336.677 300.223 333.735 301.128C332.391 301.55 330.92 302.454 330.409 303.117C329.897 303.78 329.194 304.141 328.81 303.961C327.85 303.358 322.222 309.084 321.582 311.315C321.135 312.701 320.367 313.545 319.024 314.087L317.105 314.871L319.216 315.594C320.367 315.956 321.838 316.679 322.414 317.222C323.501 318.126 323.501 318.307 322.286 320.899C320.815 324.154 320.687 327.107 321.966 327.107C322.478 327.107 322.99 327.65 323.117 328.373C323.309 329.579 323.629 329.639 332.583 329.639C340.322 329.639 342.497 329.458 345.951 328.373C348.189 327.71 350.428 327.107 350.875 327.107C351.835 327.107 357.207 332.834 358.55 335.305C359.126 336.27 360.341 337.897 361.365 338.861C362.388 339.886 363.411 341.514 363.667 342.599C363.859 343.623 365.01 345.311 366.225 346.396C367.441 347.421 368.4 348.566 368.4 348.868C368.4 349.169 368.848 349.41 369.423 349.41C369.935 349.41 370.191 349.169 369.999 348.807C369.104 347.481 371.598 349.048 372.557 350.435C373.325 351.52 373.453 352.123 372.941 352.605C371.854 353.63 372.11 354.353 373.517 353.931C374.476 353.63 374.796 353.81 374.796 354.715C374.796 355.8 377.546 357.427 379.593 357.548C379.976 357.608 381.064 357.97 382.087 358.331C384.517 359.296 388.227 358.753 392.64 356.704C394.303 355.92 394.175 354.835 392.448 354.835C390.146 354.835 386.308 353.268 386.244 352.303C386.244 351.881 386.18 350.555 386.116 349.41C385.989 347.481 385.861 347.3 384.262 347.481L382.471 347.662L382.919 343.865C383.302 340.368 383.238 340.127 382.279 340.911C381.32 341.634 381.192 341.574 381.192 340.73C381.192 340.188 381.639 339.585 382.151 339.404C382.663 339.163 383.11 338.319 383.11 337.415C383.174 336.27 383.814 335.426 385.669 334.22C387.524 333.015 388.227 332.11 388.227 331.025C388.227 330.061 387.843 329.518 387.268 329.518C385.605 329.518 386.18 328.554 388.547 327.348C389.762 326.746 390.977 325.661 391.169 324.998C391.425 324.335 392.192 322.586 392.896 321.08C393.664 319.512 394.239 317.041 394.239 315.172C394.303 312.219 394.495 311.797 396.861 309.868C398.269 308.723 400.315 307.336 401.466 306.914C402.618 306.432 403.833 305.468 404.217 304.805C405.048 303.298 405.24 299.741 404.6 297.089C404.217 295.582 404.345 294.798 405.112 294.015C405.688 293.412 406.135 292.689 406.135 292.327C406.135 291.965 406.583 291.363 407.159 290.941C408.95 289.494 409.397 288.108 408.31 287.083C407.798 286.54 406.839 286.179 406.263 286.239C405.688 286.299 402.874 286.48 400.059 286.721Z" fill="url(#paint9_linear_25_275)"/>
<path d="M574.218 288.228C572.619 288.65 570.508 288.831 569.677 288.71C567.694 288.349 565.392 289.434 565.392 290.76C565.392 291.363 564.624 292.387 563.729 293.05C561.362 294.798 562.066 296.727 565.392 297.631C567.822 298.355 568.014 298.295 571.532 295.763C577.352 291.604 579.526 289.434 579.079 288.349C578.631 287.143 578.247 287.143 574.218 288.228Z" fill="url(#paint10_linear_25_275)"/>
<path d="M696.059 332.954C695.739 333.557 695.547 334.461 695.611 334.943C695.675 335.426 695.739 336.149 695.803 336.45C695.803 336.812 696.954 338.259 698.297 339.585C699.576 340.971 701.175 342.78 701.815 343.623C702.902 345.07 703.158 345.13 706.932 344.769C709.17 344.588 711.089 344.045 711.409 343.623C711.664 343.141 712.624 342.78 713.519 342.78C714.926 342.78 715.054 342.599 714.734 341.393C714.223 339.705 712.048 337.957 710.513 337.957C709.874 337.957 709.17 337.656 708.978 337.355C708.786 336.993 708.147 336.752 707.635 336.752C707.123 336.752 705.46 336.209 704.053 335.546C702.582 334.883 701.047 334.341 700.664 334.341C700.216 334.341 699.384 333.798 698.745 333.135C697.338 331.628 696.698 331.628 696.059 332.954Z" fill="url(#paint11_linear_25_275)"/>
<path d="M754.069 336.993C754.069 339.464 755.54 340.188 757.267 338.56C758.226 337.656 758.61 337.596 759.122 338.198C759.505 338.62 759.633 339.163 759.377 339.344C758.738 340.007 761.808 342.719 762.767 342.358C763.343 342.177 763.663 342.478 763.663 343.322C763.663 343.985 764.302 344.889 765.07 345.251C765.837 345.673 768.012 347.361 769.931 348.988L773.32 352.062L774.28 350.676C774.855 349.953 776.007 349.109 776.838 348.807C778.117 348.325 778.373 347.843 778.373 345.793C778.373 342.84 776.966 341.996 775.111 343.925C774.408 344.588 773.32 345.191 772.745 345.191C771.21 345.191 768.779 343.503 768.779 342.418C768.779 341.815 768.332 341.634 767.308 341.875C766.157 342.177 765.326 341.695 763.471 339.826C760.976 337.234 758.802 335.968 755.86 335.305C754.197 334.943 754.069 335.064 754.069 336.993Z" fill="url(#paint12_linear_25_275)"/>
<path d="M678.406 355.86C677.127 356.704 676.04 357.789 676.04 358.211C676.04 359.416 672.266 362.852 671.307 362.49C670.795 362.31 670.219 362.551 670.028 363.093C669.58 364.118 673.609 368.096 675.016 368.096C675.464 368.096 676.807 369.061 678.022 370.266C679.174 371.472 681.22 372.918 682.499 373.521C683.715 374.124 686.529 376.173 688.703 378.042C693.308 382.081 695.163 385.637 694.076 388.53C693.692 389.555 693.628 390.399 693.884 390.399C694.14 390.399 695.099 391.002 695.931 391.665C697.338 392.87 697.402 392.991 696.123 392.69C695.035 392.448 694.843 392.629 695.099 393.835C695.291 394.799 694.907 395.764 694.012 396.668C692.733 397.994 692.669 398.235 693.436 400.646C693.884 402.033 694.779 403.419 695.419 403.72C695.995 404.022 696.506 404.866 696.506 405.529C696.506 407.277 701.815 412.099 703.67 412.099C705.397 412.099 711.537 414.148 712.752 415.053C714.031 416.077 720.043 416.981 721.322 416.379C721.898 416.077 722.857 415.655 723.433 415.535C724.008 415.354 724.648 414.45 724.84 413.485C725.032 412.581 725.543 410.592 725.927 409.085C726.375 407.578 726.695 405.408 726.695 404.323C726.631 402.937 727.27 401.43 728.485 399.863C729.509 398.597 730.148 397.15 730.02 396.728C729.829 396.306 730.148 395.101 730.66 394.076C732.003 391.725 731.364 391.424 726.375 391.906C721.898 392.388 721.77 392.268 720.235 387.023C719.084 382.864 719.275 381.779 721.13 382.081C723.177 382.442 723.113 382.261 720.874 378.343C718.892 374.968 714.67 371.713 712.176 371.713C711.153 371.713 710.449 371.05 709.554 369.121C708.53 367.011 707.827 366.408 705.077 365.384C703.222 364.66 701.367 363.816 700.919 363.455C700.408 363.153 698.937 362.671 697.658 362.49C696.187 362.31 693.756 361.044 691.262 359.175C686.657 355.8 683.651 354.232 681.988 354.232C681.348 354.232 679.749 354.956 678.406 355.86Z" fill="url(#paint13_linear_25_275)"/>
<path d="M727.782 369.724C727.334 370.929 727.334 371.653 727.782 372.316C728.613 373.401 731.364 378.946 731.939 380.634C732.195 381.357 732.003 382.201 731.428 382.744C730.596 383.527 730.66 384.07 732.131 387.626C733.282 390.52 734.242 391.906 735.457 392.509C737.568 393.533 738.719 395.703 738.719 398.778C738.719 400.043 739.167 402.033 739.678 403.118L740.574 405.167L740.638 403.178C740.638 402.093 740.957 400.586 741.405 399.863C742.94 397.15 741.533 391.363 737.056 381.96C735.905 379.489 734.689 377.921 733.282 377.138C730.852 375.691 730.148 374.486 730.98 372.979C731.428 372.195 731.236 371.351 730.404 370.025C728.869 367.674 728.613 367.674 727.782 369.724Z" fill="url(#paint14_linear_25_275)"/>
<path d="M747.781 240.816C748.452 241.672 748.969 242.481 749.277 243.516C749.03 244.4 748.651 245.145 748.222 245.972C747.884 246.835 747.925 247.097 748.31 247.889C748.744 248.828 748.744 248.828 748.466 249.62C747.79 250.264 747.507 250.393 746.637 250.673C745.71 250.983 745.528 251.076 744.901 251.855C744.637 252.988 744.845 253.655 745.24 254.706C745.365 255.28 745.365 255.28 744.824 256.186C744.028 256.632 744.028 256.632 743.198 257.017C742.029 257.613 741.894 258.365 741.439 259.49C741.442 261.159 742.927 262.85 743.815 264.219C748.723 271.802 748.723 271.802 747.962 276.16C747.388 277.15 746.892 277.535 745.812 278.045C743.099 278.096 741.325 276.52 739.516 274.922C737.193 272.712 735.457 270.175 733.843 267.478C733.08 266.175 733.08 266.175 731.819 265.349C730.932 265.245 730.932 265.245 729.987 265.261C729.67 265.259 729.352 265.258 729.025 265.256C728.783 265.257 728.541 265.259 728.292 265.261C728.149 265.564 728.149 265.564 728.002 265.873C727.485 266.782 727.011 267.025 725.99 267.382C725.286 267.249 725.286 267.249 724.632 266.816C724.453 266.543 724.273 266.271 724.088 265.991C723.517 265.206 723.517 265.206 722.818 265.093C722.073 265.042 722.073 265.042 720.967 265.223C720.502 265.7 720.502 265.7 720.155 266.268C719.317 266.676 719.317 266.676 718.393 266.853C717.591 266.538 717.065 266.281 716.594 265.595C715.779 264.959 714.805 265.081 713.762 265.085C711.534 265.074 711.534 265.074 710.929 264.681C710.529 264.044 710.193 263.381 709.841 262.717C713.562 261.004 717.352 259.507 721.184 258.045C721.769 257.82 722.355 257.596 722.941 257.371C724.357 256.827 725.773 256.285 727.19 255.744C725.333 250.969 725.333 250.969 722.018 247.216C720.525 246.755 719.112 246.953 717.545 247.127C716.517 247.035 715.541 246.927 714.695 246.378C714.42 245.942 714.161 245.496 713.913 245.045C713.779 244.805 713.645 244.565 713.507 244.318C713.198 243.678 713.198 243.678 713.197 243.049C715.719 241.916 718.363 241.456 721.06 240.922C720.961 240.756 720.861 240.591 720.758 240.42C720.63 240.202 720.503 239.983 720.372 239.758C720.244 239.541 720.116 239.325 719.984 239.103C719.7 238.467 719.7 238.467 719.833 237.454C720.326 237.306 720.818 237.159 721.325 237.007C722.042 237.68 722.759 238.353 723.499 239.046C723.837 238.635 723.837 238.635 724.182 238.215C724.484 237.854 724.786 237.492 725.089 237.131C725.237 236.951 725.384 236.77 725.537 236.584C726.429 235.526 727.161 234.838 728.509 234.282C729.764 235.074 730.497 236.098 730.956 237.442C730.854 238.65 730.593 239.343 729.892 240.393C729.266 241.406 728.882 242.2 728.66 243.339C729.267 244.938 730.296 246.155 731.406 247.468C731.69 247.826 731.973 248.184 732.255 248.544C732.945 249.418 733.652 250.277 734.371 251.131C736.316 249.66 738.233 248.166 740.106 246.613C740.366 246.398 740.366 246.398 740.631 246.178C741.342 245.588 742.052 244.997 742.761 244.405C743.288 243.965 743.817 243.527 744.347 243.088C744.504 242.955 744.662 242.823 744.825 242.686C745.757 241.917 746.672 241.331 747.781 240.816Z" fill="#FF9D00"/>
<path d="M501.254 129.14C501.613 129.867 501.613 129.867 501.979 130.609C501.202 132.055 500.751 132.587 499.115 132.923C497.28 132.97 495.446 133.015 493.605 133.033C492.966 133.055 492.326 133.076 491.668 133.099C491.053 133.109 490.438 133.12 489.804 133.131C489.241 133.141 488.678 133.151 488.098 133.161C486.585 132.928 486.585 132.928 485.251 132.029C484.793 131.479 484.793 131.479 484.325 130.918C484.345 130.291 484.364 129.664 484.384 129.018C486.908 127.295 490.341 127.538 493.515 127.474C494.082 127.446 494.648 127.419 495.232 127.391C499.397 127.301 499.397 127.301 501.254 129.14Z" fill="#FF9D00"/>
<path d="M528.402 132.046C527.863 133.058 527.863 133.058 526.946 134.07C525.577 134.215 525.577 134.215 523.93 134.063C523.337 134.012 522.744 133.962 522.133 133.911C521.513 133.847 520.893 133.784 520.254 133.719C519.635 133.665 519.016 133.612 518.379 133.557C513.896 133.153 513.896 133.153 511.669 132.588C510.9 131.196 510.9 131.196 510.36 129.862C512.21 127.856 513.963 127.949 516.762 128.201C517.26 128.256 517.758 128.311 518.271 128.368C518.767 128.413 519.263 128.459 519.775 128.505C526.203 129.128 526.203 129.128 528.402 132.046Z" fill="#FF9D00"/>
<path d="M632.982 166.3C633.303 167.063 633.303 167.063 633.631 167.841C632.061 168.731 631.244 169.175 629.243 168.554C628.688 168.262 628.134 167.969 627.564 167.667C626.958 167.347 626.353 167.028 625.729 166.698C625.103 166.354 624.476 166.009 623.831 165.654C623.197 165.326 622.563 164.998 621.91 164.66C618.411 162.773 618.411 162.773 617.103 161.733C616.5 160.069 616.5 160.069 616.269 158.648C617.148 158.087 617.148 158.087 618.617 157.807C620.267 158.488 621.744 159.188 623.336 160.052C623.753 160.27 624.17 160.489 624.599 160.714C625.808 161.348 627.013 161.993 628.219 162.638C628.9 162.965 629.581 163.293 630.283 163.631C631.876 164.523 631.876 164.523 632.982 166.3Z" fill="#FF9D00"/>
<path d="M657.914 182.202C658.064 182.921 658.064 182.921 658.217 183.655C657.355 184.265 657.355 184.265 655.87 184.496C654.113 183.548 652.553 182.602 650.885 181.466C649.999 180.88 649.113 180.294 648.227 179.708C647.443 179.185 646.659 178.662 645.851 178.124C645.317 177.819 644.784 177.513 644.234 177.199C642.618 176.149 642.151 174.894 641.361 173.154C642.412 172.34 642.412 172.34 644.184 171.955C646.215 172.839 648.048 174.106 649.94 175.39C650.455 175.727 650.97 176.064 651.501 176.411C657.263 180.2 657.263 180.2 657.914 182.202Z" fill="#FF9D00"/>
<path d="M554.175 135.712C554.351 136.23 554.526 136.749 554.707 137.283C551.553 138.91 548.883 138.104 545.132 137.248C544.521 137.123 543.911 136.999 543.282 136.87C542.697 136.741 542.112 136.612 541.51 136.479C540.977 136.361 540.444 136.244 539.894 136.123C538.509 135.568 538.509 135.568 536.724 133.2C537.179 132.157 537.179 132.157 538.18 131.175C541.231 131.262 544.325 131.96 547.423 132.562C548.01 132.66 548.597 132.758 549.201 132.858C552.65 133.534 552.65 133.534 554.175 135.712Z" fill="#FF9D00"/>
<path d="M581.429 144.063C580.911 145.117 580.911 145.117 579.974 146.088C578.462 145.955 578.462 145.955 576.628 145.418C575.973 145.228 575.317 145.038 574.642 144.841C573.969 144.636 573.296 144.43 572.602 144.217C571.962 144.044 571.321 143.871 570.661 143.693C570.058 143.521 569.455 143.349 568.833 143.171C568.285 143.016 567.738 142.86 567.173 142.7C565.33 141.807 564.64 140.808 563.476 139.029C563.799 138.479 564.122 137.929 564.456 137.362C569.479 137.476 578.115 138.858 581.429 144.063Z" fill="#FF9D00"/>
<path d="M474.16 129.297C474.772 130.391 475.358 131.497 475.915 132.615C473.174 134.112 470.398 134.694 467.218 135.166C466.744 135.249 466.27 135.331 465.782 135.416C463.803 135.717 462.31 135.934 460.214 135.067C459.154 134.108 459.154 134.108 458.737 132.566C461.681 130.846 464.534 130.171 468.053 129.722C468.54 129.653 469.027 129.584 469.528 129.513C473.087 129.024 473.087 129.024 474.16 129.297Z" fill="#FF9D00"/>
<path d="M607.559 155.002C606.257 155.903 605.277 156.344 603.509 155.876C602.058 155.295 600.636 154.66 599.204 153.989C598.711 153.768 598.218 153.547 597.711 153.32C596.384 152.722 595.06 152.109 593.737 151.495C592.982 151.145 592.227 150.796 591.448 150.436C590.651 149.006 590.651 149.006 590.139 147.709C591.135 146.753 591.135 146.753 592.516 145.918C593.978 146.192 593.978 146.192 595.593 146.888C596.177 147.139 596.761 147.39 597.363 147.648C597.969 147.923 598.575 148.198 599.199 148.482C599.807 148.737 600.416 148.992 601.042 149.255C605.976 151.434 605.976 151.434 607.559 155.002Z" fill="#FF9D00"/>
<path d="M448.959 133.437C449.695 134.413 450.431 135.39 451.19 136.397C450.035 138.36 449.411 138.437 447.247 138.965C446.659 139.112 446.071 139.259 445.465 139.411C444.848 139.558 444.231 139.705 443.596 139.857C442.975 140.01 442.354 140.164 441.715 140.322C440.18 140.701 438.644 141.074 437.104 141.442C436.211 140.583 435.319 139.724 434.399 138.84C436.045 135.903 438.856 135.583 441.979 134.868C442.494 134.741 443.01 134.615 443.541 134.485C447.238 133.59 447.238 133.59 448.959 133.437Z" fill="#FF9D00"/>
<path d="M682.3 200.778C681.515 201.369 680.731 201.96 679.923 202.569C677.911 201.094 675.909 199.604 673.908 198.11C673.338 197.693 672.769 197.276 672.182 196.846C671.635 196.435 671.088 196.025 670.524 195.602C670.02 195.229 669.516 194.855 668.997 194.47C667.464 193.041 666.788 191.797 665.918 189.918C667.148 189.205 667.148 189.205 668.741 188.719C670.165 189.397 670.165 189.397 671.65 190.548C672.188 190.961 672.726 191.373 673.28 191.798C673.834 192.241 674.389 192.684 674.96 193.14C675.521 193.568 676.081 193.996 676.659 194.436C681.174 197.956 681.174 197.956 682.3 200.778Z" fill="#FF9D00"/>
<path d="M704.421 221.233C703.647 221.511 702.872 221.788 702.074 222.074C697.436 218.157 692.978 214.371 688.991 209.657C689.628 208.871 690.265 208.085 690.921 207.274C703.651 215.979 703.651 215.979 704.421 221.233Z" fill="#FF9D00"/>
<path d="M402.93 150.487C403.541 151.582 404.128 152.688 404.685 153.805C403.344 154.684 402.001 155.56 400.657 156.434C400.095 156.804 400.095 156.804 399.521 157.18C393.043 161.386 393.043 161.386 391.463 160.985C390.7 160.013 389.955 159.026 389.232 158.025C393.081 154.793 397.41 152.357 402.008 150.253C402.313 150.331 402.617 150.408 402.93 150.487Z" fill="#FF9D00"/>
<path d="M425.513 140.895C426.092 141.99 426.671 143.085 427.268 144.213C424.31 145.881 421.315 147.194 418.059 148.31C417.63 148.461 417.201 148.611 416.76 148.765C415.718 149.13 414.674 149.49 413.629 149.85C412.883 149.187 412.138 148.524 411.369 147.84C412.02 145.588 412.712 144.811 414.762 143.993C415.236 143.801 415.71 143.609 416.199 143.411C416.696 143.22 417.193 143.03 417.705 142.834C418.197 142.633 418.689 142.433 419.196 142.226C421.412 141.346 422.932 140.773 425.513 140.895Z" fill="#FF9D00"/>
<path d="M381.656 162.806C382.392 163.782 383.128 164.759 383.887 165.766C383.837 167.362 382.604 167.781 381.512 168.606C381.025 168.974 380.538 169.343 380.037 169.722C379.522 170.106 379.007 170.491 378.476 170.887C377.967 171.274 377.457 171.662 376.932 172.061C376.443 172.428 375.955 172.795 375.451 173.174C375.001 173.512 374.55 173.85 374.086 174.199C372.924 174.955 372.924 174.955 371.527 175.079C370.791 174.102 370.055 173.125 369.297 172.119C373.375 169.046 377.454 165.972 381.656 162.806Z" fill="#FF9D00"/>
<path d="M721.103 237.436C720.49 238.478 720.49 238.478 719.647 239.461C717.025 238.795 715.891 236.905 714.106 234.703C713.606 234.097 713.606 234.097 713.095 233.478C712.272 232.479 711.454 231.476 710.638 230.472C711.275 229.685 711.912 228.899 712.568 228.089C716.105 230.792 718.487 233.747 721.103 237.436Z" fill="#FF9D00"/>
<path d="M672.068 171.168C674.59 168.305 676.689 166.516 680.113 165.557C680.605 165.583 681.096 165.608 681.603 165.635C683.676 165.675 684.974 165.436 686.962 164.458C689.927 161.237 691.938 156.972 694.041 153.078C694.936 151.47 695.837 149.866 696.742 148.264C697.301 147.269 697.854 146.27 698.397 145.265C698.647 144.813 698.896 144.361 699.152 143.895C699.368 143.497 699.584 143.098 699.806 142.687C701.09 140.907 702.395 140.645 704.293 140.237C705.966 140.063 705.966 140.063 707.367 140.601C706.828 142.918 706.283 145.233 705.738 147.548C705.513 148.516 705.513 148.516 705.283 149.504C704.234 153.937 703 158.273 701.593 162.618C702.093 162.563 702.594 162.507 703.109 162.45C712.994 161.402 712.994 161.402 716.067 162.582C717.456 159.424 718.845 156.266 720.276 153.013C721.184 152.951 722.091 152.889 723.026 152.826C723.049 155.207 722.972 157.262 722.454 159.635C722.349 160.729 722.349 160.729 722.242 161.845C723.369 163.088 723.369 163.088 724.627 164.003C724.704 165.198 724.704 165.198 724.262 166.349C723.686 166.966 723.098 167.571 722.497 168.157C722.611 168.665 722.725 169.173 722.843 169.697C722.984 170.364 723.126 171.03 723.272 171.717C723.416 172.377 723.56 173.038 723.709 173.719C723.944 175.547 723.944 175.547 723.113 177.714C722.204 177.853 722.204 177.853 721.038 177.538C720.073 176.033 719.267 174.501 718.473 172.871C717.909 171.747 717.909 171.747 716.84 170.335C715.57 170.046 715.57 170.046 714.091 170.522C713.594 170.632 713.594 170.632 713.088 170.745C711.944 171.002 710.807 171.289 709.667 171.582C709.281 171.679 708.895 171.776 708.497 171.876C707.748 172.065 706.999 172.255 706.249 172.446C704.92 172.784 703.59 173.112 702.26 173.437C702.428 173.893 702.597 174.348 702.77 174.818C703.972 178.11 705.099 181.392 706.03 184.817C706.7 187.054 707.549 189.191 708.391 191.337C708.784 192.718 708.784 192.718 708.16 194.343C707.372 194.496 706.582 194.629 705.793 194.755C705.134 194.869 705.134 194.869 704.461 194.986C701.378 194.779 699.572 191.242 697.829 188.807C697.261 188.039 696.692 187.273 696.122 186.507C695.231 185.31 694.347 184.109 693.482 182.887C690.281 178.008 690.281 178.008 685.577 175.423C683.906 175.564 682.424 175.881 680.78 176.377C677.72 176.524 674.982 175.87 672.637 173.872C672.225 172.437 672.225 172.437 672.068 171.168Z" fill="#FF9D00" fill-opacity="0.9"/>
<path d="M835.502 328.394C835.914 327.293 836.329 326.194 836.745 325.095C836.975 324.483 837.206 323.87 837.444 323.239C838.083 321.672 838.083 321.672 838.846 320.68C839.948 321.665 839.948 321.665 840.08 322.439C839.724 323.466 839.344 324.486 838.953 325.501C838.635 326.332 838.635 326.332 838.311 327.18C837.715 328.601 837.715 328.601 836.952 329.593C836.474 329.197 835.995 328.802 835.502 328.394Z" fill="#FF9D00" fill-opacity="0.9"/>
<path d="M849.274 272.197C850.15 272.533 851.025 272.869 851.928 273.215C852.216 276.862 852.183 279.257 850.59 282.648C849.63 282.532 848.67 282.416 847.681 282.296C847.366 274.625 847.366 274.625 849.274 272.197Z" fill="#FF9D00"/>
<path d="M851.211 256.516C851.741 256.483 852.27 256.451 852.816 256.418C853.547 258.428 853.408 259.928 852.996 262.334C852.845 263.241 852.845 263.241 852.691 264.166C852.609 264.626 852.528 265.085 852.444 265.558C851.336 265.892 851.336 265.892 850.144 266.104C849.133 264.641 849.56 263.123 849.792 261.026C850.054 259.391 850.503 258.039 851.211 256.516Z" fill="#FF9D00"/>
<path d="M841.987 308.353C842.285 307.616 842.285 307.616 842.59 306.864C842.746 306.49 842.903 306.117 843.064 305.732C843.779 305.818 844.494 305.904 845.231 305.992C845.559 307.953 845.27 309.172 844.513 311.001C844.333 311.442 844.154 311.882 843.969 312.337C843.758 312.834 843.758 312.834 843.543 313.342C842.828 313.256 842.113 313.17 841.376 313.082C840.904 310.946 841.175 310.33 841.987 308.353Z" fill="#FF9D00" fill-opacity="0.9"/>
<path d="M827.637 342.584C828.085 341.621 828.567 340.675 829.064 339.74C829.467 338.968 829.467 338.968 829.879 338.181C830.709 336.908 830.709 336.908 832.258 336.36C832.643 337.162 832.643 337.162 832.852 338.302C832.28 339.624 832.28 339.624 831.449 341.013C831.176 341.476 830.903 341.939 830.622 342.416C830.407 342.767 830.193 343.118 829.971 343.48C829.254 343.423 828.542 343.339 827.835 343.232C827.77 343.018 827.705 342.804 827.637 342.584Z" fill="#FF9D00"/>
<path d="M847.28 288.569C848.142 289.136 849.003 289.702 849.891 290.286C849.18 296.032 849.18 296.032 847.925 298.814C846.707 298.793 846.707 298.793 845.406 298.562C844.083 295.2 845.959 291.856 847.28 288.569Z" fill="#FF9D00" fill-opacity="0.9"/>
<path d="M804.137 366.599C805.643 363.449 807.852 361.982 810.509 360.146C811.361 360.718 812.213 361.289 813.09 361.878C811.579 365.267 809.056 366.472 806.152 368.114C805.487 367.614 804.822 367.114 804.137 366.599Z" fill="#FF9D00" fill-opacity="0.9"/>
<path d="M808.774 177.793C809.45 176.755 809.45 176.755 810.169 175.811C813.095 176.821 815.183 177.754 817.493 179.881C817.033 180.536 816.572 181.19 816.098 181.864C814.086 181.754 812.918 181.222 811.265 180.088C810.868 179.82 810.471 179.552 810.062 179.276C809.116 178.554 809.116 178.554 808.774 177.793Z" fill="#FF9D00" fill-opacity="0.9"/>
<path d="M766.656 163.495C768.88 161.793 769.643 162.022 772.146 162.349C773.631 162.685 774.701 163.305 775.875 164.281C775.313 165.201 774.75 166.12 774.171 167.068C773.098 166.943 772.027 166.801 770.958 166.652C770.362 166.575 769.766 166.498 769.151 166.418C767.625 165.932 767.625 165.932 766.932 164.668C766.841 164.281 766.75 163.894 766.656 163.495Z" fill="#FF9D00" fill-opacity="0.9"/>
<path d="M736.476 164.605C736.803 163.753 737.13 162.901 737.467 162.023C738.333 161.955 739.2 161.894 740.067 161.836C740.55 161.802 741.033 161.767 741.53 161.732C742.928 161.749 742.928 161.749 745.002 162.546C744.912 163.293 744.821 164.04 744.728 164.81C741.705 165.795 739.411 165.927 736.476 164.605Z" fill="#FF9D00" fill-opacity="0.9"/>
<path d="M816.731 355.495C818.072 353.044 819.661 351.352 821.753 349.466C822.464 349.941 823.175 350.416 823.908 350.905C823.934 352.477 823.782 353.146 822.737 354.348C822.349 354.682 821.962 355.017 821.563 355.361C821.175 355.701 820.787 356.041 820.387 356.392C820.086 356.646 819.785 356.9 819.476 357.161C818.57 356.611 817.664 356.062 816.731 355.495Z" fill="#FF9D00" fill-opacity="0.9"/>
<path d="M833.138 198.034C833.755 197.371 834.373 196.708 835.008 196.025C836.647 197.644 837.882 199.369 838.906 201.611C838.605 202.395 838.304 203.179 837.994 203.987C837.445 204.001 836.896 204.016 836.33 204.03C835.533 202.92 835.533 202.92 834.771 201.472C834.516 200.996 834.261 200.521 833.998 200.031C833.389 198.811 833.389 198.811 833.138 198.034Z" fill="#FF9D00"/>
<path d="M750.906 164.219C751.237 163.356 751.568 162.494 751.909 161.605C753.132 161.55 754.354 161.506 755.576 161.466C756.256 161.44 756.937 161.414 757.638 161.388C759.433 161.494 759.433 161.494 760.96 162.83C760.351 163.833 759.741 164.836 759.113 165.87C758.143 165.898 757.172 165.913 756.202 165.924C755.662 165.934 755.121 165.944 754.565 165.954C752.901 165.769 752.144 165.329 750.906 164.219Z" fill="#FF9D00" fill-opacity="0.9"/>
<path d="M846.506 225.474C846.952 224.917 846.952 224.917 847.407 224.35C849.273 225.439 849.902 226.391 850.61 228.422C850.777 228.878 850.945 229.334 851.117 229.803C851.372 231.145 851.372 231.145 850.49 233.443C849.661 233.342 848.832 233.242 847.978 233.138C847.555 232.177 847.149 231.208 846.75 230.236C846.522 229.697 846.294 229.158 846.06 228.603C845.732 227.002 845.732 227.002 846.506 225.474Z" fill="#FF9D00"/>
<path d="M782.067 166.755C783.319 165.147 783.319 165.147 784.658 164.965C785.803 165.355 786.937 165.781 788.061 166.228C788.665 166.466 789.269 166.704 789.892 166.949C790.355 167.135 790.819 167.321 791.297 167.513C790.73 168.444 790.163 169.375 789.579 170.335C787.106 170.07 784.959 169.422 782.707 168.393C782.496 167.852 782.284 167.312 782.067 166.755Z" fill="#FF9D00"/>
<path d="M850.344 240.473C851.572 240.986 851.572 240.986 852.883 242.107C853.584 245.057 853.913 247.043 852.444 249.848C851.534 249.499 850.623 249.149 849.685 248.789C848.972 243.069 848.972 243.069 850.344 240.473Z" fill="#FF9D00" fill-opacity="0.9"/>
<path d="M840.84 208.975C843.601 210.195 844.727 211.872 846.269 214.084C846.773 215.224 846.773 215.224 846.013 217.201C844.682 216.939 844.682 216.939 842.988 216.04C840.984 213.429 839.784 211.727 840.84 208.975Z" fill="#FF9D00"/>
<path d="M821.999 186.746C822.525 185.888 823.051 185.029 823.593 184.145C826.169 185.488 827.849 186.488 829.26 189.534C828.734 190.392 828.208 191.251 827.666 192.135C825.221 190.797 823.604 189.328 821.999 186.746Z" fill="#FF9D00" fill-opacity="0.9"/>
<path d="M796.648 172.176C796.942 171.411 797.235 170.646 797.538 169.859C799.591 170.647 801.645 171.435 803.761 172.248C803.468 173.012 803.174 173.777 802.872 174.565C801.189 174.604 800.052 174.123 798.635 173.312C798.261 173.101 797.887 172.89 797.502 172.672C797.22 172.508 796.938 172.344 796.648 172.176Z" fill="#FF9D00" fill-opacity="0.9"/>
<path d="M259.702 151.984C260.663 152.851 260.72 153.177 260.73 154.314C259.914 158.393 254.423 161.339 250.621 163.426C249.146 164.171 247.616 164.818 246.06 165.448C245.167 165.781 245.167 165.781 244.692 166.406C244.539 167.109 244.409 167.817 244.293 168.526C244.229 168.908 244.165 169.29 244.1 169.683C244.053 169.977 244.005 170.272 243.957 170.575C244.257 170.671 244.558 170.766 244.868 170.865C245.858 171.241 245.858 171.241 246.494 171.931C246.807 172.731 246.807 172.731 246.638 173.548C246.133 174.265 246.133 174.265 245.254 174.523C244.321 174.876 244.321 174.876 244.171 175.633C244.046 176.366 243.949 177.095 243.888 177.837C244.186 177.985 244.485 178.133 244.793 178.286C245.733 178.823 245.733 178.823 246.011 179.534C245.943 180.493 245.943 180.493 245.672 181.458C245.453 181.55 245.235 181.642 245.009 181.737C243.785 182.591 243.963 184.138 243.841 185.439C243.681 186.687 243.502 187.274 242.468 188.169C242.173 188.334 241.878 188.5 241.574 188.67C240.881 188.483 240.881 188.483 240.064 188.073C239.539 187.289 239.539 187.289 239.066 186.289C238.888 185.92 238.709 185.55 238.525 185.169C238.339 184.771 238.153 184.372 237.962 183.962C237.568 183.139 237.174 182.317 236.78 181.494C236.582 181.076 236.384 180.658 236.186 180.24C235.641 179.1 235.082 177.965 234.514 176.832C234.348 176.5 234.182 176.169 234.011 175.827C233.697 175.201 233.382 174.576 233.067 173.951C232.928 173.673 232.79 173.394 232.647 173.107C232.525 172.865 232.403 172.623 232.278 172.373C232.034 171.779 232.034 171.779 232.147 171.138C231.799 171.28 231.451 171.423 231.093 171.57C230.75 171.71 230.75 171.71 230.4 171.853C229.89 172.062 229.382 172.276 228.877 172.493C227.589 173.038 226.42 173.463 225.003 173.787C223.378 174.199 222.46 174.503 221.282 175.504C220.688 177.097 220.506 178.753 220.413 180.441C220.231 182.949 220.231 182.949 219.249 183.754C218.032 184.342 217.048 184.622 215.613 184.754C214.132 183.325 213.776 181.88 213.299 180.13C213.22 179.854 213.141 179.578 213.06 179.294C212.867 178.616 212.679 177.938 212.492 177.26C211.89 177.479 211.89 177.479 211.276 177.702C209.897 178.135 209.38 178.178 207.958 177.783C207.76 177.046 207.76 177.046 207.849 176.111C208.551 175.511 209.345 175.045 210.147 174.532C209.767 174.258 209.388 173.984 208.997 173.702C208.5 173.341 208.003 172.981 207.506 172.62C207.256 172.44 207.005 172.259 206.747 172.073C206.508 171.899 206.268 171.724 206.02 171.544C205.799 171.384 205.578 171.224 205.35 171.059C204.781 170.61 204.781 170.61 204.111 169.831C204.317 168.661 204.789 168.294 205.875 167.559C207.806 166.787 209.68 167.323 211.726 167.867C212.246 168.097 212.246 168.097 212.776 168.332C214.004 168.863 214.962 169.177 216.312 169.337C218.223 168.763 219.73 167.803 221.305 166.787C221.736 166.525 222.169 166.264 222.602 166.004C223.655 165.365 224.694 164.716 225.724 164.054C223.087 160.975 220.174 158.121 217.177 155.273C216.478 154.606 215.78 153.938 215.082 153.271C214.771 152.974 214.461 152.678 214.141 152.373C213.378 151.627 213.378 151.627 212.708 150.848C212.877 149.886 212.877 149.886 213.837 149.311C215.758 148.697 217.687 149.493 219.614 150.06C221.057 150.339 221.43 150.195 222.616 149.619C223.89 149.87 224.362 150.098 225.121 151.011C225.466 151.775 225.466 151.775 225.297 152.737C225.846 152.907 226.398 153.072 226.95 153.235C227.257 153.327 227.564 153.42 227.88 153.515C228.865 153.768 228.865 153.768 230.053 153.245C232.115 153.43 232.115 153.43 233.066 154.189C233.408 154.828 233.408 154.828 233.182 156.111C235.939 157.116 235.939 157.116 238.763 157.037C239.673 156.588 240.509 156.093 241.353 155.568C245.698 153.208 254.364 148.728 259.702 151.984Z" fill="#FF9D00"/>
<path d="M126.057 333.952C125.903 332.774 125.746 331.596 125.587 330.419C125.5 329.763 125.413 329.107 125.323 328.431C125.044 326.742 125.044 326.742 124.458 325.599C122.917 326.352 122.917 326.352 122.543 327.094C122.655 328.187 122.795 329.279 122.95 330.368C123.074 331.259 123.074 331.259 123.2 332.169C123.472 333.703 123.472 333.703 124.058 334.846C124.717 334.551 125.377 334.256 126.057 333.952Z" fill="#FF9D00" fill-opacity="0.9"/>
<path d="M126.488 275.278C125.392 275.432 124.296 275.586 123.167 275.744C121.79 279.309 121.139 281.696 121.983 285.393C123.112 285.475 124.241 285.557 125.405 285.641C127.968 278.083 127.968 278.083 126.488 275.278Z" fill="#FF9D00"/>
<path d="M128.784 259.297C128.189 259.156 127.593 259.015 126.979 258.87C125.569 260.717 125.296 262.237 125.075 264.712C124.986 265.644 124.986 265.644 124.896 266.596C124.857 267.069 124.818 267.542 124.778 268.03C125.947 268.589 125.947 268.589 127.246 269.044C128.821 267.799 128.77 266.202 129.107 264.07C129.278 262.393 129.154 260.957 128.784 259.297Z" fill="#FF9D00"/>
<path d="M124.415 312.705C124.286 311.911 124.286 311.911 124.155 311.101C124.084 310.698 124.012 310.294 123.939 309.879C123.098 309.817 122.257 309.755 121.391 309.692C120.453 311.573 120.432 312.843 120.771 314.817C120.849 315.292 120.927 315.766 121.008 316.256C121.105 316.794 121.105 316.794 121.205 317.343C122.046 317.404 122.887 317.466 123.753 317.529C124.906 315.504 124.774 314.836 124.415 312.705Z" fill="#FF9D00" fill-opacity="0.9"/>
<path d="M130.956 349.67C130.721 348.621 130.443 347.582 130.145 346.551C129.906 345.701 129.906 345.701 129.663 344.834C129.081 343.399 129.081 343.399 127.47 342.536C126.801 343.253 126.801 343.253 126.235 344.343C126.508 345.775 126.508 345.775 127.057 347.325C127.235 347.841 127.414 348.358 127.597 348.889C127.741 349.283 127.886 349.676 128.034 350.081C128.869 350.172 129.707 350.235 130.544 350.273C130.68 350.074 130.816 349.875 130.956 349.67Z" fill="#FF9D00"/>
<path d="M124.059 291.957C122.913 292.343 121.767 292.729 120.586 293.126C119.746 298.982 119.746 298.982 120.379 302.005C121.775 302.235 121.775 302.235 123.326 302.272C125.802 299.203 124.622 295.495 124.059 291.957Z" fill="#FF9D00" fill-opacity="0.9"/>
<path d="M150.876 378.364C150.063 374.925 147.963 373.013 145.458 370.642C144.321 371.035 143.185 371.428 142.014 371.833C142.765 375.511 145.298 377.227 148.141 379.456C149.043 379.095 149.946 378.735 150.876 378.364Z" fill="#FF9D00" fill-opacity="0.9"/>
<path d="M139.694 364.742C138.867 362.03 137.54 360.022 135.694 357.718C134.746 358.044 133.798 358.37 132.821 358.706C132.339 360.262 132.32 360.958 133.168 362.368C133.514 362.779 133.86 363.191 134.217 363.615C134.562 364.033 134.907 364.451 135.263 364.881C135.533 365.195 135.803 365.509 136.082 365.833C137.274 365.473 138.466 365.113 139.694 364.742Z" fill="#FF9D00" fill-opacity="0.9"/>
<path d="M143.074 229.418C142.725 228.773 142.725 228.773 142.368 228.115C139.926 228.814 138.934 229.631 137.543 231.503C137.221 231.922 136.899 232.341 136.567 232.772C135.89 234.053 135.89 234.053 136.237 236.518C137.212 236.588 138.187 236.658 139.192 236.731C139.951 235.863 140.693 234.983 141.427 234.099C141.842 233.611 142.257 233.123 142.684 232.619C143.518 231.095 143.518 231.095 143.074 229.418Z" fill="#FF9D00"/>
<path d="M134.383 243.533C132.834 243.79 132.834 243.79 131.016 244.635C129.369 247.423 128.421 249.329 129.292 252.418C130.432 252.258 131.572 252.098 132.746 251.933C135.203 246.396 135.203 246.396 134.383 243.533Z" fill="#FF9D00" fill-opacity="0.9"/>
<path d="M154.282 214.187C150.781 214.831 149.013 216.267 146.618 218.148C145.715 219.177 145.715 219.177 146.014 221.298C147.608 221.311 147.608 221.311 149.8 220.766C152.837 218.583 154.697 217.139 154.282 214.187Z" fill="#FF9D00"/>
<path d="M166.755 204.681C163.253 205.325 161.485 206.761 159.09 208.642C158.188 209.671 158.188 209.671 158.486 211.792C160.081 211.805 160.081 211.805 162.273 211.26C165.31 209.077 167.169 207.633 166.755 204.681Z" fill="#FF9D00"/>
<path d="M179.183 196.525C175.682 197.169 173.914 198.605 171.519 200.486C170.617 201.515 170.617 201.515 170.915 203.636C172.51 203.649 172.51 203.649 174.702 203.104C177.739 200.921 179.598 199.477 179.183 196.525Z" fill="#FF9D00"/>
<path d="M189.637 188.056C186.136 188.7 184.368 190.136 181.973 192.017C181.07 193.046 181.07 193.046 181.369 195.167C182.963 195.18 182.963 195.18 185.155 194.635C188.192 192.452 190.052 191.008 189.637 188.056Z" fill="#FF9D00"/>
<path d="M201.753 181.875C198.252 182.52 196.484 183.955 194.089 185.836C193.186 186.865 193.186 186.865 193.485 188.987C195.079 188.999 195.079 188.999 197.271 188.454C200.308 186.271 202.168 184.827 201.753 181.875Z" fill="#FF9D00"/>
<defs>
<linearGradient id="paint0_linear_25_275" x1="381.767" y1="219.673" x2="381.767" y2="154.713" gradientUnits="userSpaceOnUse">
<stop offset="0.5" stop-color="#BA2A92"/>
<stop offset="0.735" stop-color="#541342"/>
</linearGradient>
<linearGradient id="paint1_linear_25_275" x1="502.144" y1="166.166" x2="502.144" y2="155.722" gradientUnits="userSpaceOnUse">
<stop offset="0.5" stop-color="#BA2A92"/>
<stop offset="0.735" stop-color="#541342"/>
</linearGradient>
<linearGradient id="paint2_linear_25_275" x1="595.527" y1="186.087" x2="595.527" y2="172.61" gradientUnits="userSpaceOnUse">
<stop offset="0.5" stop-color="#BA2A92"/>
<stop offset="0.735" stop-color="#541342"/>
</linearGradient>
<linearGradient id="paint3_linear_25_275" x1="640.578" y1="355.998" x2="640.578" y2="178.965" gradientUnits="userSpaceOnUse">
<stop offset="0.5" stop-color="#BA2A92"/>
<stop offset="0.735" stop-color="#541342"/>
</linearGradient>
<linearGradient id="paint4_linear_25_275" x1="301.561" y1="214.293" x2="301.561" y2="192.154" gradientUnits="userSpaceOnUse">
<stop offset="0.5" stop-color="#BA2A92"/>
<stop offset="0.735" stop-color="#541342"/>
</linearGradient>
<linearGradient id="paint5_linear_25_275" x1="426.424" y1="199.231" x2="426.424" y2="192.785" gradientUnits="userSpaceOnUse">
<stop offset="0.5" stop-color="#BA2A92"/>
<stop offset="0.735" stop-color="#541342"/>
</linearGradient>
<linearGradient id="paint6_linear_25_275" x1="465.436" y1="213.124" x2="465.436" y2="202.366" gradientUnits="userSpaceOnUse">
<stop offset="0.5" stop-color="#BA2A92"/>
<stop offset="0.735" stop-color="#541342"/>
</linearGradient>
<linearGradient id="paint7_linear_25_275" x1="287.786" y1="222.813" x2="287.786" y2="210.424" gradientUnits="userSpaceOnUse">
<stop offset="0.5" stop-color="#BA2A92"/>
<stop offset="0.735" stop-color="#541342"/>
</linearGradient>
<linearGradient id="paint8_linear_25_275" x1="248.449" y1="415.219" x2="248.449" y2="215.085" gradientUnits="userSpaceOnUse">
<stop offset="0.5" stop-color="#BA2A92"/>
<stop offset="0.735" stop-color="#541342"/>
</linearGradient>
<linearGradient id="paint9_linear_25_275" x1="363.001" y1="358.794" x2="363.001" y2="286.232" gradientUnits="userSpaceOnUse">
<stop offset="0.5" stop-color="#BA2A92"/>
<stop offset="0.735" stop-color="#541342"/>
</linearGradient>
<linearGradient id="paint10_linear_25_275" x1="570.735" y1="298.031" x2="570.735" y2="287.429" gradientUnits="userSpaceOnUse">
<stop offset="0.5" stop-color="#BA2A92"/>
<stop offset="0.735" stop-color="#541342"/>
</linearGradient>
<linearGradient id="paint11_linear_25_275" x1="705.239" y1="344.955" x2="705.239" y2="331.981" gradientUnits="userSpaceOnUse">
<stop offset="0.5" stop-color="#BA2A92"/>
<stop offset="0.735" stop-color="#541342"/>
</linearGradient>
<linearGradient id="paint12_linear_25_275" x1="766.221" y1="352.062" x2="766.221" y2="335.144" gradientUnits="userSpaceOnUse">
<stop offset="0.5" stop-color="#BA2A92"/>
<stop offset="0.735" stop-color="#541342"/>
</linearGradient>
<linearGradient id="paint13_linear_25_275" x1="700.632" y1="416.573" x2="700.632" y2="354.232" gradientUnits="userSpaceOnUse">
<stop offset="0.5" stop-color="#BA2A92"/>
<stop offset="0.735" stop-color="#541342"/>
</linearGradient>
<linearGradient id="paint14_linear_25_275" x1="734.725" y1="405.167" x2="734.725" y2="368.222" gradientUnits="userSpaceOnUse">
<stop offset="0.5" stop-color="#BA2A92"/>
<stop offset="0.735" stop-color="#541342"/>
</linearGradient>
</defs>
</svg>
