<?xml version="1.0" encoding="UTF-8"?>
<svg version="1.1" xmlns="http://www.w3.org/2000/svg" width="550" height="550">
<path d="M0 0 C1.15407349 0.00054382 2.30814697 0.00108765 3.49719238 0.00164795 C20.91921759 0.03941551 37.67546285 0.64179679 54.75 4.375 C55.77786621 4.59462402 56.80573242 4.81424805 57.86474609 5.04052734 C106.54986287 15.71423875 151.60459747 38.47690751 187.91015625 72.72265625 C190.1024807 74.77023301 192.30963724 76.72217404 194.625 78.625 C197.68854843 81.20916677 200.24499468 84.09701359 202.83203125 87.15234375 C204.1473311 88.67659144 205.50159637 90.16781737 206.88671875 91.62890625 C247.879586 134.92550488 275.84527149 198.96052935 276.12109375 259.03125 C276.13012222 260.29424927 276.1391507 261.55724854 276.14845276 262.85852051 C276.16286608 265.5208968 276.17261178 268.18284721 276.17553711 270.84521484 C276.18188736 274.81004819 276.2364849 278.77376713 276.28710938 282.73828125 C276.69255562 346.68674297 251.18470267 409.7864098 208.75 457.375 C208.29915039 457.88224609 207.84830078 458.38949219 207.38378906 458.91210938 C197.56186518 469.91210645 187.35806347 480.24002595 175.75 489.375 C174.65671354 490.25807744 173.5642997 491.14223606 172.47265625 492.02734375 C137.70978285 520.03846385 95.73266183 539.44765528 51.75 547.375 C51.11392822 547.49888092 50.47785645 547.62276184 49.82250977 547.75039673 C35.11164106 550.57074107 20.55561894 550.86975707 5.60742188 550.82104492 C1.65180948 550.81255752 -2.30234235 550.84136972 -6.2578125 550.87304688 C-27.53635464 550.932461 -48.30232372 548.78789621 -68.875 543.1875 C-69.98214355 542.89125732 -71.08928711 542.59501465 -72.22998047 542.28979492 C-114.12108496 530.72302637 -151.96546622 509.29165207 -184.25 480.375 C-184.79269531 479.89401855 -185.33539063 479.41303711 -185.89453125 478.91748047 C-191.40718433 474.0248364 -196.75631853 469.10238798 -201.49609375 463.4375 C-203.56455687 461.00509794 -205.75187868 458.70263475 -207.9375 456.375 C-238.10344537 423.19246009 -258.60616178 380.44128863 -268.5 336.9375 C-268.85143066 335.40452271 -268.85143066 335.40452271 -269.20996094 333.84057617 C-273.39280738 314.48816003 -274.79962364 295.45244607 -274.6875 275.6875 C-274.68445862 274.5464682 -274.68141724 273.4054364 -274.67828369 272.22982788 C-274.61152359 255.27884363 -273.92960973 238.97804877 -270.25 222.375 C-269.92854004 220.82401611 -269.92854004 220.82401611 -269.60058594 219.24169922 C-264.87628473 196.60700136 -257.35115319 175.15656882 -247.25 154.375 C-246.87149902 153.59205566 -246.49299805 152.80911133 -246.10302734 152.00244141 C-237.23534285 133.88054195 -226.00205376 116.99677109 -213.25 101.375 C-212.81574707 100.8392334 -212.38149414 100.3034668 -211.93408203 99.75146484 C-200.46011697 85.6803938 -187.68616898 72.41556472 -173.25 61.375 C-171.98866549 60.37485436 -170.72832541 59.37345388 -169.46875 58.37109375 C-132.18662327 28.95983375 -88.0806488 9.99043792 -41.25 2.375 C-39.55447998 2.09462891 -39.55447998 2.09462891 -37.82470703 1.80859375 C-25.25375757 -0.02443104 -12.68394856 -0.02242261 0 0 Z " fill="#FEF2ED" transform="translate(274.25,-0.375)"/>
<path d="M0 0 C2.40407931 0.01834615 4.80777162 0.020508 7.21191406 0.02026367 C43.0710748 0.09824087 43.0710748 0.09824087 54.08691406 9.4284668 C58.30350338 13.86955046 61.77441406 17.95932649 61.77441406 24.20581055 C62.75667969 24.15360352 62.75667969 24.15360352 63.75878906 24.1003418 C76.58107172 23.72001985 88.49510415 27.03476128 98.32128906 35.56518555 C100.97321149 38.55929151 102.85440651 42.09195953 104.91503906 45.5065918 C106.72116929 48.12851614 108.41863403 49.80513687 110.89941406 51.76831055 C116.2428718 56.05345238 118.64665984 61.82254788 120.77441406 68.20581055 C121.7999709 84.40960861 120.67985608 100.43211146 118.18896484 116.43334961 C117.77451185 119.20515659 117.41847833 121.9780948 117.08300781 124.76049805 C115.50846015 137.80723628 113.34549588 150.6981837 110.95800781 163.61987305 C109.76326466 170.12902878 108.74466506 176.65981455 107.77441406 183.20581055 C108.76441406 183.53581055 109.75441406 183.86581055 110.77441406 184.20581055 C113.84506662 189.91062488 114.25866897 196.17258113 114.14941406 202.51831055 C114.14143799 203.37134766 114.13346191 204.22438477 114.12524414 205.10327148 C113.98767317 211.44895007 113.37775952 217.67749545 112.46191406 223.95581055 C112.34444824 224.76445557 112.22698242 225.57310059 112.10595703 226.40625 C110.01556248 239.23561271 110.01556248 239.23561271 105.51269531 243.1940918 C102.16694067 244.43025507 99.52069246 244.50115232 95.96191406 244.39331055 C94.21974609 244.35270508 94.21974609 244.35270508 92.44238281 244.3112793 C91.56195313 244.27647461 90.68152344 244.24166992 89.77441406 244.20581055 C89.73268066 244.77831543 89.69094727 245.35082031 89.64794922 245.94067383 C88.31168482 261.63632958 84.38853535 277.47628257 79.21191406 292.33081055 C78.94362793 293.10408691 78.6753418 293.87736328 78.39892578 294.67407227 C76.13985561 300.84021172 73.46943969 307.51078492 68.77441406 312.20581055 C68.57365304 314.16208519 68.57365304 314.16208519 68.76269531 316.3815918 C68.83327148 317.62392578 68.83327148 317.62392578 68.90527344 318.89135742 C68.96521484 319.75825195 69.02515625 320.62514648 69.08691406 321.51831055 C69.15942383 322.80125 69.15942383 322.80125 69.23339844 324.11010742 C69.48542399 328.22865155 69.85301577 332.17469302 70.77441406 336.20581055 C71.46077371 339.75697568 71.63088583 342.66641518 70.77441406 346.20581055 C60.7305011 360.67435477 41.4895166 370.11531891 24.77441406 374.20581055 C24.02289063 374.39014648 23.27136719 374.57448242 22.49707031 374.7644043 C2.88032416 377.9447376 -14.6247734 371.62530897 -30.72558594 360.70581055 C-38.59524862 354.65496718 -45.51949417 347.49825686 -52.22558594 340.20581055 C-53.00603271 339.36808105 -53.00603271 339.36808105 -53.80224609 338.51342773 C-60.42754765 331.16624102 -62.23852465 324.82038538 -61.89135742 315.17919922 C-61.74923535 309.38910922 -63.16872982 305.84672127 -65.93359375 300.79296875 C-68.10440206 296.44601945 -69.1084453 291.8504584 -70.22558594 287.14331055 C-70.7259117 285.12711879 -71.2285401 283.11149712 -71.73339844 281.09643555 C-71.97993164 280.10708008 -72.22646484 279.11772461 -72.48046875 278.09838867 C-73.76537371 273.11033038 -75.24800137 268.18367432 -76.75292969 263.25830078 C-78.22558594 258.39719416 -78.22558594 258.39719416 -78.22558594 256.20581055 C-79.10601562 256.24061523 -79.98644531 256.27541992 -80.89355469 256.3112793 C-82.055 256.33834961 -83.21644531 256.36541992 -84.41308594 256.39331055 C-86.13591797 256.44551758 -86.13591797 256.44551758 -87.89355469 256.4987793 C-91.57703828 256.17490911 -93.33400129 255.47301762 -96.22558594 253.20581055 C-104.99982622 240.61668319 -105.36059164 220.49457029 -105.53808594 205.64331055 C-105.55572998 204.79824951 -105.57337402 203.95318848 -105.59155273 203.08251953 C-105.58600682 198.03724556 -105.0251133 194.57174013 -102.22558594 190.20581055 C-97.90979646 186.20581055 -97.90979646 186.20581055 -95.22558594 186.20581055 C-95.66257813 184.96444336 -95.66257813 184.96444336 -96.10839844 183.69799805 C-99.70435571 173.22675139 -102.63361936 162.62561701 -105.48925781 151.93188477 C-106.40712689 148.53369973 -107.36373783 145.14725632 -108.32446289 141.76098633 C-116.42120039 113.09604615 -116.42120039 113.09604615 -111.29980469 101.63549805 C-108.5534714 95.21273993 -108.19564125 88.73615868 -107.66308594 81.83081055 C-106.4278221 66.5294779 -105.3252378 53.80993868 -93.16699219 43.35424805 C-84.88794058 37.307132 -75.56943367 32.8693281 -65.85058594 29.70581055 C-61.70223688 28.31958889 -61.70223688 28.31958889 -58.97167969 25.15112305 C-58.25720572 22.84073127 -58.25720572 22.84073127 -57.79589844 20.4753418 C-56.31793062 14.59383974 -51.36373334 11.07900677 -46.47558594 7.95581055 C-32.33116626 0.05343046 -15.81018066 -0.12437514 0 0 Z " fill="#FEA57B" transform="translate(273.2255859375,51.794189453125)"/>
<path d="M0 0 C0.33 0 0.66 0 1 0 C1.12375 1.216875 1.2475 2.43375 1.375 3.6875 C4.77880889 18.52995919 22.87082366 34.19699394 35.25 42.125 C51.63006613 52.13883525 69.258208 57.18275046 88.3125 52.8125 C105.80624345 47.68132013 123.40348084 38.36311948 134 23 C134.66 25.64 135.32 28.28 136 31 C136.33 30.34 136.66 29.68 137 29 C137.66 29 138.32 29 139 29 C140.4453125 30.46875 140.4453125 30.46875 142.125 32.5 C143.38867041 34.02366002 144.68745144 35.51823786 146 37 C146.5367334 37.61883057 147.0734668 38.23766113 147.62646484 38.87524414 C152.88580362 44.58016392 158.26376771 47.48517748 165.375 50.4375 C166.51912354 50.92847168 167.66324707 51.41944336 168.84204102 51.92529297 C172.13492286 53.3320437 175.44049066 54.70635457 178.75067139 56.07183838 C181.14012715 57.05782198 183.52736701 58.04905658 185.91455078 59.04052734 C205.53340376 67.17306481 225.20713464 75.06458744 245.27734375 82.01953125 C246.22593262 82.35291504 247.17452148 82.68629883 248.15185547 83.02978516 C250.12790771 83.70292347 252.11811494 84.33534692 254.11767578 84.93505859 C256.88047379 85.80820491 259.43860849 86.64468514 262 88 C263.6875 91.25 263.6875 91.25 264 94 C256.02418365 102.18539985 248.03049147 109.96519725 239 117 C237.91013941 117.87857473 236.82166308 118.75886862 235.734375 119.640625 C200.98001068 147.66499822 158.98175572 167.0728186 115 175 C114.36392822 175.12388092 113.72785645 175.24776184 113.07250977 175.37539673 C98.36164106 178.19574107 83.80561894 178.49475707 68.85742188 178.44604492 C64.90180948 178.43755752 60.94765765 178.46636972 56.9921875 178.49804688 C35.71364536 178.557461 14.94767628 176.41289621 -5.625 170.8125 C-6.73214355 170.51625732 -7.83928711 170.22001465 -8.97998047 169.91479492 C-49.7319504 158.66255867 -88.28116182 137.97237456 -119.49804688 109.36376953 C-120.54557317 108.41261838 -121.62283044 107.49364098 -122.72070312 106.60107422 C-126.026768 103.73189598 -126.93607321 102.6732715 -127.3671875 98.1328125 C-127.23585892 96.79326097 -127.07112827 95.45660775 -126.875 94.125 C-126.80023438 93.43664062 -126.72546875 92.74828125 -126.6484375 92.0390625 C-126.46141757 90.35588317 -126.23472161 88.67719256 -126 87 C-124.5222978 86.39226026 -123.04273073 85.78905496 -121.5625 85.1875 C-120.73878906 84.85105469 -119.91507812 84.51460938 -119.06640625 84.16796875 C-115.95026376 82.98105588 -112.81120396 81.92647007 -109.64526367 80.88208008 C-87.39092872 73.46122986 -65.45890942 65.12511693 -43.62197876 56.56643677 C-39.13305836 54.81212626 -34.62749018 53.125507 -30.08984375 51.5 C-21.3679026 48.30972618 -13.96496531 45.05260834 -7.1875 38.5625 C-6.65882324 38.06089355 -6.13014648 37.55928711 -5.58544922 37.04248047 C-1.37513183 32.47248043 -1.167752 28.02558713 -1 22 C-0.8948153 20.070297 -0.78934024 18.1406098 -0.68359375 16.2109375 C-0.59873641 14.26574623 -0.51671974 12.32042902 -0.4375 10.375 C-0.37272461 8.86873047 -0.37272461 8.86873047 -0.30664062 7.33203125 C-0.20190141 4.88811617 -0.09972744 2.44412383 0 0 Z " fill="#D3CBA3" transform="translate(211,372)"/>
<path d="M0 0 C2.40407931 0.01834615 4.80777162 0.020508 7.21191406 0.02026367 C43.0710748 0.09824087 43.0710748 0.09824087 54.08691406 9.4284668 C58.30350338 13.86955046 61.77441406 17.95932649 61.77441406 24.20581055 C62.75667969 24.15360352 62.75667969 24.15360352 63.75878906 24.1003418 C76.58107172 23.72001985 88.49510415 27.03476128 98.32128906 35.56518555 C100.97321149 38.55929151 102.85440651 42.09195953 104.91503906 45.5065918 C106.72116929 48.12851614 108.41863403 49.80513687 110.89941406 51.76831055 C116.2428718 56.05345238 118.64665984 61.82254788 120.77441406 68.20581055 C121.7999709 84.40960861 120.67985608 100.43211146 118.18896484 116.43334961 C117.77451185 119.20515659 117.41847833 121.9780948 117.08300781 124.76049805 C115.78443504 135.52919601 114.16586503 146.21205102 112.27441406 156.89331055 C112.07283691 158.03888428 111.87125977 159.18445801 111.66357422 160.36474609 C110.32824997 167.72940791 108.68144522 174.96843071 106.77441406 182.20581055 C104.04003906 182.43367513 101.30566406 182.66153971 98.57128906 182.8894043 C96.20270085 183.15735911 94.07065238 183.60165047 91.77441406 184.20581055 C91.73477539 183.61082764 91.69513672 183.01584473 91.65429688 182.40283203 C90.09230881 159.63966065 87.70958809 136.82400655 83.29003906 114.4206543 C82.78744899 111.28708135 82.67800092 108.37298211 82.77441406 105.20581055 C81.48148438 105.22901367 80.18855469 105.2522168 78.85644531 105.27612305 C63.94178845 105.46881144 51.30633493 104.21227556 37.40332031 98.64331055 C34.21986804 97.38226594 31.03313949 96.25343789 27.77441406 95.20581055 C27.44441406 95.53581055 27.11441406 95.86581055 26.77441406 96.20581055 C42.05651925 105.49933204 42.05651925 105.49933204 59.19628906 109.7409668 C60.22109375 109.82797852 61.24589844 109.91499023 62.30175781 110.00463867 C63.36523438 110.09165039 64.42871094 110.17866211 65.52441406 110.26831055 C66.60335937 110.35918945 67.68230469 110.45006836 68.79394531 110.54370117 C71.45387154 110.76732329 74.1140135 110.98791651 76.77441406 111.20581055 C77.33691406 113.14331055 77.33691406 113.14331055 77.77441406 115.20581055 C76.77441406 116.20581055 76.77441406 116.20581055 74.72753906 116.33862305 C71.74132536 116.32999237 68.75971252 116.28179996 65.77441406 116.20581055 C64.22560547 116.18067383 64.22560547 116.18067383 62.64550781 116.1550293 C48.04126935 115.52785341 33.36304389 109.30565671 22.14697266 99.83105469 C17.05627413 95.61979495 12.72446639 95.57917809 6.27441406 95.64331055 C-7.09290916 95.38952867 -18.04004665 92.93481017 -29.83496094 86.2800293 C-32.29193011 84.85165798 -32.29193011 84.85165798 -35.22558594 86.20581055 C-36.36889928 88.26649951 -36.36889928 88.26649951 -37.35058594 90.76831055 C-43.20907094 102.81075195 -54.52297344 107.22984799 -66.22558594 112.20581055 C-67.17304688 112.61831055 -68.12050781 113.03081055 -69.09667969 113.45581055 C-71.57339532 114.32834156 -72.79546556 114.10585513 -75.22558594 113.20581055 C-75.22558594 111.88581055 -75.22558594 110.56581055 -75.22558594 109.20581055 C-74.69715088 108.9948877 -74.16871582 108.78396484 -73.62426758 108.56665039 C-55.18212723 101.99056463 -55.18212723 101.99056463 -42.22558594 88.20581055 C-41.35818797 85.8684013 -40.77378001 83.64776598 -40.22558594 81.20581055 C-40.92554688 81.95217773 -41.62550781 82.69854492 -42.34667969 83.4675293 C-45.19543733 86.1771346 -47.90866987 88.02918709 -51.28808594 90.01831055 C-52.43759407 90.70662988 -53.58600623 91.39678233 -54.73339844 92.08862305 C-55.31250977 92.43699219 -55.89162109 92.78536133 -56.48828125 93.14428711 C-61.17230774 96.00630891 -65.71539473 99.07919679 -70.22558594 102.20581055 C-70.86625 102.64538086 -71.50691406 103.08495117 -72.16699219 103.5378418 C-79.82469789 109.27632301 -81.18489202 117.91120896 -82.6081543 126.82543945 C-84.07843176 137.87210578 -83.52943674 149.15205269 -83.41308594 160.26831055 C-83.3980047 162.79239106 -83.38432241 165.31648034 -83.37207031 167.84057617 C-83.33935421 173.96254133 -83.28776304 180.08407664 -83.22558594 186.20581055 C-87.18558594 185.87581055 -91.14558594 185.54581055 -95.22558594 185.20581055 C-99.35445365 174.27645485 -102.49532539 163.23582682 -105.48925781 151.94799805 C-106.40365237 148.54266661 -107.36146619 145.15063501 -108.32446289 141.75878906 C-116.4255514 113.10578274 -116.4255514 113.10578274 -111.29980469 101.63549805 C-108.5534714 95.21273993 -108.19564125 88.73615868 -107.66308594 81.83081055 C-106.4278221 66.5294779 -105.3252378 53.80993868 -93.16699219 43.35424805 C-84.88794058 37.307132 -75.56943367 32.8693281 -65.85058594 29.70581055 C-61.70223688 28.31958889 -61.70223688 28.31958889 -58.97167969 25.15112305 C-58.25720572 22.84073127 -58.25720572 22.84073127 -57.79589844 20.4753418 C-56.31793062 14.59383974 -51.36373334 11.07900677 -46.47558594 7.95581055 C-32.33116626 0.05343046 -15.81018066 -0.12437514 0 0 Z " fill="#915233" transform="translate(273.2255859375,51.794189453125)"/>
<path d="M0 0 C-0.33 0.33 -0.66 0.66 -1 1 C-2.17349763 37.34950232 5.47246385 74.0137499 12.12036133 109.57885742 C12.24588379 110.25492538 12.37140625 110.93099335 12.50073242 111.62754822 C12.84122357 113.4594508 13.18478778 115.29078145 13.52856445 117.12207031 C14 120 14 120 14 123 C-4.85980786 119.70558669 -22.87785759 112.40169402 -40 104 C-40.86222168 103.57847656 -41.72444336 103.15695312 -42.61279297 102.72265625 C-63.13658984 92.58299043 -81.42833485 79.94326851 -98.9375 65.25 C-99.45739502 64.81421631 -99.97729004 64.37843262 -100.51293945 63.92944336 C-102.02700286 62.64091511 -103.5136161 61.32036205 -105 60 C-105.5662207 59.54286621 -106.13244141 59.08573242 -106.71582031 58.61474609 C-110.0218654 55.74441881 -110.9361893 54.67204882 -111.3671875 50.1328125 C-111.23585892 48.79326097 -111.07112827 47.45660775 -110.875 46.125 C-110.76285156 45.09246094 -110.76285156 45.09246094 -110.6484375 44.0390625 C-110.46141757 42.35588317 -110.23472161 40.67719256 -110 39 C-108.5222978 38.39226026 -107.04273073 37.78905496 -105.5625 37.1875 C-104.73878906 36.85105469 -103.91507812 36.51460938 -103.06640625 36.16796875 C-99.95026376 34.98105588 -96.81120396 33.92647007 -93.64526367 32.88208008 C-72.26317861 25.75208715 -51.21039186 17.72253367 -30.19921875 9.578125 C-29.44435181 9.28641418 -28.68948486 8.99470337 -27.91174316 8.69415283 C-23.90768572 7.14332776 -19.91606825 5.56664046 -15.93603516 3.95507812 C-14.70008354 3.45992706 -14.70008354 3.45992706 -13.43916321 2.95477295 C-11.86048977 2.321643 -10.28477785 1.68106306 -8.71257019 1.03204346 C-3.33709389 -1.11236463 -3.33709389 -1.11236463 0 0 Z " fill="#F7B951" transform="translate(195,420)"/>
<path d="M0 0 C7.16195646 2.21844096 13.93087341 5.06130489 20.78302002 8.09579468 C43.79585738 18.26656459 67.11156236 27.51965487 90.85546875 35.84375 C91.87946777 36.20855469 92.9034668 36.57335937 93.95849609 36.94921875 C96.01531956 37.6598118 98.08714404 38.32816915 100.17041016 38.95703125 C102.91537315 39.8240025 105.45683051 40.65078902 108 42 C109.6875 45.25 109.6875 45.25 110 48 C102.02418365 56.18539985 94.03049147 63.96519725 85 71 C83.91013941 71.87857473 82.82166308 72.75886862 81.734375 73.640625 C58.6879729 92.22421835 32.24561821 107.85448913 4 117 C3.90427148 102.97209055 3.82442901 88.95547148 4.4375 74.9375 C5.06583394 60.56807392 5.30270198 46.19245651 5.5625 31.8125 C5.58464569 30.58997528 5.60679138 29.36745056 5.62960815 28.10787964 C5.75636469 21.07197576 5.87993418 14.03602118 6 7 C5.01 6.67 4.02 6.34 3 6 C1.3125 2.9375 1.3125 2.9375 0 0 Z " fill="#F7B951" transform="translate(365,418)"/>
<path d="M0 0 C1.32 0 2.64 0 4 0 C4.29432525 36.72952703 3.54164383 73.30447756 2 110 C-20.82747193 117.80297941 -20.82747193 117.80297941 -30.0625 119.75 C-30.96548828 119.94553467 -31.86847656 120.14106934 -32.79882812 120.3425293 C-35.52840657 120.91896941 -38.26164169 121.46694359 -41 122 C-41.8441748 122.16516113 -42.68834961 122.33032227 -43.55810547 122.50048828 C-56.97967358 125.0348871 -69.09668855 125 -83 125 C-83 93.98 -83 62.96 -83 31 C-78.50655201 35.49344799 -78.50655201 35.49344799 -76.66796875 38.35546875 C-76.06408325 39.2827478 -76.06408325 39.2827478 -75.44799805 40.22875977 C-75.03203369 40.87514404 -74.61606934 41.52152832 -74.1875 42.1875 C-70.37340112 48.0116086 -66.41142224 53.6070081 -62 59 C-61.52691406 59.59554687 -61.05382812 60.19109375 -60.56640625 60.8046875 C-57.15812909 65.25185722 -57.15812909 65.25185722 -52.125 67.22265625 C-39.97631977 66.30703881 -29.94894343 56.61314811 -22 48 C-10.42042209 34.47013453 -2.66918851 17.61141044 0 0 Z " fill="#F3EFD3" transform="translate(367,425)"/>
<path d="M0 0 C1.6382538 3.02269363 2.80416545 6.14406654 3.95239258 9.38012695 C8.63267839 22.47902052 14.67084923 33.57824599 24 44 C24.81017578 44.95132813 24.81017578 44.95132813 25.63671875 45.921875 C31.30039024 52.14192732 41.83250645 60.51250061 50.3125 61.3125 C55.66188433 60.85916234 57.8992506 58.2820493 61.32421875 54.29296875 C67.99689554 45.52474057 74.1793788 36.49072575 80.14160156 27.22607422 C81.06910061 25.80059751 82.03119178 24.39772993 83 23 C83.33 23 83.66 23 84 23 C84.92257743 45.56143471 85.09032554 68.1105506 85.0625 90.6875 C85.06164398 91.38696621 85.06078796 92.08643242 85.05990601 92.80709457 C85.04843447 101.53808638 85.02824225 110.26904623 85 119 C65.55810694 119.45564199 46.77021909 119.44155112 27.62060547 115.50488281 C25.01469863 114.96226611 25.01469863 114.96226611 22.39892578 114.73730469 C19.96633435 114.42888597 18.2022271 114.0743041 16 113 C12.95742045 107.49442737 12.16696348 100.46910665 11.09765625 94.33203125 C10.85360046 92.97369675 10.85360046 92.97369675 10.60461426 91.58792114 C10.08254237 88.66413762 9.571654 85.73855871 9.0625 82.8125 C8.88669403 81.81388947 8.71088806 80.81527893 8.52975464 79.78640747 C-0.31858753 29.45834335 -0.31858753 29.45834335 -0.0625 7.75 C-0.05798828 6.99332031 -0.05347656 6.23664063 -0.04882812 5.45703125 C-0.03731517 3.63798445 -0.0193967 1.81897982 0 0 Z " fill="#F3EFD3" transform="translate(194,431)"/>
<path d="M0 0 C0.72960937 0.73476563 1.45921875 1.46953125 2.2109375 2.2265625 C20.40803847 20.32171893 41.50682282 32.20808617 67.5 32.5625 C77.43959324 32.4838845 85.8985216 30.94248948 95 27 C95.6604834 26.72124023 96.3209668 26.44248047 97.00146484 26.15527344 C107.72364452 21.5237842 120.37694395 14.93458408 127 5 C127.66 5 128.32 5 129 5 C129.51156946 8.45672201 130.00706532 11.91557552 130.5 15.375 C130.64308594 16.34050781 130.78617188 17.30601562 130.93359375 18.30078125 C133.2736553 34.90407513 133.2736553 34.90407513 130.26953125 39.84765625 C117.24252491 51.59060155 103.19771717 60.79140372 86 65 C85.24847656 65.18433594 84.49695313 65.36867188 83.72265625 65.55859375 C64.1059101 68.73892706 46.60081254 62.41949843 30.5 51.5 C22.63012577 45.44899399 15.7069331 38.29194471 9 31 C8.21157715 30.15429443 8.21157715 30.15429443 7.40722656 29.29150391 C0.60095549 21.75350062 -0.86832519 15.56112188 -0.4609375 5.73876953 C-0.33836691 3.82360411 -0.17374567 1.91120239 0 0 Z " fill="#D86742" transform="translate(212,361)"/>
<path d="M0 0 C0.33 0 0.66 0 1 0 C1.12375 1.216875 1.2475 2.43375 1.375 3.6875 C4.77880889 18.52995919 22.87082366 34.19699394 35.25 42.125 C51.63006613 52.13883525 69.258208 57.18275046 88.3125 52.8125 C105.80624345 47.68132013 123.40348084 38.36311948 134 23 C135.56176417 30.45498368 135.72334706 35.89179945 131.75 42.5625 C119.8493318 59.70858467 105.36070036 70.62854964 85 76 C84.08577271 76.25801392 84.08577271 76.25801392 83.15307617 76.52124023 C65.15247301 80.52386897 45.07548368 75.88109184 29.74316406 66.18896484 C17.73001223 57.99512039 7.15602377 45.65439461 2 32 C2 31.01 2 30.02 2 29 C1.01 29.33 0.02 29.66 -1 30 C-0.67 20.1 -0.34 10.2 0 0 Z " fill="#FEA57B" transform="translate(211,372)"/>
<path d="M0 0 C-4.68951079 7.81585132 -11.44758495 12.01447706 -20 15 C-32.97622984 17.68594005 -45.47926188 16.41582381 -56.80859375 9.21484375 C-60.1754704 6.67756551 -62.65046002 4.52430997 -65 1 C-57.41098992 0.86901158 -49.82197045 0.73857952 -42.23293877 0.60884857 C-38.7086732 0.54858561 -35.18441107 0.48813438 -31.66015625 0.42724609 C-27.60417627 0.35717962 -23.54818246 0.28794425 -19.4921875 0.21875 C-18.23260223 0.19687622 -16.97301697 0.17500244 -15.67526245 0.15246582 C-13.90410568 0.12243469 -13.90410568 0.12243469 -12.09716797 0.09179688 C-11.06236298 0.07403198 -10.02755798 0.05626709 -8.96139526 0.03796387 C-5.97391164 -0.00033444 -2.98769392 -0.00654517 0 0 Z " fill="#FDF9F7" transform="translate(315,323)"/>
<path d="M0 0 C1.9480957 0.00773438 1.9480957 0.00773438 3.93554688 0.015625 C4.95273804 0.03109375 4.95273804 0.03109375 5.99047852 0.046875 C8.02704635 0.07764831 10.06283341 0.08781404 12.09960938 0.09375 C32.42197397 0.25400522 32.42197397 0.25400522 34.49609375 2.328125 C34.87553519 5.74309799 34.9749004 7.63636886 32.98925781 10.50512695 C29.5194657 13.04223405 26.41892469 12.81209794 22.29296875 12.68359375 C21.49634827 12.67556229 20.69972778 12.66753082 19.87896729 12.65925598 C17.33399419 12.63030401 14.7905436 12.57414301 12.24609375 12.515625 C9.71612224 12.47288736 7.18619917 12.43592322 4.65606689 12.40412903 C3.0842917 12.38272234 1.51259034 12.35426593 -0.05889893 12.31742859 C-4.97747959 12.22959922 -9.63401899 12.619396 -14.50390625 13.328125 C-13.74072015 11.72030607 -12.96803567 10.11699362 -12.19140625 8.515625 C-11.76214844 7.62230469 -11.33289063 6.72898438 -10.890625 5.80859375 C-7.96361562 0.57295726 -6.04702893 -0.04799558 0 0 Z " fill="#935334" transform="translate(226.50390625,205.671875)"/>
<path d="M0 0 C1.45681851 -0.03182608 2.91337106 -0.07977348 4.36914062 -0.14355469 C16.48684215 -0.66490716 16.48684215 -0.66490716 20.33300781 2.23022461 C21.89461867 4.27629561 23.02126958 6.16327502 24.05419922 8.51489258 C24.73482422 9.99989258 24.73482422 9.99989258 25.42919922 11.51489258 C25.63544922 12.17489258 25.84169922 12.83489258 26.05419922 13.51489258 C24.33656372 13.26606323 24.33656372 13.26606323 22.58422852 13.01220703 C18.21621489 12.4681612 13.96736209 12.45134372 9.57373047 12.55786133 C7.98194573 12.580227 6.39014803 12.60168482 4.79833984 12.62231445 C2.3227977 12.65950547 -0.15206983 12.70283907 -2.62719727 12.76171875 C-5.03948744 12.81625666 -7.45101686 12.84529316 -9.86376953 12.87036133 C-10.96859932 12.90603462 -10.96859932 12.90603462 -12.0957489 12.94242859 C-15.73587375 12.96092835 -17.79463698 12.60731378 -20.92749023 10.69189453 C-22.94580078 8.51489258 -22.94580078 8.51489258 -23.32080078 5.32739258 C-22.94580078 2.51489258 -22.94580078 2.51489258 -21.94580078 1.51489258 C-14.65136706 0.41988406 -7.36782102 0.1240458 0 0 Z " fill="#935334" transform="translate(324.94580078125,205.485107421875)"/>
<path d="M0 0 C0.86351074 0.0707373 1.72702148 0.14147461 2.61669922 0.21435547 C14.34355164 1.06882839 26.03348847 1.15279695 37.78808594 1.13037109 C41.09835461 1.12504289 44.4084856 1.13033018 47.71875 1.13671875 C61.5060552 1.14056544 75.23367777 0.75608851 89 0 C88.67 1.65 88.34 3.3 88 5 C74.20089185 7.16873122 60.50812902 7.30830968 46.56079102 7.26074219 C42.8092443 7.24999067 39.05817315 7.26070799 35.30664062 7.2734375 C12.11126209 7.28497204 12.11126209 7.28497204 1 5 C0.67 3.35 0.34 1.7 0 0 Z " fill="#D96944" transform="translate(238,317)"/>
<path d="M0 0 C3.95476958 0.4205298 6.34067389 2.63919572 9.375 5.0625 C20.6159681 13.78675487 33.98993174 22.33249431 48.421875 23.53515625 C49.95908203 23.66567383 49.95908203 23.66567383 51.52734375 23.79882812 C52.59082031 23.88583984 53.65429688 23.97285156 54.75 24.0625 C55.82894531 24.15337891 56.90789062 24.24425781 58.01953125 24.33789062 C60.67945748 24.56151274 63.33959943 24.78210596 66 25 C66.5625 26.9375 66.5625 26.9375 67 29 C66 30 66 30 63.953125 30.1328125 C60.9669113 30.12418182 57.98529846 30.07598942 55 30 C53.45119141 29.97486328 53.45119141 29.97486328 51.87109375 29.94921875 C34.04337155 29.18361105 19.5211326 20.08294694 5.625 9.6875 C5.07126709 9.27927002 4.51753418 8.87104004 3.94702148 8.45043945 C1.71034211 6.71602444 0.17158896 5.41870639 -0.9140625 2.76953125 C-0.94242187 2.18558594 -0.97078125 1.60164062 -1 1 C-0.67 0.67 -0.34 0.34 0 0 Z " fill="#723722" transform="translate(284,138)"/>
<path d="M0 0 C8.36121198 1.28738272 13.67002819 7.35116022 18.53515625 13.87109375 C20.19253995 16.71449514 20.39100478 18.83940196 19.8125 22.0625 C10.81684525 22.0234733 3.58780819 19.24894553 -3.21484375 13.28515625 C-5.6515659 10.66496325 -7.02700611 8.84713678 -7.75 5.3125 C-6.66364294 0.96707178 -4.35553805 -0.43940826 0 0 Z " fill="#EB865F" transform="translate(217.1875,277.9375)"/>
<path d="M0 0 C0.99 0.33 1.98 0.66 3 1 C2.96320253 12.07603714 0.62154611 23.18262878 -6.8125 31.8125 C-14.67665982 38.74212961 -26.0714302 43.86795905 -36 47 C-38.23217773 46.57324219 -38.23217773 46.57324219 -40 46 C-40 44.68 -40 43.36 -40 42 C-39.47156494 41.78907715 -38.94312988 41.5781543 -38.39868164 41.36083984 C-18.54116256 33.68579973 -18.54116256 33.68579973 -5.3125 17.8125 C-3.59137112 13.57736264 -3.12101074 9.08043391 -2.52734375 4.57421875 C-2 2 -2 2 0 0 Z " fill="#703521" transform="translate(238,119)"/>
<path d="M0 0 C1 1 1 1 1.375 3.25 C0.8253099 7.28106071 -0.89589982 8.40269168 -4 11 C-10.64789441 15.93703923 -16.43001657 19.59790582 -25 19 C-26 18 -26 18 -26.375 15.25 C-25.86582232 10.83712678 -24.42027465 9.77897315 -21 7 C-14.25839383 2.2102757 -8.47021496 -0.49824794 0 0 Z " fill="#EB865F" transform="translate(351,280)"/>
<path d="M0 0 C4.4002094 0.26667936 7.04557713 2.06068315 10.22265625 4.91796875 C19.15032085 15.37609014 19.58577155 27.00568549 19 40 C18.32592807 47.14174939 18.32592807 47.14174939 17 50 C14.921875 51.25390625 14.921875 51.25390625 13 52 C12 51 12 51 11.8671875 48.890625 C11.86976563 48.01921875 11.87234375 47.1478125 11.875 46.25 C11.87242187 45.38890625 11.86984375 44.5278125 11.8671875 43.640625 C12.00021883 40.99564918 12.47285258 38.59113232 13 36 C13.78130858 26.21861761 12.47045683 16.72860121 6 9 C3.74052799 7.164179 1.44348453 5.59766296 -1 4 C-0.67 2.68 -0.34 1.36 0 0 Z " fill="#6F341F" transform="translate(350,118)"/>
<path d="M0 0 C17.86607431 1.07716456 38.76761382 4.76761382 52 18 C52 19.32 52 20.64 52 22 C48.30855368 21.45901218 46.16527397 20.60737475 43.25 18.3125 C32.23243491 10.6408733 17.390388 7.1835167 4.1640625 6.34375 C2 6 2 6 -1 4 C-0.67 2.68 -0.34 1.36 0 0 Z " fill="#6E331F" transform="translate(296,113)"/>
<path d="M0 0 C3.92389479 0.54498539 5.89584594 1.62623513 9 4 C16.20152568 8.32091541 25.34524916 8.25863809 33.421875 6.4609375 C37.05693236 5.04730408 38.7748549 3.07281942 41 0 C42.32 0 43.64 0 45 0 C44.875 3.25 44.875 3.25 44 7 C38.28714332 12.14157101 30.17341281 14.65633946 22.5234375 14.34765625 C14.51870102 13.24483652 7.16310606 10.98794923 1.07421875 5.5625 C0 4 0 4 0 0 Z " fill="#D96A44" transform="translate(260,288)"/>
<path d="M0 0 C1.65 0.33 3.3 0.66 5 1 C4.71253906 1.8559375 4.42507812 2.711875 4.12890625 3.59375 C3.03716448 6.88786358 1.97439989 10.1882285 0.9375 13.5 C0.59589844 14.5828125 0.25429687 15.665625 -0.09765625 16.78125 C-1.92093407 23.28506353 -2.27045389 29.66272703 -2.5625 36.375 C-2.60568359 37.30183594 -2.64886719 38.22867188 -2.69335938 39.18359375 C-2.79876186 41.45560294 -2.90088606 43.72770925 -3 46 C-5.475 46.495 -5.475 46.495 -8 47 C-12.78956552 32.63130344 -7.28231377 14.80714868 -0.953125 1.84375 C-0.63859375 1.2353125 -0.3240625 0.626875 0 0 Z " fill="#6F3520" transform="translate(177,142)"/>
<path d="M0 0 C3.48837713 1.46511839 5.38513326 3.37307865 7.875 6.1875 C17.93210501 16.3594496 29.28716365 19.12736496 43 20 C43.495 22.475 43.495 22.475 44 25 C29.02274223 25.92073306 18.10205863 22.18544356 6 13 C0.69221733 8.22026432 0.69221733 8.22026432 -1 5 C-0.671875 2.2578125 -0.671875 2.2578125 0 0 Z " fill="#6E341F" transform="translate(242,105)"/>
<path d="M0 0 C0.99 0.33 1.98 0.66 3 1 C2.65678246 11.29652611 -1.31222781 19.61796369 -8.5 27 C-17.10980036 35 -17.10980036 35 -21 35 C-21.33 37.64 -21.66 40.28 -22 43 C-23.32 43 -24.64 43 -26 43 C-27.44430855 40.11138291 -27.37688506 38.20352299 -27 35 C-24.30576373 31.61047695 -20.9889335 29.22376459 -17.5625 26.625 C-9.88797061 20.69699972 -6.22433741 15.11608123 -3 6 C-1.14746544 1.14746544 -1.14746544 1.14746544 0 0 Z " fill="#6D331F" transform="translate(213,116)"/>
<path d="M0 0 C1.32 0 2.64 0 4 0 C4.30017023 4.16486198 3.45324946 6.65015727 1.5 10.3125 C1.0359375 11.19550781 0.571875 12.07851563 0.09375 12.98828125 C-0.2671875 13.65214844 -0.628125 14.31601562 -1 15 C0.423125 14.938125 0.423125 14.938125 1.875 14.875 C5 15 5 15 7 17 C6.625 19.125 6.625 19.125 6 21 C3.36 21 0.72 21 -2 21 C-4.03165952 25.33420699 -4.52060632 29.28596212 -5 34 C-6.9375 34.5625 -6.9375 34.5625 -9 35 C-10.53870721 33.46129279 -10.28160143 32.08925942 -10.375 29.9375 C-10.27246864 19.75760099 -6.4219989 7.90399864 0 0 Z " fill="#D96A44" transform="translate(372,253)"/>
<path d="M0 0 C1.7734375 0.09375 1.7734375 0.09375 4 1 C5.41885485 3.17916948 6.53275296 5.16545378 7.625 7.5 C7.93058838 8.13711914 8.23617676 8.77423828 8.55102539 9.43066406 C12.43449631 17.7697291 13.34283654 24.87673887 13 34 C11.68 34 10.36 34 9 34 C7.18884044 32.18884044 7.61800552 29.38721773 7.4375 26.9375 C7.35371094 25.83277344 7.26992187 24.72804688 7.18359375 23.58984375 C7.12300781 22.73519531 7.06242188 21.88054687 7 21 C4.03 21 1.06 21 -2 21 C-2.33 19.68 -2.66 18.36 -3 17 C-1 15 -1 15 2.125 14.875 C3.07375 14.91625 4.0225 14.9575 5 15 C4.55527344 14.25234375 4.11054688 13.5046875 3.65234375 12.734375 C3.08644531 11.74953125 2.52054688 10.7646875 1.9375 9.75 C1.08478516 8.28820312 1.08478516 8.28820312 0.21484375 6.796875 C-1 4 -1 4 -0.68359375 1.640625 C-0.45800781 1.09921875 -0.23242188 0.5578125 0 0 Z " fill="#D86843" transform="translate(181,253)"/>
<path d="M0 0 C3.125 2.125 3.125 2.125 5.125 4.125 C5.125 5.445 5.125 6.765 5.125 8.125 C2.15956556 7.6889067 0.19091048 7.16619405 -2.375 5.5625 C-8.53602882 3.03207745 -15.46956786 2.99288704 -21.80078125 5.09765625 C-23.47498482 5.82934522 -25.13022769 6.60746151 -26.75390625 7.4453125 C-28.875 8.125 -28.875 8.125 -31.15234375 7.2421875 C-32.00505859 6.68917969 -32.00505859 6.68917969 -32.875 6.125 C-31.91217406 3.71286764 -31.21091406 2.35855398 -29.0546875 0.859375 C-20.40118518 -2.83669718 -8.74483515 -4.24475575 0 0 Z " fill="#60271C" transform="translate(337.875,237.875)"/>
<path d="M0 0 C1.32 0 2.64 0 4 0 C4.17168395 3.43367897 3.98253677 6.05893841 3 9.375 C1.45168016 15.33747393 1.78762621 21.38383453 1.875 27.5 C1.88402344 28.70398438 1.89304687 29.90796875 1.90234375 31.1484375 C1.92576225 34.0991679 1.95856007 37.04947689 2 40 C0.02 40.495 0.02 40.495 -2 41 C-4.59800887 36.08234036 -4.29577845 31.22580188 -4.25 25.8125 C-4.25773437 24.91724609 -4.26546875 24.02199219 -4.2734375 23.09960938 C-4.25051577 15.16295864 -3.3921539 7.26890122 0 0 Z " fill="#D86843" transform="translate(294,215)"/>
<path d="M0 0 C0.74609375 2.140625 0.74609375 2.140625 1 4 C-1.57579092 4.95399664 -2.64228165 5.15484275 -5.2109375 4.04296875 C-8.58585836 2.78091851 -11.33994883 2.69921841 -14.9375 2.6875 C-16.12214844 2.67074219 -17.30679688 2.65398437 -18.52734375 2.63671875 C-22.32118703 3.03359999 -24.65624148 4.23743466 -28 6 C-29.32 6 -30.64 6 -32 6 C-31.9375 3.75 -31.9375 3.75 -31 1 C-22.01312214 -5.22168467 -9.2752498 -6.84551466 0 0 Z " fill="#632A1F" transform="translate(251,239)"/>
<path d="M0 0 C0.80598633 0.00161133 1.61197266 0.00322266 2.44238281 0.00488281 C3.66876465 0.0072998 3.66876465 0.0072998 4.91992188 0.00976562 C11.02490439 0.13395953 15.68355966 1.0303765 20.87988281 4.37988281 C21.49476563 4.71503906 22.10964844 5.05019531 22.74316406 5.39550781 C24.44238281 6.37988281 24.44238281 6.37988281 26.87988281 8.37988281 C26.87988281 9.69988281 26.87988281 11.01988281 26.87988281 12.37988281 C22.01248204 12.9525182 19.77292048 11.13745116 15.87988281 8.37988281 C11.30944168 5.97350796 7.09693138 6.14526985 2.06738281 6.25488281 C1.27912109 6.26390625 0.49085938 6.27292969 -0.32128906 6.28222656 C-2.25436385 6.30565777 -4.18728098 6.34152443 -6.12011719 6.37988281 C-6.78011719 5.05988281 -7.44011719 3.73988281 -8.12011719 2.37988281 C-5.50708565 -0.23314873 -3.56611929 0.06802686 0 0 Z " fill="#6E341F" transform="translate(270.1201171875,63.6201171875)"/>
<path d="M0 0 C2.8125 1.0625 2.8125 1.0625 4.1875 2.6875 C5.35566779 7.12653762 5.35128673 10.72971178 3.625 15 C1.8125 17.0625 1.8125 17.0625 -0.5625 17.6875 C-4.39559539 16.77485824 -5.85199744 15.1987463 -8.1875 12.0625 C-8.8125 8.5625 -8.8125 8.5625 -8.1875 5.0625 C-5.63525289 1.45932761 -4.48568895 0.08795469 0 0 Z " fill="#FDFDFC" transform="translate(303.1875,506.9375)"/>
<path d="M0 0 C0.09688221 5.44693314 0.12862175 10.63904667 -1 16 C-4.66786393 14.49650623 -6.68910393 12.36271208 -9.25 9.375 C-9.95640625 8.55773437 -10.6628125 7.74046875 -11.390625 6.8984375 C-11.92171875 6.27195312 -12.4528125 5.64546875 -13 5 C-12 3 -12 3 -10.0390625 2.1484375 C-8.84410156 1.76558594 -8.84410156 1.76558594 -7.625 1.375 C-6.83351563 1.11460937 -6.04203125 0.85421875 -5.2265625 0.5859375 C-3 0 -3 0 0 0 Z " fill="#D7CDA4" transform="translate(85,457)"/>
<path d="M0 0 C0 3.3 0 6.6 0 10 C-4.38635744 7.80682128 -5.51256905 6.08649371 -8 2 C-4.91190305 0.23537317 -3.76687864 0 0 0 Z " fill="#F2EDCF" transform="translate(84,463)"/>
<path d="M0 0 C5.75 1.875 5.75 1.875 8 3 C8 4.32 8 5.64 8 7 C4.00544473 6.38545304 1.25533664 4.29353263 -2 2 C-1.34 1.34 -0.68 0.68 0 0 Z " fill="#F29D75" transform="translate(301,146)"/>
<path d="M0 0 C2.05883923 4.11767846 2.96165128 7.54993405 4 12 C3.01 12 2.02 12 1 12 C1 13.65 1 15.3 1 17 C0.67 17 0.34 17 0 17 C0 11.39 0 5.78 0 0 Z " fill="#F0E6C2" transform="translate(194,431)"/>
<path d="M0 0 C0.66 1.32 1.32 2.64 2 4 C1.34 4 0.68 4 0 4 C-0.33 5.32 -0.66 6.64 -1 8 C-1.33 7.34 -1.66 6.68 -2 6 C-2.66 7.32 -3.32 8.64 -4 10 C-4.33 9.01 -4.66 8.02 -5 7 C-4.00390625 5.17578125 -4.00390625 5.17578125 -2.5625 3.3125 C-2.08941406 2.68988281 -1.61632812 2.06726563 -1.12890625 1.42578125 C-0.75636719 0.95527344 -0.38382813 0.48476562 0 0 Z " fill="#E8956E" transform="translate(198,157)"/>
<path d="M0 0 C1.98 0 3.96 0 6 0 C6 0.33 6 0.66 6 1 C4.02 1 2.04 1 0 1 C0 0.67 0 0.34 0 0 Z " fill="#F3EFD2" transform="translate(231,549)"/>
<path d="M0 0 C0.33 0 0.66 0 1 0 C1 1.98 1 3.96 1 6 C0.67 6 0.34 6 0 6 C0 4.02 0 2.04 0 0 Z " fill="#FFF3ED" transform="translate(0,310)"/>
<path d="M0 0 C0.33 0 0.66 0 1 0 C1 1.98 1 3.96 1 6 C0.67 6 0.34 6 0 6 C0 4.02 0 2.04 0 0 Z " fill="#FEF2EE" transform="translate(549,231)"/>
<path d="M0 0 C0.33 0 0.66 0 1 0 C1 1.98 1 3.96 1 6 C0.67 6 0.34 6 0 6 C0 4.02 0 2.04 0 0 Z " fill="#FEF2ED" transform="translate(0,234)"/>
<path d="M0 0 C1.98 0 3.96 0 6 0 C6 0.33 6 0.66 6 1 C4.02 1 2.04 1 0 1 C0 0.67 0 0.34 0 0 Z " fill="#FEF2ED" transform="translate(310,0)"/>
<path d="M0 0 C1.98 0 3.96 0 6 0 C6 0.33 6 0.66 6 1 C4.02 1 2.04 1 0 1 C0 0.67 0 0.34 0 0 Z " fill="#FEF2EE" transform="translate(234,0)"/>
<path d="M0 0 C1.65 0 3.3 0 5 0 C5 0.33 5 0.66 5 1 C3.35 1 1.7 1 0 1 C0 0.67 0 0.34 0 0 Z " fill="#F3EFD3" transform="translate(314,549)"/>
<path d="M0 0 C1.65 0 3.3 0 5 0 C5 0.33 5 0.66 5 1 C3.35 1 1.7 1 0 1 C0 0.67 0 0.34 0 0 Z " fill="#F3EFD3" transform="translate(225,548)"/>
<path d="M0 0 C1.65 0 3.3 0 5 0 C5 0.33 5 0.66 5 1 C3.35 1 1.7 1 0 1 C0 0.67 0 0.34 0 0 Z " fill="#F2EFD2" transform="translate(326,547)"/>
<path d="M0 0 C0.33 0 0.66 0 1 0 C1 1.65 1 3.3 1 5 C0.67 5 0.34 5 0 5 C0 3.35 0 1.7 0 0 Z " fill="#FFF2ED" transform="translate(547,326)"/>
<path d="M0 0 C0.33 0 0.66 0 1 0 C1 1.65 1 3.3 1 5 C0.67 5 0.34 5 0 5 C0 3.35 0 1.7 0 0 Z " fill="#FFF3EE" transform="translate(1,318)"/>
<path d="M0 0 C0.33 0 0.66 0 1 0 C1 1.65 1 3.3 1 5 C0.67 5 0.34 5 0 5 C0 3.35 0 1.7 0 0 Z " fill="#FEF2ED" transform="translate(549,314)"/>
<path d="M0 0 C0.33 0 0.66 0 1 0 C1 1.65 1 3.3 1 5 C0.67 5 0.34 5 0 5 C0 3.35 0 1.7 0 0 Z " fill="#FFF2ED" transform="translate(1,228)"/>
<path d="M0 0 C0.33 0 0.66 0 1 0 C1 1.65 1 3.3 1 5 C0.67 5 0.34 5 0 5 C0 3.35 0 1.7 0 0 Z " fill="#FFF2ED" transform="translate(548,225)"/>
<path d="M0 0 C0.33 0 0.66 0 1 0 C1 1.65 1 3.3 1 5 C0.67 5 0.34 5 0 5 C0 3.35 0 1.7 0 0 Z " fill="#FFF2ED" transform="translate(2,222)"/>
<path d="M0 0 C0.33 0 0.66 0 1 0 C1 1.65 1 3.3 1 5 C0.67 5 0.34 5 0 5 C0 3.35 0 1.7 0 0 Z " fill="#FEF2ED" transform="translate(3,217)"/>
<path d="M0 0 C1.65 0 3.3 0 5 0 C5 0.33 5 0.66 5 1 C3.35 1 1.7 1 0 1 C0 0.67 0 0.34 0 0 Z " fill="#FEF2ED" transform="translate(217,3)"/>
<path d="M0 0 C1.65 0 3.3 0 5 0 C5 0.33 5 0.66 5 1 C3.35 1 1.7 1 0 1 C0 0.67 0 0.34 0 0 Z " fill="#FEF2ED" transform="translate(222,2)"/>
<path d="M0 0 C1.65 0 3.3 0 5 0 C5 0.33 5 0.66 5 1 C3.35 1 1.7 1 0 1 C0 0.67 0 0.34 0 0 Z " fill="#FFF2EE" transform="translate(318,1)"/>
<path d="M0 0 C1.65 0 3.3 0 5 0 C5 0.33 5 0.66 5 1 C3.35 1 1.7 1 0 1 C0 0.67 0 0.34 0 0 Z " fill="#FFF3ED" transform="translate(228,1)"/>
<path d="M0 0 C4 1 4 1 4 1 Z " fill="#F3EFD3" transform="translate(321,548)"/>
<path d="M0 0 C4 1 4 1 4 1 Z " fill="#F3EFD3" transform="translate(220,547)"/>
<path d="M0 0 C4 1 4 1 4 1 Z " fill="#F3EFD2" transform="translate(331,546)"/>
<path d="M0 0 C4 1 4 1 4 1 Z " fill="#F4EFD4" transform="translate(215,546)"/>
<path d="M0 0 C4 1 4 1 4 1 Z " fill="#F2EFD1" transform="translate(211,545)"/>
<path d="M0 0 C4 1 4 1 4 1 Z " fill="#F3EFD3" transform="translate(340,544)"/>
<path d="M0 0 C0.99 0.495 0.99 0.495 2 1 C1.67 1.66 1.34 2.32 1 3 C0.67 2.01 0.34 1.02 0 0 Z " fill="#E0D7BA" transform="translate(71,462)"/>
<path d="M0 0 C1 4 1 4 1 4 Z " fill="#FEF2EE" transform="translate(6,342)"/>
<path d="M0 0 C1 4 1 4 1 4 Z " fill="#FEF2ED" transform="translate(544,340)"/>
<path d="M0 0 C1 4 1 4 1 4 Z " fill="#FEF2ED" transform="translate(5,338)"/>
<path d="M0 0 C1 4 1 4 1 4 Z " fill="#FFF2ED" transform="translate(546,331)"/>
<path d="M0 0 C1 4 1 4 1 4 Z " fill="#FEF2ED" transform="translate(3,329)"/>
<path d="M0 0 C1 4 1 4 1 4 Z " fill="#FFF2ED" transform="translate(2,324)"/>
<path d="M0 0 C1 4 1 4 1 4 Z " fill="#FEF2ED" transform="translate(548,321)"/>
<path d="M0 0 C1 4 1 4 1 4 Z " fill="#FEF2ED" transform="translate(547,220)"/>
<path d="M0 0 C1 4 1 4 1 4 Z " fill="#FEF2ED" transform="translate(546,215)"/>
<path d="M0 0 C1 4 1 4 1 4 Z " fill="#FFF3EE" transform="translate(4,213)"/>
<path d="M0 0 C1 4 1 4 1 4 Z " fill="#FFF3EE" transform="translate(545,211)"/>
<path d="M0 0 C0.99 0.495 0.99 0.495 2 1 C1.67 1.66 1.34 2.32 1 3 C0.67 2.01 0.34 1.02 0 0 Z " fill="#FFF3EE" transform="translate(477,85)"/>
<path d="M0 0 C4 1 4 1 4 1 Z " fill="#FFF2ED" transform="translate(342,6)"/>
<path d="M0 0 C4 1 4 1 4 1 Z " fill="#FFF2ED" transform="translate(338,5)"/>
<path d="M0 0 C4 1 4 1 4 1 Z " fill="#FFF2EE" transform="translate(213,4)"/>
<path d="M0 0 C4 1 4 1 4 1 Z " fill="#FEF2ED" transform="translate(329,3)"/>
<path d="M0 0 C4 1 4 1 4 1 Z " fill="#FEF3ED" transform="translate(324,2)"/>
<path d="M0 0 C3 1 3 1 3 1 Z " fill="#F3EFD3" transform="translate(336,545)"/>
<path d="M0 0 C3 1 3 1 3 1 Z " fill="#F6CD82" transform="translate(207,544)"/>
<path d="M0 0 C3 1 3 1 3 1 Z " fill="#F3EFD3" transform="translate(344,543)"/>
<path d="M0 0 C3 1 3 1 3 1 Z " fill="#F7BA55" transform="translate(203,543)"/>
<path d="M0 0 C3 1 3 1 3 1 Z " fill="#F3EFD4" transform="translate(348,542)"/>
<path d="M0 0 C3 1 3 1 3 1 Z " fill="#F7B952" transform="translate(196,541)"/>
<path d="M0 0 C3 1 3 1 3 1 Z " fill="#F3EFD3" transform="translate(355,540)"/>
<path d="M0 0 C3 1 3 1 3 1 Z " fill="#F3EFD3" transform="translate(358,539)"/>
<path d="M0 0 C3 1 3 1 3 1 Z " fill="#F3EFD3" transform="translate(361,538)"/>
<path d="M0 0 C3 1 3 1 3 1 Z " fill="#F3EFD3" transform="translate(364,537)"/>
<path d="M0 0 C3 1 3 1 3 1 Z " fill="#F5D28E" transform="translate(367,536)"/>
<path d="M0 0 C3 1 3 1 3 1 Z " fill="#F7B546" transform="translate(178,535)"/>
<path d="" fill="#FFF2ED" transform="translate(0,0)"/>
<path d="" fill="#FFF2ED" transform="translate(0,0)"/>
<path d="" fill="#FFF3EE" transform="translate(0,0)"/>
<path d="" fill="#FFF2ED" transform="translate(0,0)"/>
<path d="" fill="#FFF3EE" transform="translate(0,0)"/>
<path d="" fill="#FFF2ED" transform="translate(0,0)"/>
<path d="" fill="#FEF2ED" transform="translate(0,0)"/>
<path d="" fill="#FFF2ED" transform="translate(0,0)"/>
<path d="" fill="#FEF2EE" transform="translate(0,0)"/>
<path d="" fill="#FFF2ED" transform="translate(0,0)"/>
<path d="" fill="#FFF2ED" transform="translate(0,0)"/>
<path d="" fill="#FFF2ED" transform="translate(0,0)"/>
<path d="" fill="#FEF3EE" transform="translate(0,0)"/>
<path d="" fill="#FFF3EE" transform="translate(0,0)"/>
<path d="" fill="#FFF3ED" transform="translate(0,0)"/>
<path d="" fill="#FEF2ED" transform="translate(0,0)"/>
<path d="" fill="#FFF3EE" transform="translate(0,0)"/>
<path d="" fill="#FEF2ED" transform="translate(0,0)"/>
<path d="" fill="#FFF3ED" transform="translate(0,0)"/>
<path d="" fill="#FFF3ED" transform="translate(0,0)"/>
<path d="" fill="#FFF3EE" transform="translate(0,0)"/>
<path d="" fill="#FFF2EE" transform="translate(0,0)"/>
<path d="" fill="#FFF3EE" transform="translate(0,0)"/>
<path d="" fill="#FEF2ED" transform="translate(0,0)"/>
<path d="" fill="#FEF2ED" transform="translate(0,0)"/>
<path d="" fill="#FFF3EE" transform="translate(0,0)"/>
<path d="" fill="#FEF3ED" transform="translate(0,0)"/>
<path d="M0 0 C3 1 3 1 3 1 Z " fill="#FFF2ED" transform="translate(371,15)"/>
<path d="M0 0 C3 1 3 1 3 1 Z " fill="#FFF2EE" transform="translate(182,13)"/>
<path d="M0 0 C3 1 3 1 3 1 Z " fill="#FEF2ED" transform="translate(185,12)"/>
<path d="M0 0 C3 1 3 1 3 1 Z " fill="#FEF2ED" transform="translate(188,11)"/>
<path d="M0 0 C3 1 3 1 3 1 Z " fill="#FEF2ED" transform="translate(191,10)"/>
<path d="M0 0 C3 1 3 1 3 1 Z " fill="#FFF2ED" transform="translate(353,9)"/>
<path d="M0 0 C3 1 3 1 3 1 Z " fill="#FFF2ED" transform="translate(194,9)"/>
<path d="M0 0 C3 1 3 1 3 1 Z " fill="#FFF3EE" transform="translate(350,8)"/>
<path d="M0 0 C3 1 3 1 3 1 Z " fill="#FEF2EE" transform="translate(198,8)"/>
<path d="M0 0 C3 1 3 1 3 1 Z " fill="#FEF2ED" transform="translate(346,7)"/>
<path d="M0 0 C3 1 3 1 3 1 Z " fill="#FFF3EE" transform="translate(201,7)"/>
<path d="M0 0 C3 1 3 1 3 1 Z " fill="#FFF3EE" transform="translate(205,6)"/>
<path d="M0 0 C3 1 3 1 3 1 Z " fill="#FFF3EE" transform="translate(209,5)"/>
<path d="M0 0 C3 1 3 1 3 1 Z " fill="#FFF2EE" transform="translate(334,4)"/>
<path d="M0 0 C2 1 2 1 2 1 Z " fill="#F7B953" transform="translate(200,542)"/>
<path d="M0 0 C2 1 2 1 2 1 Z " fill="#F3EFD4" transform="translate(352,541)"/>
<path d="M0 0 C2 1 2 1 2 1 Z " fill="#F7BA55" transform="translate(193,540)"/>
<path d="M0 0 C2 1 2 1 2 1 Z " fill="#F8BA54" transform="translate(190,539)"/>
<path d="M0 0 C2 1 2 1 2 1 Z " fill="#F7B953" transform="translate(187,538)"/>
<path d="M0 0 C2 1 2 1 2 1 Z " fill="#F7B954" transform="translate(184,537)"/>
<path d="M0 0 C2 1 2 1 2 1 Z " fill="#F7BA55" transform="translate(181,536)"/>
<path d="M0 0 C2 1 2 1 2 1 Z " fill="#F8B74D" transform="translate(370,535)"/>
<path d="M0 0 C2 1 2 1 2 1 Z " fill="#F8BA56" transform="translate(373,534)"/>
<path d="M0 0 C2 1 2 1 2 1 Z " fill="#F7B850" transform="translate(176,534)"/>
<path d="M0 0 C2 1 2 1 2 1 Z " fill="#F7B84F" transform="translate(375,533)"/>
<path d="M0 0 C2 1 2 1 2 1 Z " fill="#F8BB57" transform="translate(173,533)"/>
<path d="M0 0 C2 1 2 1 2 1 Z " fill="#F8BA54" transform="translate(378,532)"/>
<path d="M0 0 C2 1 2 1 2 1 Z " fill="#F7B64A" transform="translate(171,532)"/>
<path d="M0 0 C2 1 2 1 2 1 Z " fill="#F7B84F" transform="translate(380,531)"/>
<path d="M0 0 C2 1 2 1 2 1 Z " fill="#F8BA54" transform="translate(168,531)"/>
<path d="M0 0 C2 1 2 1 2 1 Z " fill="#F8B953" transform="translate(383,530)"/>
<path d="M0 0 C2 1 2 1 2 1 Z " fill="#F7B952" transform="translate(166,530)"/>
<path d="M0 0 C2 1 2 1 2 1 Z " fill="#F7B951" transform="translate(385,529)"/>
<path d="M0 0 C2 1 2 1 2 1 Z " fill="#F7B64A" transform="translate(164,529)"/>
<path d="M0 0 C2 1 2 1 2 1 Z " fill="#F7B74D" transform="translate(387,528)"/>
<path d="M0 0 C2 1 2 1 2 1 Z " fill="#F8BA55" transform="translate(161,528)"/>
<path d="M0 0 C2 1 2 1 2 1 Z " fill="#F7B64C" transform="translate(389,527)"/>
<path d="M0 0 C2 1 2 1 2 1 Z " fill="#F7B951" transform="translate(159,527)"/>
<path d="M0 0 C2 1 2 1 2 1 Z " fill="#F7B851" transform="translate(157,526)"/>
<path d="M0 0 C2 1 2 1 2 1 Z " fill="#F7B952" transform="translate(155,525)"/>
<path d="M0 0 C2 1 2 1 2 1 Z " fill="#F7B952" transform="translate(153,524)"/>
<path d="M0 0 C2 1 2 1 2 1 Z " fill="#F8B952" transform="translate(151,523)"/>
<path d="M0 0 C2 1 2 1 2 1 Z " fill="#F7B649" transform="translate(149,522)"/>
<path d="M0 0 C2 1 2 1 2 1 Z " fill="#F7B84F" transform="translate(147,521)"/>
<path d="M0 0 C2 1 2 1 2 1 Z " fill="#F7B851" transform="translate(145,520)"/>
<path d="M0 0 C2 1 2 1 2 1 Z " fill="#F7BA56" transform="translate(143,519)"/>
<path d="M0 0 C2 1 2 1 2 1 Z " fill="#F7B951" transform="translate(407,518)"/>
<path d="M0 0 C2 1 2 1 2 1 Z " fill="#F7BA53" transform="translate(409,517)"/>
<path d="M0 0 C2 1 2 1 2 1 Z " fill="#F7B952" transform="translate(136,515)"/>
<path d="M0 0 C2 1 2 1 2 1 Z " fill="#F7B547" transform="translate(414,514)"/>
<path d="M0 0 C2 1 2 1 2 1 Z " fill="#F7BA55" transform="translate(416,513)"/>
<path d="M0 0 C2 1 2 1 2 1 Z " fill="#F7B84F" transform="translate(131,512)"/>
<path d="M0 0 C2 1 2 1 2 1 Z " fill="#F7B64B" transform="translate(419,511)"/>
<path d="M0 0 C2 1 2 1 2 1 Z " fill="#F7BB58" transform="translate(126,509)"/>
<path d="M0 0 C2 1 2 1 2 1 Z " fill="#F7B953" transform="translate(424,508)"/>
<path d="M0 0 C2 1 2 1 2 1 Z " fill="#F7BB57" transform="translate(123,507)"/>
<path d="M0 0 C2 1 2 1 2 1 Z " fill="#F7B952" transform="translate(427,506)"/>
<path d="M0 0 C2 1 2 1 2 1 Z " fill="#F7B951" transform="translate(120,505)"/>
<path d="M0 0 C2 1 2 1 2 1 Z " fill="#F7BA54" transform="translate(430,504)"/>
<path d="M0 0 C2 1 2 1 2 1 Z " fill="#F8BA55" transform="translate(117,503)"/>
<path d="M0 0 C2 1 2 1 2 1 Z " fill="#F6AD33" transform="translate(113,500)"/>
<path d="M0 0 C2 1 2 1 2 1 Z " fill="#F7B84F" transform="translate(437,499)"/>
<path d="M0 0 C2 1 2 1 2 1 Z " fill="#F7B64C" transform="translate(441,496)"/>
<path d="M0 0 C2 1 2 1 2 1 Z " fill="#F7BA56" transform="translate(445,493)"/>
<path d="M0 0 C2 1 2 1 2 1 Z " fill="#F7BA55" transform="translate(101,491)"/>
<path d="M0 0 C2 1 2 1 2 1 Z " fill="#F7B74C" transform="translate(95,486)"/>
<path d="M0 0 C2 1 2 1 2 1 Z " fill="#F7B549" transform="translate(458,482)"/>
<path d="M0 0 C2 1 2 1 2 1 Z " fill="#F7B74C" transform="translate(86,478)"/>
<path d="" fill="#FEF2ED" transform="translate(0,0)"/>
<path d="" fill="#FEF2ED" transform="translate(0,0)"/>
<path d="" fill="#FFF3ED" transform="translate(0,0)"/>
<path d="" fill="#FFF3EE" transform="translate(0,0)"/>
<path d="" fill="#FFF2ED" transform="translate(0,0)"/>
<path d="" fill="#FFF2ED" transform="translate(0,0)"/>
<path d="" fill="#FFF2ED" transform="translate(0,0)"/>
<path d="" fill="#FFF3EE" transform="translate(0,0)"/>
<path d="" fill="#FEF3EE" transform="translate(0,0)"/>
<path d="" fill="#FEF2ED" transform="translate(0,0)"/>
<path d="" fill="#FFF2EE" transform="translate(0,0)"/>
<path d="" fill="#FEF2ED" transform="translate(0,0)"/>
<path d="" fill="#FFF2ED" transform="translate(0,0)"/>
<path d="" fill="#FFF3EE" transform="translate(0,0)"/>
<path d="" fill="#FFF2EE" transform="translate(0,0)"/>
<path d="" fill="#FFF2ED" transform="translate(0,0)"/>
<path d="" fill="#FFF3EE" transform="translate(0,0)"/>
<path d="" fill="#FFF2ED" transform="translate(0,0)"/>
<path d="" fill="#FFF2ED" transform="translate(0,0)"/>
<path d="" fill="#FEF2ED" transform="translate(0,0)"/>
<path d="" fill="#FFF2EE" transform="translate(0,0)"/>
<path d="" fill="#FFF2EE" transform="translate(0,0)"/>
<path d="" fill="#FFF3ED" transform="translate(0,0)"/>
<path d="" fill="#FFF2EE" transform="translate(0,0)"/>
<path d="" fill="#FFF2ED" transform="translate(0,0)"/>
<path d="" fill="#FFF3EE" transform="translate(0,0)"/>
<path d="" fill="#FEF2ED" transform="translate(0,0)"/>
<path d="" fill="#FFF2ED" transform="translate(0,0)"/>
<path d="" fill="#FFF2EE" transform="translate(0,0)"/>
<path d="" fill="#FFF3EE" transform="translate(0,0)"/>
<path d="" fill="#FFF3EE" transform="translate(0,0)"/>
<path d="" fill="#FFF3EE" transform="translate(0,0)"/>
<path d="" fill="#FEF2EE" transform="translate(0,0)"/>
<path d="" fill="#FEF2ED" transform="translate(0,0)"/>
<path d="" fill="#FFF3ED" transform="translate(0,0)"/>
<path d="" fill="#FFF2ED" transform="translate(0,0)"/>
<path d="" fill="#FEF2EE" transform="translate(0,0)"/>
<path d="" fill="#FEF3EE" transform="translate(0,0)"/>
<path d="" fill="#FFF2ED" transform="translate(0,0)"/>
<path d="" fill="#FFF3EE" transform="translate(0,0)"/>
<path d="" fill="#FFF2EE" transform="translate(0,0)"/>
<path d="" fill="#FFF3EE" transform="translate(0,0)"/>
<path d="" fill="#FFF3ED" transform="translate(0,0)"/>
<path d="" fill="#FFF3EE" transform="translate(0,0)"/>
<path d="" fill="#FFF3EE" transform="translate(0,0)"/>
<path d="" fill="#FFF3EE" transform="translate(0,0)"/>
<path d="" fill="#FFF3EE" transform="translate(0,0)"/>
<path d="" fill="#FFF2ED" transform="translate(0,0)"/>
<path d="" fill="#FFF3EE" transform="translate(0,0)"/>
<path d="" fill="#FEF3EE" transform="translate(0,0)"/>
<path d="" fill="#FEF3EE" transform="translate(0,0)"/>
<path d="" fill="#FFF3EE" transform="translate(0,0)"/>
<path d="" fill="#FFF2ED" transform="translate(0,0)"/>
<path d="" fill="#FFF3EE" transform="translate(0,0)"/>
<path d="" fill="#FFF2EE" transform="translate(0,0)"/>
<path d="" fill="#FFF2ED" transform="translate(0,0)"/>
<path d="" fill="#FEF3ED" transform="translate(0,0)"/>
<path d="" fill="#FFF3EE" transform="translate(0,0)"/>
<path d="" fill="#FFF3EE" transform="translate(0,0)"/>
<path d="" fill="#FFF3EE" transform="translate(0,0)"/>
<path d="" fill="#FFF3EE" transform="translate(0,0)"/>
<path d="" fill="#FEF2ED" transform="translate(0,0)"/>
<path d="" fill="#FFF3ED" transform="translate(0,0)"/>
<path d="" fill="#FFF3EE" transform="translate(0,0)"/>
<path d="" fill="#FEF2EE" transform="translate(0,0)"/>
<path d="" fill="#FFF3ED" transform="translate(0,0)"/>
<path d="" fill="#FEF3ED" transform="translate(0,0)"/>
<path d="" fill="#FFF2ED" transform="translate(0,0)"/>
<path d="" fill="#FEF2ED" transform="translate(0,0)"/>
<path d="" fill="#FEF2ED" transform="translate(0,0)"/>
<path d="" fill="#FFF2ED" transform="translate(0,0)"/>
<path d="" fill="#FFF2ED" transform="translate(0,0)"/>
<path d="" fill="#FEF2EE" transform="translate(0,0)"/>
<path d="" fill="#FFF3ED" transform="translate(0,0)"/>
<path d="" fill="#FFF3ED" transform="translate(0,0)"/>
<path d="" fill="#FFF3ED" transform="translate(0,0)"/>
<path d="" fill="#FEF2ED" transform="translate(0,0)"/>
<path d="" fill="#FFF3EE" transform="translate(0,0)"/>
<path d="" fill="#FFF2EE" transform="translate(0,0)"/>
<path d="" fill="#FFF2ED" transform="translate(0,0)"/>
<path d="" fill="#FFF2ED" transform="translate(0,0)"/>
<path d="" fill="#FFF3EE" transform="translate(0,0)"/>
<path d="" fill="#FFF2ED" transform="translate(0,0)"/>
<path d="" fill="#FFF3EE" transform="translate(0,0)"/>
<path d="" fill="#FFF3EE" transform="translate(0,0)"/>
<path d="" fill="#FFF3EE" transform="translate(0,0)"/>
<path d="" fill="#FFF3EE" transform="translate(0,0)"/>
<path d="" fill="#FEF2EE" transform="translate(0,0)"/>
<path d="" fill="#FFF2ED" transform="translate(0,0)"/>
<path d="" fill="#FEF2ED" transform="translate(0,0)"/>
<path d="" fill="#FFF3ED" transform="translate(0,0)"/>
<path d="" fill="#FFF2ED" transform="translate(0,0)"/>
<path d="" fill="#FFF3EE" transform="translate(0,0)"/>
<path d="" fill="#FFF3ED" transform="translate(0,0)"/>
<path d="" fill="#FEF2ED" transform="translate(0,0)"/>
<path d="" fill="#FFF3EE" transform="translate(0,0)"/>
<path d="" fill="#FFF3ED" transform="translate(0,0)"/>
<path d="" fill="#FFF3EE" transform="translate(0,0)"/>
<path d="" fill="#FFF2EE" transform="translate(0,0)"/>
<path d="" fill="#FFF3ED" transform="translate(0,0)"/>
<path d="" fill="#FFF2ED" transform="translate(0,0)"/>
<path d="" fill="#FFF2ED" transform="translate(0,0)"/>
<path d="" fill="#FFF3EE" transform="translate(0,0)"/>
<path d="" fill="#FEF2ED" transform="translate(0,0)"/>
<path d="" fill="#FEF2ED" transform="translate(0,0)"/>
<path d="" fill="#FFF3ED" transform="translate(0,0)"/>
<path d="M0 0 C2 1 2 1 2 1 Z " fill="#FFF2EE" transform="translate(463,72)"/>
<path d="M0 0 C2 1 2 1 2 1 Z " fill="#FFF2EE" transform="translate(91,67)"/>
<path d="M0 0 C2 1 2 1 2 1 Z " fill="#FFF2ED" transform="translate(454,64)"/>
<path d="M0 0 C2 1 2 1 2 1 Z " fill="#FFF3EE" transform="translate(98,61)"/>
<path d="M0 0 C2 1 2 1 2 1 Z " fill="#FFF3ED" transform="translate(448,59)"/>
<path d="M0 0 C2 1 2 1 2 1 Z " fill="#FFF2EE" transform="translate(103,57)"/>
<path d="M0 0 C2 1 2 1 2 1 Z " fill="#FFF2ED" transform="translate(443,55)"/>
<path d="M0 0 C2 1 2 1 2 1 Z " fill="#FFF2EE" transform="translate(108,53)"/>
<path d="M0 0 C2 1 2 1 2 1 Z " fill="#FFF2ED" transform="translate(439,52)"/>
<path d="M0 0 C2 1 2 1 2 1 Z " fill="#FFF3EE" transform="translate(112,50)"/>
<path d="M0 0 C2 1 2 1 2 1 Z " fill="#FEF2ED" transform="translate(435,49)"/>
<path d="M0 0 C2 1 2 1 2 1 Z " fill="#FFF3EE" transform="translate(115,48)"/>
<path d="M0 0 C2 1 2 1 2 1 Z " fill="#FFF3EE" transform="translate(432,47)"/>
<path d="M0 0 C2 1 2 1 2 1 Z " fill="#FFF3EE" transform="translate(423,41)"/>
<path d="M0 0 C2 1 2 1 2 1 Z " fill="#FFF3EE" transform="translate(127,40)"/>
<path d="M0 0 C2 1 2 1 2 1 Z " fill="#FFF3ED" transform="translate(420,39)"/>
<path d="M0 0 C2 1 2 1 2 1 Z " fill="#FFF3EE" transform="translate(130,38)"/>
<path d="M0 0 C2 1 2 1 2 1 Z " fill="#FFF3EE" transform="translate(415,36)"/>
<path d="M0 0 C2 1 2 1 2 1 Z " fill="#FFF3ED" transform="translate(135,35)"/>
<path d="M0 0 C2 1 2 1 2 1 Z " fill="#FFF3EE" transform="translate(137,34)"/>
<path d="M0 0 C2 1 2 1 2 1 Z " fill="#FEF3ED" transform="translate(410,33)"/>
<path d="M0 0 C2 1 2 1 2 1 Z " fill="#FFF2ED" transform="translate(408,32)"/>
<path d="M0 0 C2 1 2 1 2 1 Z " fill="#FFF2ED" transform="translate(406,31)"/>
<path d="M0 0 C2 1 2 1 2 1 Z " fill="#FFF3EE" transform="translate(142,31)"/>
<path d="M0 0 C2 1 2 1 2 1 Z " fill="#FFF3EE" transform="translate(144,30)"/>
<path d="M0 0 C2 1 2 1 2 1 Z " fill="#FFF3EE" transform="translate(146,29)"/>
<path d="M0 0 C2 1 2 1 2 1 Z " fill="#FFF3ED" transform="translate(148,28)"/>
<path d="M0 0 C2 1 2 1 2 1 Z " fill="#FFF3EE" transform="translate(399,27)"/>
<path d="M0 0 C2 1 2 1 2 1 Z " fill="#FFF2ED" transform="translate(150,27)"/>
<path d="M0 0 C2 1 2 1 2 1 Z " fill="#FEF2EE" transform="translate(397,26)"/>
<path d="M0 0 C2 1 2 1 2 1 Z " fill="#FFF2EE" transform="translate(152,26)"/>
<path d="M0 0 C2 1 2 1 2 1 Z " fill="#FFF3EE" transform="translate(154,25)"/>
<path d="M0 0 C2 1 2 1 2 1 Z " fill="#FFF3ED" transform="translate(156,24)"/>
<path d="M0 0 C2 1 2 1 2 1 Z " fill="#FFF3EE" transform="translate(158,23)"/>
<path d="M0 0 C2 1 2 1 2 1 Z " fill="#FFF2EE" transform="translate(388,22)"/>
<path d="M0 0 C2 1 2 1 2 1 Z " fill="#FFF3EE" transform="translate(160,22)"/>
<path d="M0 0 C2 1 2 1 2 1 Z " fill="#FFF2ED" transform="translate(386,21)"/>
<path d="M0 0 C2 1 2 1 2 1 Z " fill="#FEF2EE" transform="translate(162,21)"/>
<path d="M0 0 C2 1 2 1 2 1 Z " fill="#FEF2ED" transform="translate(384,20)"/>
<path d="M0 0 C2 1 2 1 2 1 Z " fill="#FFF2ED" transform="translate(165,20)"/>
<path d="M0 0 C2 1 2 1 2 1 Z " fill="#FFF2ED" transform="translate(381,19)"/>
<path d="M0 0 C2 1 2 1 2 1 Z " fill="#FFF3ED" transform="translate(167,19)"/>
<path d="M0 0 C2 1 2 1 2 1 Z " fill="#FEF2ED" transform="translate(379,18)"/>
<path d="M0 0 C2 1 2 1 2 1 Z " fill="#FFF3EE" transform="translate(169,18)"/>
<path d="M0 0 C2 1 2 1 2 1 Z " fill="#FFF3ED" transform="translate(377,17)"/>
<path d="M0 0 C2 1 2 1 2 1 Z " fill="#FEF3ED" transform="translate(172,17)"/>
<path d="M0 0 C2 1 2 1 2 1 Z " fill="#FEF2ED" transform="translate(374,16)"/>
<path d="M0 0 C2 1 2 1 2 1 Z " fill="#FEF3EE" transform="translate(174,16)"/>
<path d="M0 0 C2 1 2 1 2 1 Z " fill="#FEF2ED" transform="translate(177,15)"/>
<path d="M0 0 C2 1 2 1 2 1 Z " fill="#FFF3EE" transform="translate(369,14)"/>
<path d="M0 0 C2 1 2 1 2 1 Z " fill="#FFF3EE" transform="translate(180,14)"/>
<path d="M0 0 C2 1 2 1 2 1 Z " fill="#FFF3EE" transform="translate(366,13)"/>
<path d="M0 0 C2 1 2 1 2 1 Z " fill="#FFF3EE" transform="translate(363,12)"/>
<path d="M0 0 C2 1 2 1 2 1 Z " fill="#FFF2ED" transform="translate(360,11)"/>
<path d="M0 0 C2 1 2 1 2 1 Z " fill="#FFF2ED" transform="translate(357,10)"/>
<path d="" fill="#F8BA53" transform="translate(0,0)"/>
<path d="" fill="#F8B951" transform="translate(0,0)"/>
<path d="" fill="#F8BA54" transform="translate(0,0)"/>
<path d="" fill="#F7B951" transform="translate(0,0)"/>
<path d="" fill="#F8BA55" transform="translate(0,0)"/>
<path d="" fill="#F8BA54" transform="translate(0,0)"/>
<path d="" fill="#F8BA54" transform="translate(0,0)"/>
<path d="" fill="#F8BA54" transform="translate(0,0)"/>
<path d="" fill="#F7B850" transform="translate(0,0)"/>
<path d="" fill="#F8BA54" transform="translate(0,0)"/>
<path d="" fill="#F8B951" transform="translate(0,0)"/>
<path d="" fill="#F8BB58" transform="translate(0,0)"/>
<path d="" fill="#F8BA54" transform="translate(0,0)"/>
<path d="" fill="#F7B84F" transform="translate(0,0)"/>
<path d="" fill="#F8BB57" transform="translate(0,0)"/>
<path d="" fill="#F8BA55" transform="translate(0,0)"/>
<path d="" fill="#F8B953" transform="translate(0,0)"/>
<path d="" fill="#F7B850" transform="translate(0,0)"/>
<path d="" fill="#F8BB58" transform="translate(0,0)"/>
<path d="" fill="#F8BB56" transform="translate(0,0)"/>
<path d="" fill="#F8BB58" transform="translate(0,0)"/>
<path d="" fill="#F8BA53" transform="translate(0,0)"/>
<path d="" fill="#F8BB57" transform="translate(0,0)"/>
<path d="" fill="#F8BA55" transform="translate(0,0)"/>
<path d="" fill="#F8BA55" transform="translate(0,0)"/>
<path d="" fill="#F8BB57" transform="translate(0,0)"/>
<path d="" fill="#F7B84F" transform="translate(0,0)"/>
<path d="" fill="#F8BC5A" transform="translate(0,0)"/>
<path d="" fill="#F8BB58" transform="translate(0,0)"/>
<path d="" fill="#F8B951" transform="translate(0,0)"/>
<path d="" fill="#F8B952" transform="translate(0,0)"/>
<path d="" fill="#F8BA53" transform="translate(0,0)"/>
<path d="" fill="#F8BB56" transform="translate(0,0)"/>
<path d="" fill="#F7B74B" transform="translate(0,0)"/>
<path d="" fill="#F7B850" transform="translate(0,0)"/>
<path d="" fill="#F8BD5B" transform="translate(0,0)"/>
<path d="" fill="#F8B953" transform="translate(0,0)"/>
<path d="" fill="#F8BB58" transform="translate(0,0)"/>
<path d="" fill="#F7B445" transform="translate(0,0)"/>
<path d="" fill="#F8B953" transform="translate(0,0)"/>
<path d="" fill="#F8BD5C" transform="translate(0,0)"/>
<path d="" fill="#F8BA56" transform="translate(0,0)"/>
<path d="" fill="#F8BC59" transform="translate(0,0)"/>
<path d="" fill="#F8B952" transform="translate(0,0)"/>
<path d="" fill="#F8BA54" transform="translate(0,0)"/>
<path d="" fill="#F7B951" transform="translate(0,0)"/>
<path d="" fill="#F8BB57" transform="translate(0,0)"/>
<path d="" fill="#F7B64A" transform="translate(0,0)"/>
<path d="" fill="#F8BA55" transform="translate(0,0)"/>
<path d="" fill="#F8BA56" transform="translate(0,0)"/>
<path d="" fill="#F8B953" transform="translate(0,0)"/>
<path d="" fill="#F8BA54" transform="translate(0,0)"/>
<path d="" fill="#F7B74C" transform="translate(0,0)"/>
<path d="" fill="#F8BA54" transform="translate(0,0)"/>
<path d="" fill="#F8B952" transform="translate(0,0)"/>
<path d="" fill="#F8BA54" transform="translate(0,0)"/>
<path d="" fill="#F7B74D" transform="translate(0,0)"/>
<path d="" fill="#F8BA54" transform="translate(0,0)"/>
<path d="" fill="#F7B64A" transform="translate(0,0)"/>
<path d="" fill="#F8B952" transform="translate(0,0)"/>
<path d="" fill="#F7B84F" transform="translate(0,0)"/>
<path d="" fill="#F8BA55" transform="translate(0,0)"/>
<path d="" fill="#F7B74D" transform="translate(0,0)"/>
<path d="" fill="#F8B952" transform="translate(0,0)"/>
<path d="" fill="#F7B74C" transform="translate(0,0)"/>
<path d="" fill="#F8B952" transform="translate(0,0)"/>
<path d="" fill="#F7B649" transform="translate(0,0)"/>
<path d="" fill="#F8B952" transform="translate(0,0)"/>
<path d="" fill="#F8B952" transform="translate(0,0)"/>
<path d="" fill="#F8BB57" transform="translate(0,0)"/>
<path d="" fill="#F8B951" transform="translate(0,0)"/>
<path d="" fill="#F8BA55" transform="translate(0,0)"/>
<path d="" fill="#F8B952" transform="translate(0,0)"/>
<path d="" fill="#F7BB58" transform="translate(0,0)"/>
<path d="" fill="#F7B850" transform="translate(0,0)"/>
<path d="" fill="#F6D08A" transform="translate(0,0)"/>
<path d="" fill="#F7B84F" transform="translate(0,0)"/>
<path d="" fill="#F5E1B1" transform="translate(0,0)"/>
<path d="" fill="#F8B952" transform="translate(0,0)"/>
<path d="" fill="#F4F0D4" transform="translate(0,0)"/>
<path d="" fill="#F8B951" transform="translate(0,0)"/>
<path d="" fill="#F4F0D4" transform="translate(0,0)"/>
<path d="" fill="#F8B951" transform="translate(0,0)"/>
<path d="" fill="#F4EFD4" transform="translate(0,0)"/>
<path d="" fill="#F8B951" transform="translate(0,0)"/>
<path d="" fill="#F4F0D4" transform="translate(0,0)"/>
<path d="" fill="#F7B850" transform="translate(0,0)"/>
<path d="" fill="#F4F0D4" transform="translate(0,0)"/>
<path d="" fill="#F7B952" transform="translate(0,0)"/>
<path d="" fill="#EAE5C6" transform="translate(0,0)"/>
<path d="" fill="#F6D089" transform="translate(0,0)"/>
<path d="" fill="#E0DAB7" transform="translate(0,0)"/>
<path d="" fill="#F5D89C" transform="translate(0,0)"/>
<path d="" fill="#D5CDA6" transform="translate(0,0)"/>
<path d="" fill="#F5ECCE" transform="translate(0,0)"/>
<path d="" fill="#F8F1DD" transform="translate(0,0)"/>
<path d="" fill="#FAF1E3" transform="translate(0,0)"/>
<path d="" fill="#FEF2ED" transform="translate(0,0)"/>
<path d="" fill="#DBD3B2" transform="translate(0,0)"/>
<path d="" fill="#FFF2ED" transform="translate(0,0)"/>
<path d="" fill="#FEF2ED" transform="translate(0,0)"/>
<path d="" fill="#FFF2EE" transform="translate(0,0)"/>
<path d="" fill="#FFF2ED" transform="translate(0,0)"/>
<path d="" fill="#FFF3EE" transform="translate(0,0)"/>
<path d="" fill="#FEF3EE" transform="translate(0,0)"/>
<path d="" fill="#FFF3ED" transform="translate(0,0)"/>
<path d="" fill="#FFF2ED" transform="translate(0,0)"/>
<path d="" fill="#FFF2EE" transform="translate(0,0)"/>
<path d="" fill="#FFF3EE" transform="translate(0,0)"/>
<path d="" fill="#FFF3ED" transform="translate(0,0)"/>
<path d="" fill="#FFF3EE" transform="translate(0,0)"/>
<path d="" fill="#FFF3EE" transform="translate(0,0)"/>
<path d="" fill="#FFF2EE" transform="translate(0,0)"/>
<path d="" fill="#FFF3EE" transform="translate(0,0)"/>
<path d="" fill="#FFF3EE" transform="translate(0,0)"/>
<path d="" fill="#FFF3EE" transform="translate(0,0)"/>
<path d="" fill="#FFF3ED" transform="translate(0,0)"/>
<path d="" fill="#FFF3EE" transform="translate(0,0)"/>
<path d="" fill="#FFF3ED" transform="translate(0,0)"/>
<path d="" fill="#FFF3EE" transform="translate(0,0)"/>
<path d="" fill="#FFF2EE" transform="translate(0,0)"/>
<path d="" fill="#FFF3EE" transform="translate(0,0)"/>
<path d="" fill="#FFF3EE" transform="translate(0,0)"/>
<path d="" fill="#FFF3EE" transform="translate(0,0)"/>
<path d="" fill="#FFF3EE" transform="translate(0,0)"/>
<path d="" fill="#FFF3EE" transform="translate(0,0)"/>
<path d="" fill="#FFF2ED" transform="translate(0,0)"/>
<path d="" fill="#FFF3EE" transform="translate(0,0)"/>
<path d="" fill="#FFF2ED" transform="translate(0,0)"/>
<path d="" fill="#FFF3EE" transform="translate(0,0)"/>
<path d="" fill="#FFF3EE" transform="translate(0,0)"/>
<path d="" fill="#FFF3EE" transform="translate(0,0)"/>
<path d="" fill="#FFF3EE" transform="translate(0,0)"/>
<path d="" fill="#FFF2EE" transform="translate(0,0)"/>
<path d="" fill="#FFF3EE" transform="translate(0,0)"/>
<path d="" fill="#FFF2EE" transform="translate(0,0)"/>
<path d="" fill="#FFF3EE" transform="translate(0,0)"/>
<path d="" fill="#FEF2EE" transform="translate(0,0)"/>
<path d="" fill="#FFF2ED" transform="translate(0,0)"/>
<path d="" fill="#FFF3EE" transform="translate(0,0)"/>
<path d="" fill="#FEF2EE" transform="translate(0,0)"/>
<path d="" fill="#FFF3EE" transform="translate(0,0)"/>
<path d="" fill="#FFF3EE" transform="translate(0,0)"/>
<path d="" fill="#FFF3EE" transform="translate(0,0)"/>
<path d="" fill="#FFF3EE" transform="translate(0,0)"/>
<path d="" fill="#FFF3EE" transform="translate(0,0)"/>
<path d="" fill="#FFF3ED" transform="translate(0,0)"/>
<path d="" fill="#FFF3EE" transform="translate(0,0)"/>
<path d="" fill="#FFF3EE" transform="translate(0,0)"/>
<path d="" fill="#FFF3EE" transform="translate(0,0)"/>
<path d="" fill="#FFF3EE" transform="translate(0,0)"/>
<path d="" fill="#FFF2ED" transform="translate(0,0)"/>
<path d="" fill="#FEF2ED" transform="translate(0,0)"/>
<path d="" fill="#FFF3EE" transform="translate(0,0)"/>
<path d="" fill="#FFF3ED" transform="translate(0,0)"/>
<path d="" fill="#FEF2ED" transform="translate(0,0)"/>
<path d="" fill="#FEF3ED" transform="translate(0,0)"/>
<path d="" fill="#FEF3EE" transform="translate(0,0)"/>
<path d="" fill="#FEF2ED" transform="translate(0,0)"/>
<path d="" fill="#FFF2ED" transform="translate(0,0)"/>
<path d="" fill="#FEF3ED" transform="translate(0,0)"/>
<path d="" fill="#FFF3EE" transform="translate(0,0)"/>
<path d="" fill="#FEF3EE" transform="translate(0,0)"/>
<path d="" fill="#FFF3EE" transform="translate(0,0)"/>
<path d="" fill="#FEF2ED" transform="translate(0,0)"/>
<path d="" fill="#FFF3EE" transform="translate(0,0)"/>
<path d="" fill="#FFF3EE" transform="translate(0,0)"/>
<path d="" fill="#FFF3EE" transform="translate(0,0)"/>
<path d="" fill="#FFF3EE" transform="translate(0,0)"/>
<path d="" fill="#FEF2EE" transform="translate(0,0)"/>
<path d="" fill="#FFF3EE" transform="translate(0,0)"/>
<path d="" fill="#FFF3EE" transform="translate(0,0)"/>
<path d="" fill="#FFF3ED" transform="translate(0,0)"/>
<path d="" fill="#FFF3EE" transform="translate(0,0)"/>
<path d="" fill="#FFF2ED" transform="translate(0,0)"/>
<path d="" fill="#FFF3EE" transform="translate(0,0)"/>
<path d="" fill="#FFF3EE" transform="translate(0,0)"/>
<path d="" fill="#FFF2ED" transform="translate(0,0)"/>
<path d="" fill="#FFF3EE" transform="translate(0,0)"/>
<path d="" fill="#FFF3EE" transform="translate(0,0)"/>
<path d="" fill="#FFF3EE" transform="translate(0,0)"/>
<path d="" fill="#FFF3ED" transform="translate(0,0)"/>
<path d="" fill="#FFF3EE" transform="translate(0,0)"/>
<path d="" fill="#FFF3EE" transform="translate(0,0)"/>
<path d="" fill="#FEF2ED" transform="translate(0,0)"/>
<path d="" fill="#FFF3EE" transform="translate(0,0)"/>
<path d="" fill="#FFF3EE" transform="translate(0,0)"/>
<path d="" fill="#FFF2ED" transform="translate(0,0)"/>
<path d="" fill="#FFF3ED" transform="translate(0,0)"/>
<path d="" fill="#FFF2EE" transform="translate(0,0)"/>
<path d="" fill="#FFF3EE" transform="translate(0,0)"/>
<path d="" fill="#FFF3EE" transform="translate(0,0)"/>
<path d="" fill="#FFF3ED" transform="translate(0,0)"/>
<path d="" fill="#FEF3EE" transform="translate(0,0)"/>
<path d="" fill="#FFF3EE" transform="translate(0,0)"/>
<path d="" fill="#FFF3EE" transform="translate(0,0)"/>
<path d="" fill="#FFF2EE" transform="translate(0,0)"/>
<path d="" fill="#FEF2ED" transform="translate(0,0)"/>
<path d="" fill="#FFF3EE" transform="translate(0,0)"/>
<path d="" fill="#FFF3ED" transform="translate(0,0)"/>
<path d="" fill="#FFF3EE" transform="translate(0,0)"/>
<path d="" fill="#FFF3EE" transform="translate(0,0)"/>
<path d="" fill="#FFF3EE" transform="translate(0,0)"/>
<path d="" fill="#FFF2ED" transform="translate(0,0)"/>
<path d="" fill="#FFF3EE" transform="translate(0,0)"/>
<path d="" fill="#FFF3EE" transform="translate(0,0)"/>
<path d="" fill="#FFF3EE" transform="translate(0,0)"/>
<path d="" fill="#FFF2ED" transform="translate(0,0)"/>
<path d="" fill="#FFF2EE" transform="translate(0,0)"/>
<path d="" fill="#FEF3EE" transform="translate(0,0)"/>
<path d="" fill="#FFF2EE" transform="translate(0,0)"/>
<path d="" fill="#FFF3EE" transform="translate(0,0)"/>
<path d="" fill="#FFF2EE" transform="translate(0,0)"/>
<path d="" fill="#FFF3EE" transform="translate(0,0)"/>
<path d="" fill="#FFF3EE" transform="translate(0,0)"/>
<path d="" fill="#FFF3EE" transform="translate(0,0)"/>
<path d="" fill="#FEF2EE" transform="translate(0,0)"/>
<path d="" fill="#FFF2ED" transform="translate(0,0)"/>
<path d="" fill="#FFF3EE" transform="translate(0,0)"/>
<path d="" fill="#FFF2EE" transform="translate(0,0)"/>
<path d="" fill="#FFF3EE" transform="translate(0,0)"/>
<path d="" fill="#FFF2EE" transform="translate(0,0)"/>
<path d="" fill="#FFF2ED" transform="translate(0,0)"/>
<path d="" fill="#FFF2ED" transform="translate(0,0)"/>
<path d="" fill="#FFF3EE" transform="translate(0,0)"/>
<path d="" fill="#FFF3EE" transform="translate(0,0)"/>
<path d="" fill="#FFF3EE" transform="translate(0,0)"/>
<path d="" fill="#FFF3EE" transform="translate(0,0)"/>
<path d="" fill="#FFF3EE" transform="translate(0,0)"/>
<path d="" fill="#FFF3ED" transform="translate(0,0)"/>
<path d="" fill="#FFF2EE" transform="translate(0,0)"/>
<path d="" fill="#FFF2EE" transform="translate(0,0)"/>
<path d="" fill="#FFF3EE" transform="translate(0,0)"/>
<path d="" fill="#FFF3EE" transform="translate(0,0)"/>
<path d="" fill="#FFF3EE" transform="translate(0,0)"/>
<path d="" fill="#FFF2ED" transform="translate(0,0)"/>
<path d="" fill="#FEF3ED" transform="translate(0,0)"/>
<path d="" fill="#FFF2ED" transform="translate(0,0)"/>
<path d="" fill="#FFF3EE" transform="translate(0,0)"/>
<path d="" fill="#FFF3EE" transform="translate(0,0)"/>
<path d="" fill="#FFF3ED" transform="translate(0,0)"/>
<path d="" fill="#FFF3EE" transform="translate(0,0)"/>
<path d="" fill="#FFF3EE" transform="translate(0,0)"/>
<path d="" fill="#FFF3EE" transform="translate(0,0)"/>
<path d="" fill="#FFF3ED" transform="translate(0,0)"/>
<path d="" fill="#FFF3ED" transform="translate(0,0)"/>
<path d="" fill="#FFF3EE" transform="translate(0,0)"/>
<path d="" fill="#FFF2ED" transform="translate(0,0)"/>
<path d="" fill="#FEF2EE" transform="translate(0,0)"/>
<path d="" fill="#FFF3ED" transform="translate(0,0)"/>
<path d="" fill="#FFF2EE" transform="translate(0,0)"/>
<path d="" fill="#FEF2ED" transform="translate(0,0)"/>
<path d="" fill="#FFF3EE" transform="translate(0,0)"/>
<path d="" fill="#FFF3ED" transform="translate(0,0)"/>
<path d="" fill="#FFF3EE" transform="translate(0,0)"/>
<path d="" fill="#FFF3EE" transform="translate(0,0)"/>
<path d="" fill="#FEF2EE" transform="translate(0,0)"/>
<path d="" fill="#FFF3EE" transform="translate(0,0)"/>
<path d="" fill="#FFF3ED" transform="translate(0,0)"/>
<path d="" fill="#FFF2ED" transform="translate(0,0)"/>
<path d="" fill="#FFF2ED" transform="translate(0,0)"/>
<path d="" fill="#FFF2EE" transform="translate(0,0)"/>
<path d="" fill="#FFF2EE" transform="translate(0,0)"/>
<path d="" fill="#FEF3EE" transform="translate(0,0)"/>
<path d="" fill="#FFF3EE" transform="translate(0,0)"/>
<path d="" fill="#FFF3EE" transform="translate(0,0)"/>
<path d="" fill="#FFF3EE" transform="translate(0,0)"/>
<path d="" fill="#FFF2EE" transform="translate(0,0)"/>
<path d="" fill="#FFF2ED" transform="translate(0,0)"/>
<path d="" fill="#FFF2ED" transform="translate(0,0)"/>
<path d="" fill="#FEF2ED" transform="translate(0,0)"/>
<path d="" fill="#FEF3EE" transform="translate(0,0)"/>
<path d="" fill="#FFF3EE" transform="translate(0,0)"/>
<path d="" fill="#FFF2ED" transform="translate(0,0)"/>
<path d="" fill="#FFF3EE" transform="translate(0,0)"/>
<path d="" fill="#FEF2ED" transform="translate(0,0)"/>
<path d="" fill="#FFF2EE" transform="translate(0,0)"/>
<path d="" fill="#FFF3EE" transform="translate(0,0)"/>
<path d="" fill="#FFF2ED" transform="translate(0,0)"/>
<path d="" fill="#FFF3EE" transform="translate(0,0)"/>
<path d="" fill="#FFF2EE" transform="translate(0,0)"/>
<path d="" fill="#FFF3EE" transform="translate(0,0)"/>
<path d="" fill="#FFF3EE" transform="translate(0,0)"/>
<path d="" fill="#FFF2EE" transform="translate(0,0)"/>
<path d="" fill="#FFF3EE" transform="translate(0,0)"/>
<path d="" fill="#FFF3EE" transform="translate(0,0)"/>
<path d="" fill="#FFF2ED" transform="translate(0,0)"/>
<path d="" fill="#FFF3EE" transform="translate(0,0)"/>
<path d="" fill="#FFF3EE" transform="translate(0,0)"/>
<path d="" fill="#FFF3ED" transform="translate(0,0)"/>
<path d="" fill="#FFF3EE" transform="translate(0,0)"/>
<path d="" fill="#FFF3EE" transform="translate(0,0)"/>
<path d="" fill="#FFF3EE" transform="translate(0,0)"/>
<path d="" fill="#FFF3EE" transform="translate(0,0)"/>
<path d="" fill="#FFF3ED" transform="translate(0,0)"/>
<path d="" fill="#FFF2EE" transform="translate(0,0)"/>
<path d="" fill="#FFF2ED" transform="translate(0,0)"/>
<path d="" fill="#FFF3ED" transform="translate(0,0)"/>
<path d="" fill="#FFF3EE" transform="translate(0,0)"/>
<path d="" fill="#FFF3EE" transform="translate(0,0)"/>
<path d="" fill="#FFF3EE" transform="translate(0,0)"/>
<path d="" fill="#FFF2EE" transform="translate(0,0)"/>
<path d="" fill="#FEF2ED" transform="translate(0,0)"/>
<path d="" fill="#FFF3EE" transform="translate(0,0)"/>
<path d="" fill="#FFF3EE" transform="translate(0,0)"/>
<path d="" fill="#FFF3EE" transform="translate(0,0)"/>
<path d="" fill="#FFF3EE" transform="translate(0,0)"/>
<path d="" fill="#FFF2ED" transform="translate(0,0)"/>
<path d="" fill="#FFF3EE" transform="translate(0,0)"/>
<path d="" fill="#FFF3EE" transform="translate(0,0)"/>
<path d="" fill="#FFF2EE" transform="translate(0,0)"/>
<path d="" fill="#FFF2EE" transform="translate(0,0)"/>
<path d="" fill="#FFF3EE" transform="translate(0,0)"/>
<path d="" fill="#FFF3EE" transform="translate(0,0)"/>
<path d="" fill="#FFF3EE" transform="translate(0,0)"/>
<path d="" fill="#FFF2ED" transform="translate(0,0)"/>
<path d="" fill="#FFF3EE" transform="translate(0,0)"/>
<path d="" fill="#FEF2ED" transform="translate(0,0)"/>
<path d="" fill="#FFF3EE" transform="translate(0,0)"/>
</svg>
