<?xml version="1.0" encoding="UTF-8"?>
<svg version="1.1" xmlns="http://www.w3.org/2000/svg" width="550" height="550">
<path d="M0 0 C1.15407349 0.00054382 2.30814697 0.00108765 3.49719238 0.00164795 C20.91921759 0.03941551 37.67546285 0.64179679 54.75 4.375 C55.77786621 4.59462402 56.80573242 4.81424805 57.86474609 5.04052734 C106.06586195 15.60812652 151.00289452 38.04763624 187.06640625 71.87890625 C189.35284973 74.00559822 191.67987084 76.04572561 194.0625 78.0625 C197.30451222 80.87845723 200.09833041 83.90957053 202.8671875 87.1875 C204.16856164 88.69946996 205.51041213 90.17719302 206.8828125 91.625 C230.89862941 116.98823898 248.85209902 148.67628592 260.75 181.375 C261.02005859 182.10428711 261.29011719 182.83357422 261.56835938 183.58496094 C264.94729282 192.79985475 267.58575719 202.16111004 269.9375 211.6875 C270.17549316 212.63391357 270.41348633 213.58032715 270.65869141 214.55541992 C275.1420246 233.42657677 276.28461197 252.01731294 276.25097656 271.37329102 C276.25000897 275.27631611 276.29169709 279.17733689 276.3359375 283.08007812 C276.56606412 331.62858888 261.81488668 380.40794284 235.75 421.375 C234.71746094 423.00115234 234.71746094 423.00115234 233.6640625 424.66015625 C217.91407759 448.78315685 198.4340304 471.52378567 175.75 489.375 C174.65671354 490.25807744 173.5642997 491.14223606 172.47265625 492.02734375 C129.77248269 526.43415691 73.30020169 550.60658745 17.953125 550.7109375 C16.68063904 550.7175943 15.40815308 550.7242511 14.09710693 550.73110962 C11.41794713 550.74116686 8.73919393 550.74680295 6.06005859 550.74560547 C2.05144796 550.74536479 -1.95641311 550.78624985 -5.96484375 550.82421875 C-65.37434206 551.0846511 -125.49000913 529.48354188 -171.25 491.375 C-171.82508301 490.90143066 -172.40016602 490.42786133 -172.99267578 489.93994141 C-179.36277539 484.68950999 -185.53691462 479.34517422 -191.25 473.375 C-193.75673422 470.85166489 -196.27853013 468.34724797 -198.828125 465.8671875 C-214.04860436 450.95823842 -226.40380113 433.65945081 -237.25 415.375 C-237.6610498 414.68599609 -238.07209961 413.99699219 -238.49560547 413.28710938 C-252.55317749 389.50835029 -262.45724021 363.66408457 -268.5625 336.75 C-268.79291992 335.73969727 -269.02333984 334.72939453 -269.26074219 333.68847656 C-273.39815245 314.38663748 -274.79929442 295.39441214 -274.6875 275.6875 C-274.68445862 274.5464682 -274.68141724 273.4054364 -274.67828369 272.22982788 C-274.61152359 255.27884363 -273.92960973 238.97804877 -270.25 222.375 C-269.92854004 220.82401611 -269.92854004 220.82401611 -269.60058594 219.24169922 C-265.04594509 197.41986467 -257.98609062 176.43092058 -248.25 156.375 C-247.65711182 155.15031006 -247.65711182 155.15031006 -247.05224609 153.90087891 C-237.83846294 135.1053329 -226.48727771 117.59118965 -213.25 101.375 C-212.81574707 100.8392334 -212.38149414 100.3034668 -211.93408203 99.75146484 C-200.46011697 85.6803938 -187.68616898 72.41556472 -173.25 61.375 C-171.98866549 60.37485436 -170.72832541 59.37345388 -169.46875 58.37109375 C-132.18662327 28.95983375 -88.0806488 9.99043792 -41.25 2.375 C-39.55447998 2.09462891 -39.55447998 2.09462891 -37.82470703 1.80859375 C-25.25375757 -0.02443104 -12.68394856 -0.02242261 0 0 Z " fill="#FEF2ED" transform="translate(274.25,-0.375)"/>
<path d="M0 0 C2.0625 0.4375 2.0625 0.4375 4 1 C4.5698176 6.47024899 3.66907647 9.64916632 0.5625 14.203125 C-2.70131427 17.95651141 -7.06769059 20.21083049 -12 21 C-4.1232926 21.91589621 3.31500644 18.47193956 10.19140625 14.84375 C12.80041096 13.62659013 15.16616624 13.87118937 18 14 C20.84984298 18.65474354 22.7023817 22.70139194 24 28 C24.65484375 27.71125 25.3096875 27.4225 25.984375 27.125 C32.99425937 24.27352161 39.42178733 22.95389039 47 24 C47.99 24.99 47.99 24.99 49 26 C48.8125 29.5 48.8125 29.5 48 33 C45 35 45 35 42 35 C42 35.66 42 36.32 42 37 C42.87914062 37.11214844 43.75828125 37.22429687 44.6640625 37.33984375 C53.62672787 39.11348596 61.43429943 44.88899904 67 52 C71.33121699 58.56430903 71.86566007 65.28958586 71 73 C70.49956177 74.57890015 70.49956177 74.57890015 69.98901367 76.18969727 C68.94551544 80.2099088 68.7610969 83.84473153 68.83984375 87.95703125 C68.84832588 89.10358437 68.84832588 89.10358437 68.85697937 90.27330017 C68.86953046 91.92430136 68.88627184 93.57527501 68.90679932 95.22619629 C68.95970638 99.68322216 68.97343459 104.14036571 68.98828125 108.59765625 C68.99180603 109.5250058 68.99533081 110.45235535 68.9989624 111.4078064 C69.02374327 120.94629151 68.89185534 130.479654 68.68362427 140.01571655 C68.64495993 141.8190525 68.60962729 143.62246338 68.57785034 145.42593384 C68.41922938 154.27181642 68.19125455 162.86130044 66.41552734 171.56347656 C65.97141454 174.16761627 65.73176831 176.36635635 66 179 C66.73017334 179.97054321 66.73017334 179.97054321 67.47509766 180.96069336 C69.47497134 183.63519622 69.38710189 185.31486021 69.3984375 188.62890625 C69.40447998 189.73782227 69.41052246 190.84673828 69.41674805 191.98925781 C69.40297119 193.16842773 69.38919434 194.34759766 69.375 195.5625 C69.36702393 196.76874023 69.35904785 197.97498047 69.35083008 199.21777344 C68.86714882 229.95296218 68.86714882 229.95296218 61.34375 237.70703125 C55.78712449 241.03865205 50.40139721 242.21159262 44 243 C44.02320313 243.63164062 44.04640625 244.26328125 44.0703125 244.9140625 C44.22894073 252.77749062 43.33500762 260.25863504 42 268 C41.70802734 269.72089844 41.70802734 269.72089844 41.41015625 271.4765625 C38.45281385 286.98073624 31.74973425 301.87539863 23 315 C22.27112762 322.40556184 23.21785778 330.05343487 23.875 337.44140625 C23.96378418 338.48973129 24.05256836 339.53805634 24.14404297 340.6181488 C24.42499702 343.93332328 24.71179913 347.24794819 25 350.5625 C25.3798758 354.93840157 25.75399555 359.3147447 26.125 363.69140625 C26.21249512 364.67710098 26.29999023 365.66279572 26.39013672 366.67835999 C26.90923004 372.80221853 27.10560984 378.85488006 27 385 C27.845625 385.04898437 28.69125 385.09796875 29.5625 385.1484375 C35.94709185 385.56924014 41.85792595 386.19350763 48 388 C44.56335878 403.08849146 34.74565223 415.31034701 22.1640625 424.02734375 C7.97293134 432.87490083 -7.49482941 438.79616839 -23.8125 442.3125 C-24.55218018 442.47202148 -25.29186035 442.63154297 -26.05395508 442.79589844 C-53.20369695 448.21687169 -84.64876973 447.65809395 -108.38671875 431.828125 C-118.61068025 424.38785189 -128.87768626 415.36694123 -133 403 C-128.78378869 401.31351548 -124.77445929 399.91606245 -120.33569336 398.94677734 C-119.52410263 398.76883636 -118.7125119 398.59089539 -117.87632751 398.40756226 C-117.25713943 398.27306671 -116.63795135 398.13857117 -116 398 C-115.9498877 396.76588379 -115.89977539 395.53176758 -115.84814453 394.26025391 C-115.60888694 388.38176207 -115.36730125 382.5033671 -115.125 376.625 C-115.05880463 375.01682404 -115.05880463 375.01682404 -114.99127197 373.37615967 C-114.50170738 361.5199519 -113.99640782 349.6649266 -113.421875 337.8125 C-113.3756601 336.85846283 -113.32944519 335.90442566 -113.28182983 334.92147827 C-113.06208519 330.40787953 -112.83828509 325.89451526 -112.60986328 321.38134766 C-112.38592463 316.92164481 -112.18866196 312.46133289 -112 308 C-111.91903076 306.45916748 -111.91903076 306.45916748 -111.83642578 304.88720703 C-111.65528344 299.45805393 -112.6212126 295.48238656 -115.125 290.625 C-121.68028554 276.76108282 -125.65794023 262.2717146 -127 247 C-128.03898437 247.32355469 -129.07796875 247.64710938 -130.1484375 247.98046875 C-136.08418987 249.55169732 -142.12073696 250.10269648 -147.9375 247.875 C-156.73128314 239.88065169 -158.53564586 226.81226788 -159.20800781 215.50048828 C-159.3018393 211.87316054 -159.32218107 208.25346353 -159.3125 204.625 C-159.32861328 203.39394531 -159.34472656 202.16289062 -159.36132812 200.89453125 C-159.36197266 199.70472656 -159.36261719 198.51492187 -159.36328125 197.2890625 C-159.36626221 196.22381348 -159.36924316 195.15856445 -159.37231445 194.06103516 C-158.79722266 189.33283782 -157.00191326 186.05757511 -153.75 182.625 C-150.30418899 180.58883895 -147.93892665 180.87979801 -144 181 C-144.31227539 180.34104736 -144.62455078 179.68209473 -144.94628906 179.00317383 C-155.66138659 156.29406724 -162.25515181 140.59698033 -155.1875 115.5625 C-154.46661848 112.94043523 -153.75388013 110.31619017 -153.04296875 107.69140625 C-152.86886978 107.04999695 -152.69477081 106.40858765 -152.51539612 105.7477417 C-148.71263212 91.63280939 -148.71263212 91.63280939 -147.6875 77.125 C-147.68427734 76.444375 -147.68105469 75.76375 -147.67773438 75.0625 C-147.72963483 70.09892909 -148.69632624 65.78513205 -150 61 C-150.99368679 55.26708877 -151.14934964 49.49646337 -151.25 43.6875 C-151.27143066 42.99333984 -151.29286133 42.29917969 -151.31494141 41.58398438 C-151.33506349 38.51648394 -151.16775346 36.32049194 -149.734375 33.58203125 C-146.42018082 30.55894872 -142.1384444 30.78931672 -137.80761719 30.40649414 C-125.02580704 29.22548016 -116.46101513 26.54517584 -106.56616211 18.29370117 C-95.06356064 8.8993593 -82.86971352 4.09880524 -68 5 C-65.05232815 5.59965847 -62.21471176 6.38512947 -59.32421875 7.21484375 C-55.24869057 8.17745381 -51.22611187 8.55776819 -47.0625 8.9375 C-41.45334139 9.45884724 -36.4322921 10.30310625 -31.0625 12.125 C-24.0650196 14.4810243 -17.14148577 15.42766672 -10.0625 12.8125 C-5.05526918 9.84903686 -2.94114434 6.37547663 -1 1 C-0.67 0.67 -0.34 0.34 0 0 Z " fill="#FEA57B" transform="translate(310,35)"/>
<path d="M0 0 C13.52383284 1.15721175 26.62043521 3.59726616 39.89892578 6.36523438 C44.67201923 7.34224925 49.46058329 8.23219856 54.25 9.125 C74.54013497 12.95138969 74.54013497 12.95138969 79.19921875 14.9375 C83.45870434 16.5533718 87.86778957 17.40554165 92.3125 18.375 C101.58230278 20.4355553 110.80194859 22.64118739 120 25 C116.62075016 43.8081932 104.62243884 53.64514526 90 65 C88.99453125 65.79921875 87.9890625 66.5984375 86.953125 67.421875 C73.46521619 78.07131771 59.17138647 86.95174383 44 95 C43.33919434 95.35304199 42.67838867 95.70608398 41.99755859 96.06982422 C13.95179835 110.94354678 -15.24059361 118.84925633 -46.51635742 123.47998047 C-48.8190536 123.82371464 -51.11892404 124.18700725 -53.4152832 124.57080078 C-62.53786153 126.0333722 -71.47859745 126.31721076 -80.6875 126.25 C-81.8070961 126.24584579 -81.8070961 126.24584579 -82.9493103 126.24160767 C-93.6473605 126.19514848 -104.20797892 125.84710426 -114.80712891 124.30761719 C-117.152992 123.9785382 -119.50146512 123.7095989 -121.85546875 123.4453125 C-170.89353222 117.62548284 -219.51800639 96.16145638 -257 64 C-255.63215683 53.57019581 -246.20786451 44.14849165 -239 37 C-238.51901855 36.50967285 -238.03803711 36.0193457 -237.54248047 35.51416016 C-232.688622 30.91629778 -227.57471977 29.05487288 -221.25 27.125 C-220.30511719 26.81820313 -219.36023438 26.51140625 -218.38671875 26.1953125 C-211.49696568 24 -211.49696568 24 -208 24 C-207.505 22.515 -207.505 22.515 -207 21 C-205.4221875 20.87625 -205.4221875 20.87625 -203.8125 20.75 C-198.69553035 20.12865369 -193.9373747 18.5293005 -189.05078125 16.9375 C-186.37082251 16.11395314 -183.7572356 15.49108463 -181 15 C-180.59910156 15.67804688 -180.19820313 16.35609375 -179.78515625 17.0546875 C-167.84837936 36.59743787 -151.15684408 48.59043109 -129.1875 54.4375 C-97.65677264 61.93084394 -59.38939382 54.04741804 -31.4375 38.5625 C-15.88560972 28.83709255 -6.41478576 17.00547127 0 0 Z " fill="#FBE5BF" transform="translate(358,423)"/>
<path d="M0 0 C2.0625 0.4375 2.0625 0.4375 4 1 C4.5698176 6.47024899 3.66907647 9.64916632 0.5625 14.203125 C-2.70131427 17.95651141 -7.06769059 20.21083049 -12 21 C-4.1232926 21.91589621 3.31500644 18.47193956 10.19140625 14.84375 C12.80041096 13.62659013 15.16616624 13.87118937 18 14 C20.84984298 18.65474354 22.7023817 22.70139194 24 28 C24.65484375 27.71125 25.3096875 27.4225 25.984375 27.125 C32.99425937 24.27352161 39.42178733 22.95389039 47 24 C47.99 24.99 47.99 24.99 49 26 C48.8125 29.5 48.8125 29.5 48 33 C45 35 45 35 42 35 C42 35.66 42 36.32 42 37 C42.87914062 37.11214844 43.75828125 37.22429687 44.6640625 37.33984375 C53.62672787 39.11348596 61.43429943 44.88899904 67 52 C71.33121699 58.56430903 71.86566007 65.28958586 71 73 C70.49956177 74.57890015 70.49956177 74.57890015 69.98901367 76.18969727 C68.9455178 80.20989972 68.76106594 83.84473549 68.83984375 87.95703125 C68.84554382 88.72126404 68.8512439 89.48549683 68.8571167 90.27288818 C68.86974083 91.92375195 68.88652745 93.57458815 68.90707397 95.22537231 C68.95954018 99.68657812 68.97073107 104.14790818 68.984375 108.609375 C68.98769333 109.5373439 68.99101166 110.46531281 68.99443054 111.42140198 C69.01951694 120.89983841 68.92593406 130.37435772 68.73855591 139.85092163 C68.70498767 141.63373011 68.67641958 143.41664102 68.65328979 145.19961548 C68.50696209 156.15523686 67.59600614 166.33020418 65 177 C64.28352295 177.04608398 63.5670459 177.09216797 62.82885742 177.13964844 C57.75400817 177.48824582 54.23053807 177.95930076 50 181 C49.34 181 48.68 181 48 181 C47.96907761 180.33982376 47.93815521 179.67964752 47.90629578 178.99946594 C47.5794148 172.0707573 47.2358771 165.1430113 46.88305664 158.21557617 C46.75386204 155.63700687 46.62878462 153.05822762 46.50805664 150.47924805 C46.33285609 146.75245124 46.14240516 143.02668402 45.94921875 139.30078125 C45.89908127 138.1648201 45.84894379 137.02885895 45.79728699 135.85847473 C45.16702467 120.55510716 45.16702467 120.55510716 38.03125 107.6015625 C10.86653504 86.18322955 -32.17492399 68.53635553 -67 71 C-67.99 71.66 -68.98 72.32 -70 73 C-70 73.99 -70 74.98 -70 76 C-68.92878906 76.53109375 -67.85757813 77.0621875 -66.75390625 77.609375 C-65.35640279 78.32219556 -63.95928723 79.03577698 -62.5625 79.75 C-61.85544922 80.09804687 -61.14839844 80.44609375 -60.41992188 80.8046875 C-55.15887736 83.52331337 -55.15887736 83.52331337 -54.28881836 86.13378906 C-54.14585327 87.05756348 -54.14585327 87.05756348 -54 88 C-55.155 88.61875 -56.31 89.2375 -57.5 89.875 C-58.1496875 90.22304687 -58.799375 90.57109375 -59.46875 90.9296875 C-66.67977696 93.97879458 -73.27976299 94.26343184 -81 94.125 C-81.96550781 94.11597656 -82.93101562 94.10695313 -83.92578125 94.09765625 C-86.28412099 94.07430635 -88.64192286 94.04156047 -91 94 C-91.23074219 94.60328125 -91.46148437 95.2065625 -91.69921875 95.828125 C-94.05239915 101.59481215 -96.02270437 105.18723975 -101.91015625 107.87060547 C-104.83411112 109.07747727 -107.79243834 110.17781632 -110.76171875 111.26757812 C-117.51535335 113.87938195 -121.5999704 117.51198718 -125 124 C-125.72188434 126.96913508 -125.72188434 126.96913508 -126.0546875 130.28515625 C-126.13097382 130.92050797 -126.20726013 131.55585968 -126.28585815 132.21046448 C-127.48017596 142.59296721 -128.26889196 153.02309547 -129.125 163.4375 C-129.30825609 165.63349175 -129.49184739 167.82945554 -129.67578125 170.02539062 C-130.12104818 175.34994477 -130.56219293 180.67482755 -131 186 C-131.75224854 185.69352539 -132.50449707 185.38705078 -133.27954102 185.07128906 C-135.33516305 184.26180602 -137.42525196 183.53912118 -139.52734375 182.859375 C-144.08419334 180.41948703 -145.39147638 177.79986827 -147.5625 173.25 C-148.12710938 172.12513184 -148.12710938 172.12513184 -148.703125 170.97753906 C-158.26555023 151.58343944 -161.17040501 136.75467554 -155.1875 115.5625 C-154.46661848 112.94043523 -153.75388013 110.31619017 -153.04296875 107.69140625 C-152.86886978 107.04999695 -152.69477081 106.40858765 -152.51539612 105.7477417 C-148.71263212 91.63280939 -148.71263212 91.63280939 -147.6875 77.125 C-147.68427734 76.444375 -147.68105469 75.76375 -147.67773438 75.0625 C-147.72963483 70.09892909 -148.69632624 65.78513205 -150 61 C-150.99368679 55.26708877 -151.14934964 49.49646337 -151.25 43.6875 C-151.27143066 42.99333984 -151.29286133 42.29917969 -151.31494141 41.58398438 C-151.33506349 38.51648394 -151.16775346 36.32049194 -149.734375 33.58203125 C-146.42018082 30.55894872 -142.1384444 30.78931672 -137.80761719 30.40649414 C-125.02580704 29.22548016 -116.46101513 26.54517584 -106.56616211 18.29370117 C-95.06356064 8.8993593 -82.86971352 4.09880524 -68 5 C-65.05232815 5.59965847 -62.21471176 6.38512947 -59.32421875 7.21484375 C-55.24869057 8.17745381 -51.22611187 8.55776819 -47.0625 8.9375 C-41.45334139 9.45884724 -36.4322921 10.30310625 -31.0625 12.125 C-24.0650196 14.4810243 -17.14148577 15.42766672 -10.0625 12.8125 C-5.05526918 9.84903686 -2.94114434 6.37547663 -1 1 C-0.67 0.67 -0.34 0.34 0 0 Z " fill="#513736" transform="translate(310,35)"/>
<path d="M0 0 C14.19095869 1.35151988 14.19095869 1.35151988 20.12109375 3.91796875 C24.41228717 5.53080535 28.83956341 6.3993851 33.3125 7.375 C42.58230278 9.4355553 51.80194859 11.64118739 61 14 C57.62075016 32.8081932 45.62243884 42.64514526 31 54 C29.99453125 54.79921875 28.9890625 55.5984375 27.953125 56.421875 C14.46521619 67.07131771 0.17138647 75.95174383 -15 84 C-15.66080566 84.35304199 -16.32161133 84.70608398 -17.00244141 85.06982422 C-45.04820165 99.94354678 -74.24059361 107.84925633 -105.51635742 112.47998047 C-107.8190536 112.82371464 -110.11892404 113.18700725 -112.4152832 113.57080078 C-121.53786153 115.0333722 -130.47859745 115.31721076 -139.6875 115.25 C-140.8070961 115.24584579 -140.8070961 115.24584579 -141.9493103 115.24160767 C-152.6473605 115.19514848 -163.20797892 114.84710426 -173.80712891 113.30761719 C-176.152992 112.9785382 -178.50146512 112.7095989 -180.85546875 112.4453125 C-229.89353222 106.62548284 -278.51800639 85.16145638 -316 53 C-314.63215683 42.57019581 -305.20786451 33.14849165 -298 26 C-297.27852783 25.26450928 -297.27852783 25.26450928 -296.54248047 24.51416016 C-291.688622 19.91629778 -286.57471977 18.05487288 -280.25 16.125 C-279.30511719 15.81820313 -278.36023438 15.51140625 -277.38671875 15.1953125 C-270.49696568 13 -270.49696568 13 -267 13 C-266.67 12.01 -266.34 11.02 -266 10 C-263.525 11.485 -263.525 11.485 -261 13 C-262.42657647 17.71421972 -264.41780344 21.96134415 -266.6875 26.3125 C-269.67904615 32.18292547 -272.45387629 38.11006237 -275 44.1875 C-275.30252686 44.89366455 -275.60505371 45.5998291 -275.91674805 46.32739258 C-278.20840999 51.54217248 -278.20840999 51.54217248 -278 57 C-275.72746947 59.01555501 -273.65946137 60.56604515 -271.125 62.1875 C-270.40610596 62.6616333 -269.68721191 63.1357666 -268.9465332 63.62426758 C-245.37888556 78.92836416 -221.34060915 87.8158112 -194.00390625 93.94921875 C-193.20799072 94.12799561 -192.4120752 94.30677246 -191.59204102 94.4909668 C-185.71158206 95.6457899 -179.93853802 96.18259943 -173.953125 96.2734375 C-173.19272415 96.28605621 -172.4323233 96.29867493 -171.64888 96.31167603 C-118.11651938 97.02575337 -70.00803886 78.97181378 -31.29101562 41.33886719 C-18.9531719 28.93653996 -9.23088509 14.79220845 0 0 Z " fill="#FBE5BF" transform="translate(417,434)"/>
<path d="M0 0 C0.33 0 0.66 0 1 0 C0.96777344 1.02738281 0.93554688 2.05476563 0.90234375 3.11328125 C0.87295389 12.10440089 1.86916687 17.60173774 8.29296875 24.359375 C9.18628906 25.23078125 10.07960937 26.1021875 11 27 C11.917223 27.98021818 12.82988667 28.96471972 13.73828125 29.953125 C28.28228854 45.49870312 46.26959906 56.82380595 67 62 C67.66628418 62.17515137 68.33256836 62.35030273 69.01904297 62.53076172 C86.02238162 66.72454447 103.19549679 64.50043157 118.35546875 55.77734375 C124.31110697 51.77466223 133.03189262 45.87748754 134.51171875 38.421875 C134.59873047 37.09929687 134.59873047 37.09929687 134.6875 35.75 C134.78611328 34.41195312 134.78611328 34.41195312 134.88671875 33.046875 C134.92410156 32.37140625 134.96148437 31.6959375 135 31 C135.33 31 135.66 31 136 31 C136.4327287 35.94338827 136.85974419 40.88722674 137.28173828 45.83154297 C137.42572102 47.50940891 137.5711963 49.18714754 137.71826172 50.86474609 C138.48264434 59.59534756 139.21442731 68.22634934 139 77 C140.2684375 77.07347656 140.2684375 77.07347656 141.5625 77.1484375 C147.94709185 77.56924014 153.85792595 78.19350763 160 80 C156.56335878 95.08849146 146.74565223 107.31034701 134.1640625 116.02734375 C119.97293134 124.87490083 104.50517059 130.79616839 88.1875 134.3125 C87.44781982 134.47202148 86.70813965 134.63154297 85.94604492 134.79589844 C58.79630305 140.21687169 27.35123027 139.65809395 3.61328125 123.828125 C-6.61068025 116.38785189 -16.87768626 107.36694123 -21 95 C-16.78378869 93.31351548 -12.77445929 91.91606245 -8.33569336 90.94677734 C-7.52410263 90.76883636 -6.7125119 90.59089539 -5.87632751 90.40756226 C-4.94754539 90.20581894 -4.94754539 90.20581894 -4 90 C-3.9498877 88.76588379 -3.89977539 87.53176758 -3.84814453 86.26025391 C-2.67755964 57.50106371 -1.41110391 28.74840631 0 0 Z " fill="#FEA67C" transform="translate(198,343)"/>
<path d="M0 0 C3.96 0.495 3.96 0.495 8 1 C-0.71783742 24.78786795 -22.54308509 46.57840298 -42 62 C-42.96550781 62.7940625 -43.93101562 63.588125 -44.92578125 64.40625 C-69.83998045 84.41358659 -100.67646351 97.34052824 -132 103 C-132.93126709 103.17587646 -133.86253418 103.35175293 -134.82202148 103.53295898 C-143.90525134 105.10857091 -152.87211265 105.44018757 -162.0625 105.4375 C-162.84358124 105.4385675 -163.62466248 105.43963501 -164.42941284 105.44073486 C-186.32025124 105.39791034 -207.4544206 101.65819676 -228 94 C-228.70592285 93.73993164 -229.4118457 93.47986328 -230.13916016 93.21191406 C-245.44309668 87.48039165 -260.10118155 80.01336561 -273.53125 70.6953125 C-276.59318489 68.59265468 -279.74118138 66.77753743 -283 65 C-283.99 67.64 -284.98 70.28 -286 73 C-290.366494 71.9083765 -293.40143642 69.98384745 -297.0625 67.5 C-298.04972046 66.83701904 -298.04972046 66.83701904 -299.05688477 66.16064453 C-304.99892991 62.11281991 -310.54943301 57.6913404 -316 53 C-314.63215683 42.57019581 -305.20786451 33.14849165 -298 26 C-297.27852783 25.26450928 -297.27852783 25.26450928 -296.54248047 24.51416016 C-291.688622 19.91629778 -286.57471977 18.05487288 -280.25 16.125 C-279.30511719 15.81820313 -278.36023438 15.51140625 -277.38671875 15.1953125 C-270.49696568 13 -270.49696568 13 -267 13 C-266.67 12.01 -266.34 11.02 -266 10 C-263.525 11.485 -263.525 11.485 -261 13 C-262.42657647 17.71421972 -264.41780344 21.96134415 -266.6875 26.3125 C-269.67904615 32.18292547 -272.45387629 38.11006237 -275 44.1875 C-275.30252686 44.89366455 -275.60505371 45.5998291 -275.91674805 46.32739258 C-278.20840999 51.54217248 -278.20840999 51.54217248 -278 57 C-275.72746947 59.01555501 -273.65946137 60.56604515 -271.125 62.1875 C-270.40610596 62.6616333 -269.68721191 63.1357666 -268.9465332 63.62426758 C-245.37888556 78.92836416 -221.34060915 87.8158112 -194.00390625 93.94921875 C-193.20799072 94.12799561 -192.4120752 94.30677246 -191.59204102 94.4909668 C-185.71158206 95.6457899 -179.93853802 96.18259943 -173.953125 96.2734375 C-173.19272415 96.28605621 -172.4323233 96.29867493 -171.64888 96.31167603 C-118.11651938 97.02575337 -70.00803886 78.97181378 -31.29101562 41.33886719 C-18.9531719 28.93653996 -9.23088509 14.79220845 0 0 Z " fill="#ECC391" transform="translate(417,434)"/>
<path d="M0 0 C2.55332424 2.4783315 4.48390057 5.0612788 6.5 8 C18.76700292 24.90616039 37.12455876 38.22863996 57.8671875 42.53515625 C63.64485197 43.33316787 69.49056268 43.28422052 75.3125 43.3125 C76.43422607 43.31813965 77.55595215 43.3237793 78.71166992 43.32958984 C96.22536539 43.17560608 112.094294 36.03932212 124.5625 23.75 C127.01139061 21.22666311 129.04685335 18.92971997 131 16 C131.66 16 132.32 16 133 16 C133.85111776 22.8585906 134.33732246 29.65322346 134.5 36.5625 C134.55414063 37.55185547 134.60828125 38.54121094 134.6640625 39.56054688 C134.76626733 45.0613569 134.33599885 48.28952934 130.6640625 52.5234375 C129.46849695 53.70887918 128.24802 54.8699137 127 56 C126.44473633 56.5475293 125.88947266 57.09505859 125.31738281 57.65917969 C113.67483753 68.98642246 98.75954405 72.50940418 83.11889648 72.42211914 C54.96446097 71.66132328 31.70445124 56.69578279 12.1875 37.4375 C11.66019287 36.91961914 11.13288574 36.40173828 10.58959961 35.86816406 C9.01597414 34.2813733 7.50401359 32.65278847 6 31 C5.43667969 30.41879395 4.87335938 29.83758789 4.29296875 29.23876953 C-0.74913181 23.48167771 -0.73737861 18.42411571 -0.375 11 C-0.34792969 9.93910156 -0.32085937 8.87820313 -0.29296875 7.78515625 C-0.22277383 5.18794421 -0.12451781 2.59507895 0 0 Z " fill="#D86742" transform="translate(199,336)"/>
<path d="M0 0 C9.81792151 2.25020224 19.58784658 4.62668281 29.3137207 7.2487793 C34.51430718 8.64279168 39.73531966 9.87207646 45 11 C41.4867091 29.82464387 29.69605828 39.58797709 15 51 C13.99453125 51.79921875 12.9890625 52.5984375 11.953125 53.421875 C1.02240073 62.05228046 -10.41120714 69.69180243 -22.5625 76.5 C-23.68724731 77.13228516 -23.68724731 77.13228516 -24.8347168 77.77734375 C-28.80798088 79.95962048 -32.62249324 81.72754938 -37 83 C-35.88614013 75.05596525 -34.20478113 67.67448412 -31.5 60.125 C-31.15106689 59.14249268 -30.80213379 58.15998535 -30.44262695 57.14770508 C-22.9638095 36.55588519 -13.39262181 17.38721767 0 0 Z " fill="#5EA795" transform="translate(433,437)"/>
<path d="M0 0 C2.97 0 5.94 0 9 0 C9.86699461 15.605903 1.09101412 31.54181622 -9 43 C-9.63035156 43.78375 -10.26070312 44.5675 -10.91015625 45.375 C-21.116183 57.58407872 -34.5483823 65.72524795 -49 72 C-49.78616699 72.34160156 -50.57233398 72.68320312 -51.38232422 73.03515625 C-81.94545611 86.03513073 -115.60666892 90.47362136 -148 82 C-148.76183594 81.80164551 -149.52367187 81.60329102 -150.30859375 81.39892578 C-166.99086291 76.85611548 -184.31388914 68.93383474 -197 57 C-195.58208437 54.06553114 -194.01667393 51.56667591 -192 49 C-188.94816994 50.40339631 -186.21906619 52.14808698 -183.43505859 54.02026367 C-156.90684669 71.73909311 -123.91905766 79.45244111 -92.27905273 73.87036133 C-88.15083488 73.04128541 -84.07359104 72.06382964 -80 71 C-79.15276367 70.78037598 -78.30552734 70.56075195 -77.43261719 70.33447266 C-66.05170817 67.31054929 -55.43234284 63.46227387 -45 58 C-43.39705078 57.16662109 -43.39705078 57.16662109 -41.76171875 56.31640625 C-35.39151487 52.81157997 -30.181492 48.78270827 -24.9609375 43.72265625 C-23 42 -23 42 -21 42 C-20.58814453 41.1028125 -20.58814453 41.1028125 -20.16796875 40.1875 C-19.04945978 38.0926337 -17.9374156 36.70950024 -16.3125 35 C-7.55935647 24.98417806 -2.89964819 12.80677953 0 0 Z " fill="#E0A86F" transform="translate(374,428)"/>
<path d="M0 0 C2.475 1.485 2.475 1.485 5 3 C3.62870171 7.50959289 1.75904595 11.53901844 -0.4375 15.6875 C-4.31443379 23.2171351 -7.56707485 30.96777421 -10.75 38.8125 C-11.20947021 39.94453857 -11.66894043 41.07657715 -12.14233398 42.24291992 C-14.90353873 49.11303041 -17.5204298 56.02335924 -20 63 C-24.2915968 62.09859537 -27.4784517 59.93159646 -31.0625 57.5 C-32.04972046 56.83701904 -32.04972046 56.83701904 -33.05688477 56.16064453 C-38.99892991 52.11281991 -44.54943301 47.6913404 -50 43 C-48.63215683 32.57019581 -39.20786451 23.14849165 -32 16 C-31.51901855 15.50967285 -31.03803711 15.0193457 -30.54248047 14.51416016 C-25.688622 9.91629778 -20.57471977 8.05487288 -14.25 6.125 C-13.30511719 5.81820313 -12.36023438 5.51140625 -11.38671875 5.1953125 C-4.49696568 3 -4.49696568 3 -1 3 C-0.67 2.01 -0.34 1.02 0 0 Z " fill="#5EA796" transform="translate(151,444)"/>
<path d="M0 0 C2 3 2 3 1.75634766 4.98046875 C0.2641687 8.96475033 -2.50016275 12.3997851 -4.9375 15.8671875 C-7.34178638 19.16929533 -7.34178638 19.16929533 -7.7722168 23.06347656 C-6.51821533 26.20819348 -3.84180932 27.81461334 -1.1875 29.75 C-0.59565918 30.19045654 -0.00381836 30.63091309 0.60595703 31.0847168 C2.39392295 32.40431494 4.19429654 33.70481491 6 35 C6.89847656 35.65097656 7.79695313 36.30195313 8.72265625 36.97265625 C67.60012148 77.8140202 141.92506355 93.53366431 212.27255249 81.061203 C221.60304485 79.36450797 230.84230058 77.47124304 240 75 C240.78761719 74.78794922 241.57523437 74.57589844 242.38671875 74.35742188 C256.13086499 70.55222436 269.07319378 64.97214594 282 59 C283.11568359 58.48566406 283.11568359 58.48566406 284.25390625 57.9609375 C302.07645575 49.64149314 318.60866492 39.21673538 334 27 C334.99386719 26.21882813 335.98773438 25.43765625 337.01171875 24.6328125 C345.78914341 17.59584722 354.08958197 9.9967135 362 2 C362.99 2.33 363.98 2.66 365 3 C357.02418365 11.18539985 349.03049147 18.96519725 340 26 C338.91013941 26.87857473 337.82166308 27.75886862 336.734375 28.640625 C294.04628224 63.06240387 237.54597719 87.23159542 182.203125 87.3359375 C180.29439606 87.3459227 180.29439606 87.3459227 178.34710693 87.35610962 C175.66794713 87.36616686 172.98919393 87.37180295 170.31005859 87.37060547 C166.30144796 87.37036479 162.29358689 87.41124985 158.28515625 87.44921875 C98.79022142 87.71002563 38.8694767 66.05423165 -7 28 C-7.54317871 27.5757373 -8.08635742 27.15147461 -8.64599609 26.71435547 C-11.64167984 24.33971707 -13.41582504 22.44294025 -15 19 C-16.90372687 17.14205712 -16.90372687 17.14205712 -19.0625 15.4375 C-22.89008264 12.32975207 -22.89008264 12.32975207 -24 9 C-20.94516699 7.4840072 -17.88002094 5.99013052 -14.8125 4.5 C-13.94818359 4.07074219 -13.08386719 3.64148438 -12.19335938 3.19921875 C-11.35224609 2.79316406 -10.51113281 2.38710938 -9.64453125 1.96875 C-8.48981323 1.40317383 -8.48981323 1.40317383 -7.31176758 0.82617188 C-4.66385046 -0.12013201 -2.78906147 -0.37098047 0 0 Z " fill="#FEF1E9" transform="translate(110,463)"/>
<path d="M0 0 C0.94101562 0.4846875 1.88203125 0.969375 2.8515625 1.46875 C9.85134641 5.31768779 16.227225 9.98691848 22.69750977 14.64428711 C32.72235318 21.76937309 42.83002289 27.41990905 55.375 27.125 C56.11105469 27.11597656 56.84710938 27.10695312 57.60546875 27.09765625 C59.4037888 27.07430144 61.20193911 27.03843836 63 27 C63.495 29.475 63.495 29.475 64 32 C58.40630167 35.72913222 50.51119303 34.89001919 44 34 C32.72669779 31.22221649 23.19808578 24.04354091 13.93164062 17.37548828 C-1.12352497 6.65496212 -14.38463477 -0.26969343 -33.5625 2.875 C-35.37694702 3.24046309 -37.18954558 3.61524549 -39 4 C-40.99081572 4.38440065 -42.99060381 4.72900539 -45 5 C-46 4 -46 4 -46.0625 1.4375 C-46.041875 0.633125 -46.02125 -0.17125 -46 -1 C-32.32754761 -8.32686444 -13.39534096 -7.1931146 0 0 Z " fill="#3A2624" transform="translate(289,82)"/>
<path d="M0 0 C1.32 0.66 2.64 1.32 4 2 C3.67 3.98 3.34 5.96 3 8 C4.09054688 8.18175781 4.09054688 8.18175781 5.203125 8.3671875 C6.71132812 8.61855469 6.71132812 8.61855469 8.25 8.875 C9.36246094 9.05546875 10.47492188 9.2359375 11.62109375 9.421875 C13.64132141 9.76753245 15.65732364 10.14285448 17.66015625 10.578125 C24.62490864 12.01415642 31.47612973 12.21263478 38.5625 12.25 C39.52003174 12.25918457 40.47756348 12.26836914 41.46411133 12.27783203 C52.85085817 12.22909991 62.32528683 9.80972833 72.69921875 5.30273438 C79.62938654 2.42414136 79.62938654 2.42414136 84 4 C84 5.32 84 6.64 84 8 C57.3333574 20.85985857 32.73397209 21.3439519 4 15 C2.33406173 14.66304515 0.66784883 14.32736702 -1 14 C-1.33 15.32 -1.66 16.64 -2 18 C-3.65 17.67 -5.3 17.34 -7 17 C-6.46258519 10.55102226 -4.67458824 4.67458824 0 0 Z " fill="#D96943" transform="translate(238,276)"/>
<path d="M0 0 C2.475 0.99 2.475 0.99 5 2 C4.40978177 6.16205615 1.98923554 9.1000188 -0.375 12.4375 C-13.25283867 31.2784296 -22.94810447 52.51819493 -28.19091797 74.76074219 C-29.07022758 78.16141509 -29.7067084 79.77173274 -32.51953125 81.9609375 C-35 83 -35 83 -37 83 C-35.88614013 75.05596525 -34.20478113 67.67448412 -31.5 60.125 C-31.15106689 59.14249268 -30.80213379 58.15998535 -30.44262695 57.14770508 C-22.9638095 36.55588519 -13.39262181 17.38721767 0 0 Z " fill="#2A8165" transform="translate(433,437)"/>
<path d="M0 0 C2.0625 0.4375 2.0625 0.4375 4 1 C4.5698176 6.47024899 3.66907647 9.64916632 0.5625 14.203125 C-2.75281629 18.01573873 -7.05741421 20.07326516 -12 21 C-19.81018344 21.54200363 -26.98345666 21.66350286 -34.4375 19 C-39.77830923 17.11264636 -44.45560483 16.61547155 -50.0625 16.625 C-50.78945068 16.62371094 -51.51640137 16.62242188 -52.26538086 16.62109375 C-56.05381734 16.69926995 -58.71633647 17.13236853 -62 19 C-64.75 18.625 -64.75 18.625 -67 18 C-66.8125 15.6875 -66.8125 15.6875 -66 13 C-59.43142822 8.02918892 -51.90735406 8.49154486 -44 9 C-38.67527533 9.97852935 -33.56874434 11.47708522 -28.4375 13.1875 C-20.92317399 14.96361342 -13.72611496 14.98076192 -7 11 C-4.00564291 7.92471434 -2.44776481 5.00919486 -1 1 C-0.67 0.67 -0.34 0.34 0 0 Z " fill="#3C2826" transform="translate(310,35)"/>
<path d="M0 0 C2.5 0.125 2.5 0.125 3.5 1.125 C3.69586428 9.10438586 0.93535881 15.771444 -2.25 22.9375 C-3.16133668 25.05287726 -4.07150327 27.16875902 -4.98046875 29.28515625 C-5.41665527 30.29078613 -5.8528418 31.29641602 -6.30224609 32.33251953 C-11.87741864 45.22851267 -11.87741864 45.22851267 -13.625 59 C-13.62757813 60.19367188 -13.63015625 61.38734375 -13.6328125 62.6171875 C-13.58821878 66.11323339 -13.58821878 66.11323339 -12.8671875 69.4453125 C-12.74601563 70.32960938 -12.62484375 71.21390625 -12.5 72.125 C-13.49 73.115 -13.49 73.115 -14.5 74.125 C-16.515625 73.99609375 -16.515625 73.99609375 -18.5 73.125 C-23.29200319 65.27541268 -22.06200247 55.72495543 -20.0625 47.25 C-17.8553391 39.03250466 -14.19873199 31.44699522 -10.625 23.75390625 C-7.18785581 16.34218984 -4.38524705 9.26927285 -3.5 1.125 C-2.5 0.125 -2.5 0.125 0 0 Z " fill="#3A2624" transform="translate(180.5,101.875)"/>
<path d="M0 0 C2.1875 0 2.1875 0 5 1 C10.24112669 7.23872751 12.61073226 14.38106251 12.35546875 22.4765625 C11.73026057 26.9148535 10.22261753 29.87829951 7 33 C1.53042316 36.47990751 -4.39113132 38.79058602 -10.4375 41.0625 C-14.61510668 42.7094411 -17.28185096 44.29343313 -20 48 C-21.22101468 50.94830373 -22.17441491 53.91915807 -23 57 C-25.475 57.495 -25.475 57.495 -28 58 C-29.67655066 54.64689868 -29.50033031 51.59978227 -28.38671875 48.0390625 C-24.43541758 38.95281048 -17.00194903 35.82974105 -8.25 32.375 C-7.50468018 32.097771 -6.75936035 31.82054199 -5.99145508 31.53491211 C-1.89202357 29.97351031 1.35348672 28.68062644 4 25 C5.32248096 19.20844545 4.46761744 14.17801707 1.4375 9.125 C0.96183594 8.44695312 0.48617187 7.76890625 -0.00390625 7.0703125 C-1.30780006 4.36025869 -0.82265494 2.82756848 0 0 Z " fill="#3A2624" transform="translate(204,89)"/>
<path d="M0 0 C13.29981851 1.72497646 27.12212666 8.6178347 35.55859375 19.01171875 C40.350261 25.62136274 41.00961353 32.07129194 40 40 C36.25932066 53.87347739 36.25932066 53.87347739 32 57 C29.8125 56.6875 29.8125 56.6875 28 56 C27.25 54.4375 27.25 54.4375 27 52 C27.94369678 50.24277151 28.89664847 48.48814954 29.94140625 46.7890625 C33.07277628 41.49693161 33.99057079 35.98549966 32.5 29.98828125 C29.84406968 22.06576183 25.54489975 17.85363634 18.2578125 14.08984375 C12.92170724 11.51411128 7.577273 9.47018472 1.91796875 7.74609375 C0 7 0 7 -2 5 C-1.46428571 1.46428571 -1.46428571 1.46428571 0 0 Z " fill="#3E2A28" transform="translate(341,68)"/>
<path d="M0 0 C1.32 0.33 2.64 0.66 4 1 C5.63522777 5.0417894 4.22423884 8.46193918 3.0625 12.4375 C-1.60037373 29.94706666 3.04923949 45.18374968 9.046875 61.6953125 C9.99424313 64.98003971 10.18581875 67.60364617 10 71 C8.125 71.625 8.125 71.625 6 72 C3.91623147 69.91623147 3.49383438 68.94341009 2.6328125 66.2109375 C2.26663818 65.05803223 2.26663818 65.05803223 1.89306641 63.88183594 C1.63960449 63.05458008 1.38614258 62.22732422 1.125 61.375 C0.86251465 60.52196289 0.6000293 59.66892578 0.32958984 58.79003906 C-0.45881269 56.19674927 -1.23176533 53.59932804 -2 51 C-2.22042969 50.26749023 -2.44085938 49.53498047 -2.66796875 48.78027344 C-7.32866075 33.05414868 -7.87030509 16.73248931 -0.8671875 1.54296875 C-0.58101563 1.03378906 -0.29484375 0.52460938 0 0 Z " fill="#D96943" transform="translate(291,173)"/>
<path d="M0 0 C2.475 1.485 2.475 1.485 5 3 C3.62870171 7.50959289 1.75904595 11.53901844 -0.4375 15.6875 C-4.31443379 23.2171351 -7.56707485 30.96777421 -10.75 38.8125 C-11.20947021 39.94453857 -11.66894043 41.07657715 -12.14233398 42.24291992 C-14.90353873 49.11303041 -17.5204298 56.02335924 -20 63 C-22.16874252 62.49396008 -23.99967627 62.00016187 -26 61 C-23.93133807 53.63499817 -21.40704496 46.53668686 -18.5625 39.4375 C-18.13654541 38.37208984 -17.71059082 37.30667969 -17.27172852 36.20898438 C-4.28811616 4.28811616 -4.28811616 4.28811616 0 0 Z " fill="#298165" transform="translate(151,444)"/>
<path d="M0 0 C2.96062986 1.82737441 4.09083962 2.60797381 5.14453125 5.95703125 C5.19996094 6.73433594 5.25539062 7.51164063 5.3125 8.3125 C3.71709925 9.90790075 1.99901293 9.49611942 -0.2109375 9.55859375 C-1.14462158 9.59025635 -2.07830566 9.62191895 -3.0402832 9.65454102 C-4.03761475 9.68604248 -5.03494629 9.71754395 -6.0625 9.75 C-12.99180959 10.00668216 -19.62289621 10.41883655 -26.4140625 11.90234375 C-30.19056953 12.58367234 -33.86122613 12.4379516 -37.6875 12.3125 C-34.99055039 5.8737093 -28.40816581 1.96864889 -22.375 -1.125 C-14.69968327 -4.18710371 -7.24320261 -4.0044563 0 0 Z " fill="#563A38" transform="translate(242.6875,172.6875)"/>
<path d="M0 0 C5.64117342 0 8.9929025 0.39375611 13.1875 4.3125 C21.83596346 14.0830196 24.88530448 25.18277593 25 38 C24.34 38.66 23.68 39.32 23 40 C20.875 39.625 20.875 39.625 19 39 C18.49564306 37.0636296 17.99666126 35.12585854 17.5 33.1875 C17.08234375 31.56908203 17.08234375 31.56908203 16.65625 29.91796875 C16 27 16 27 16 24 C11.48864333 26.19471406 9.93726652 28.41173718 8 33 C6.35 33 4.7 33 3 33 C2.64042238 29.22443495 2.88272169 27.23004592 4.625 23.8125 C7.19558953 20.76838082 9.34287098 19.49609823 13 18 C11.13457154 12.89461686 9.71702562 10.03237361 5 7 C2.3205355 5.75983331 2.3205355 5.75983331 0 5 C0 3.35 0 1.7 0 0 Z " fill="#D86843" transform="translate(159,236)"/>
<path d="M0 0 C3.18376245 1.11431686 3.86430932 1.92608337 5.5 4.875 C5.79526038 7.73786779 5.91942155 10.33218167 5.875 13.1875 C5.88660156 13.92162109 5.89820313 14.65574219 5.91015625 15.41210938 C5.88324586 20.46677786 5.28338514 26.09161486 1.5 29.875 C-0.75 30.3125 -0.75 30.3125 -3.5 29.875 C-9.27442057 23.83810577 -9.84304739 20.28997399 -9.7890625 12.15625 C-9.39007599 7.62721391 -8.27279359 5.44002034 -5.5 1.875 C-2.5 -0.125 -2.5 -0.125 0 0 Z " fill="#692F28" transform="translate(321.5,199.125)"/>
<path d="M0 0 C2.625 0.4375 2.625 0.4375 4.76171875 2.4765625 C7.06154653 6.13121545 7.19847747 9.06649175 7.0625 13.25 C7.04783691 13.95906494 7.03317383 14.66812988 7.01806641 15.39868164 C6.82504922 20.74845421 6.42791077 24.85941241 3.625 29.4375 C0.75 30.8125 0.75 30.8125 -2.375 30.4375 C-7.35099607 25.57208162 -8.53875385 21.9125217 -8.6875 15.125 C-8.65301742 8.93192862 -7.27394833 1.33993785 0 0 Z " fill="#682F28" transform="translate(228.375,199.5625)"/>
<path d="M0 0 C6.36005132 2.93769089 11.84040292 6.98040125 16.57421875 12.16015625 C16.57421875 12.82015625 16.57421875 13.48015625 16.57421875 14.16015625 C11.78497343 14.34012789 7.22986439 14.47218341 2.57421875 13.22265625 C-4.87208214 11.31716001 -12.78232028 11.47348043 -20.42578125 11.16015625 C-20.75578125 9.84015625 -21.08578125 8.52015625 -21.42578125 7.16015625 C-20.34708732 6.19660381 -19.26259382 5.23954208 -18.17578125 4.28515625 C-17.27085937 3.48464844 -17.27085937 3.48464844 -16.34765625 2.66796875 C-11.24702295 -1.33374762 -6.12849657 -2.12178223 0 0 Z " fill="#553937" transform="translate(324.42578125,168.83984375)"/>
<path d="M0 0 C7.20903434 1.42178177 16.34632917 5.63040948 20.8125 11.5546875 C20.5625 13.8046875 20.5625 13.8046875 19.8125 15.5546875 C9.14093241 16.06556042 -1.57518785 15.4923834 -10.1875 8.5546875 C-9.29937537 1.98256526 -6.84180661 -0.20255349 0 0 Z " fill="#EB865F" transform="translate(208.1875,249.4453125)"/>
<path d="M0 0 C2 3 2 3 1.74975586 4.97827148 C0.52058021 8.29276304 -1.4936092 11.13297443 -3.4375 14.0625 C-3.84548828 14.68705078 -4.25347656 15.31160156 -4.67382812 15.95507812 C-6.43459674 18.64649769 -8.21597131 21.32395697 -10 24 C-12.34135898 21.88370326 -14.67164059 19.75558371 -17 17.625 C-17.66773437 17.02171875 -18.33546875 16.4184375 -19.0234375 15.796875 C-19.65507813 15.21679688 -20.28671875 14.63671875 -20.9375 14.0390625 C-21.81728516 13.23782959 -21.81728516 13.23782959 -22.71484375 12.42041016 C-24 11 -24 11 -24 9 C-20.94516699 7.4840072 -17.88002094 5.99013052 -14.8125 4.5 C-13.94818359 4.07074219 -13.08386719 3.64148438 -12.19335938 3.19921875 C-11.35224609 2.79316406 -10.51113281 2.38710938 -9.64453125 1.96875 C-8.48981323 1.40317383 -8.48981323 1.40317383 -7.31176758 0.82617188 C-4.66385046 -0.12013201 -2.78906147 -0.37098047 0 0 Z " fill="#FAE5BF" transform="translate(110,463)"/>
<path d="M0 0 C1.67542976 0.28604898 3.34385343 0.61781233 5 1 C4.46497672 5.54769788 2.54517003 8.26178152 0 12 C-0.76939681 14.22602615 -0.76939681 14.22602615 -1 16 C-0.236875 16.2475 0.52625 16.495 1.3125 16.75 C4.31641051 18.14716768 5.49028209 19.06443741 7 22 C6.6875 24.75 6.6875 24.75 6 27 C4.68 27 3.36 27 2 27 C0.95374591 25.70264493 -0.04701223 24.36733028 -1 23 C-1.99 22.67 -2.98 22.34 -4 22 C-4.04898437 22.69867188 -4.09796875 23.39734375 -4.1484375 24.1171875 C-4.22320312 25.02726562 -4.29796875 25.93734375 -4.375 26.875 C-4.44460938 27.77992188 -4.51421875 28.68484375 -4.5859375 29.6171875 C-5 32 -5 32 -7 34 C-9.125 33.625 -9.125 33.625 -11 33 C-11.80793185 21.08300524 -7.74375995 10.71101433 -1 1 C-0.67 0.67 -0.34 0.34 0 0 Z " fill="#D96843" transform="translate(366,231)"/>
<path d="M0 0 C2.6875 0.3125 2.6875 0.3125 5 1 C4.79071707 4.66245132 4.07082794 5.92563067 1.5 8.625 C-6.96939604 14.927344 -16.88269046 14.77981265 -27 14 C-31.23729833 13.14214206 -35.1340233 11.93298835 -39 10 C-38.67 8.35 -38.34 6.7 -38 5 C-31.45951182 5.89771406 -31.45951182 5.89771406 -28.68359375 6.515625 C-19.82412868 8.11471331 -10.69267462 8.07750488 -3 3 C-2.48179687 2.4534375 -1.96359375 1.906875 -1.4296875 1.34375 C-0.95789063 0.9003125 -0.48609375 0.456875 0 0 Z " fill="#D86843" transform="translate(300,254)"/>
<path d="M0 0 C0.78246094 -0.02578125 1.56492187 -0.0515625 2.37109375 -0.078125 C5.08364994 0.32803315 5.92870852 1.08535513 7.5625 3.25 C7.98832422 6.08882813 8.04550688 7.56362181 6.375 9.9375 C1.75221314 13.28503531 -2.7020398 13.51303537 -8.25 13.375 C-9.28930664 13.36146484 -9.28930664 13.36146484 -10.34960938 13.34765625 C-12.04572395 13.32426157 -13.74165871 13.28839641 -15.4375 13.25 C-14.95446726 8.93986172 -13.8357201 7.2264837 -10.5 4.5 C-9.78972656 3.90703125 -9.07945312 3.3140625 -8.34765625 2.703125 C-5.43191592 0.48501579 -3.61717285 0.07127434 0 0 Z " fill="#EA865F" transform="translate(341.4375,251.75)"/>
<path d="M0 0 C0.495 1.98 0.495 1.98 1 4 C-5.13816365 9.64711056 -14.65335254 8.12255574 -22.4375 8.0625 C-23.55060547 8.05798828 -24.66371094 8.05347656 -25.81054688 8.04882812 C-28.54042101 8.03711193 -31.27018174 8.02070699 -34 8 C-34.38218767 6.34385343 -34.71395102 4.67542976 -35 3 C-33.2392833 1.2392833 -30.71191123 1.78678156 -28.3203125 1.71875 C-26.58587891 1.66267578 -26.58587891 1.66267578 -24.81640625 1.60546875 C-23.59824219 1.57066406 -22.38007813 1.53585937 -21.125 1.5 C-18.73164948 1.43118161 -16.33840743 1.35844661 -13.9453125 1.28125 C-12.34453857 1.23581055 -12.34453857 1.23581055 -10.71142578 1.18945312 C-6.96758439 0.92786291 -3.82643256 -0.1034171 0 0 Z " fill="#D86843" transform="translate(301,299)"/>
<path d="M0 0 C0.99 0.33 1.98 0.66 3 1 C-4.97581635 9.18539985 -12.96950853 16.96519725 -22 24 C-23.08986059 24.87857473 -24.17833692 25.75886862 -25.265625 26.640625 C-33.51271957 33.28999851 -42.0229455 39.37492823 -51 45 C-52.21236328 45.76086914 -52.21236328 45.76086914 -53.44921875 46.53710938 C-56.01552482 48.13085921 -58.59760294 49.69492703 -61.1875 51.25 C-62.00178467 51.75273438 -62.81606934 52.25546875 -63.6550293 52.7734375 C-64.42242432 53.22460938 -65.18981934 53.67578125 -65.98046875 54.140625 C-66.66004639 54.54829102 -67.33962402 54.95595703 -68.03979492 55.37597656 C-70 56 -70 56 -72.2512207 55.11621094 C-72.82831787 54.74786133 -73.40541504 54.37951172 -74 54 C-73.50298584 53.74943848 -73.00597168 53.49887695 -72.49389648 53.24072266 C-45.43536489 39.51695908 -21.35603167 21.58900656 0 0 Z " fill="#F2EEE8" transform="translate(472,465)"/>
<path d="M0 0 C2.66984409 0.28605472 4.35398987 1.20580807 6.6875 2.5625 C10.8614633 4.37384256 14.50438417 4.62938622 19 4 C20.33531301 3.33730748 21.66886504 2.6710454 23 2 C25.75 2.375 25.75 2.375 28 3 C27.8125 5.3125 27.8125 5.3125 27 8 C21.13886964 12.58174183 14.06139841 11.80701696 7 11 C3.82045291 9.85043635 1.26123893 8.54222129 -1 6 C-1.8203125 3.953125 -1.8203125 3.953125 -2 2 C-1.34 1.34 -0.68 0.68 0 0 Z " fill="#3A2624" transform="translate(316,88)"/>
<path d="M0 0 C7.78864501 1.49144266 13.22992887 5.95292175 18.5 11.75 C20.86374085 15.29561128 21.11646668 18.03206584 21.0625 22.1875 C21.05347656 23.08855469 21.04445313 23.98960938 21.03515625 24.91796875 C21.02355469 25.60503906 21.01195312 26.29210937 21 27 C18.30440618 23.6855502 15.77269618 20.30422498 13.3125 16.8125 C9.7438889 11.85945597 5.85133951 7.35768454 1.6875 2.8984375 C0 1 0 1 0 0 Z " fill="#F4EAE6" transform="translate(353,79)"/>
<path d="M0 0 C1 2 1 2 1 6 C-2.64261542 7.59718478 -6.29045272 9.18169397 -9.94360352 10.75463867 C-11.18566592 11.29154063 -12.42624494 11.83188785 -13.6652832 12.37573242 C-15.44609497 13.15666509 -17.23275053 13.92422893 -19.01953125 14.69140625 C-20.09307861 15.15748291 -21.16662598 15.62355957 -22.27270508 16.10375977 C-25 17 -25 17 -28 16 C-27.20734741 15.59273682 -27.20734741 15.59273682 -26.39868164 15.17724609 C-12.78211732 8.28986083 -12.78211732 8.28986083 0 0 Z " fill="#EEC696" transform="translate(396,515)"/>
<path d="M0 0 C2.64 0.66 5.28 1.32 8 2 C4 6.66666667 0 11.33333333 -4 16 C-5 14 -5 14 -4.00390625 10.7421875 C-3.53110016 9.4502948 -3.05028031 8.16131362 -2.5625 6.875 C-2.31951172 6.21628906 -2.07652344 5.55757813 -1.82617188 4.87890625 C-1.22421679 3.25008662 -0.61297588 1.62470425 0 0 Z " fill="#F7E3BE" transform="translate(478,448)"/>
<path d="M0 0 C4.57656659 1.48845343 7.90050485 4.11040968 11.5625 7.125 C17.80723916 12.15960233 24.2366831 16.67692748 31 21 C30.34 21.66 29.68 22.32 29 23 C21.60812587 17.82119457 14.30170304 12.55628733 7.1875 7 C6.58341309 6.53166748 5.97932617 6.06333496 5.35693359 5.58081055 C1.1219323 2.2438646 1.1219323 2.2438646 0 0 Z " fill="#F1EEE8" transform="translate(97,485)"/>
<path d="M0 0 C2 3 2 3 1.75 5 C1 7 1 7 -1 10 C-4.33523252 8.61990379 -6.18607951 7.15049348 -8 4 C-7.67 3.01 -7.34 2.02 -7 1 C-4.46578263 -0.26710868 -2.80561762 -0.28056176 0 0 Z " fill="#ECC393" transform="translate(110,463)"/>
<path d="M0 0 C-2.64 2.64 -5.28 5.28 -8 8 C-9.65 6.35 -11.3 4.7 -13 3 C-11.40084119 2.30093058 -9.79544955 1.61610532 -8.1875 0.9375 C-7.29417969 0.55464844 -6.40085937 0.17179687 -5.48046875 -0.22265625 C-3 -1 -3 -1 0 0 Z " fill="#F4E2BE" transform="translate(121,459)"/>
<path d="M0 0 C1 2 1 2 1 6 C-3.455 7.485 -3.455 7.485 -8 9 C-8 7.68 -8 6.36 -8 5 C-6.25 3.515625 -6.25 3.515625 -4 2.25 C-3.2575 1.82203125 -2.515 1.3940625 -1.75 0.953125 C-1.1725 0.63859375 -0.595 0.3240625 0 0 Z " fill="#E2C191" transform="translate(396,515)"/>
<path d="M0 0 C0.33 0.99 0.66 1.98 1 3 C1.66 3.33 2.32 3.66 3 4 C0.00519083 4.8723412 -2.63575911 5.10829766 -5.75 5.0625 C-6.54921875 5.05347656 -7.3484375 5.04445313 -8.171875 5.03515625 C-8.77515625 5.02355469 -9.3784375 5.01195312 -10 5 C-7.90217213 2.90217213 -6.6200793 2.3490604 -3.875 1.375 C-3.15054687 1.11460938 -2.42609375 0.85421875 -1.6796875 0.5859375 C-0.84824219 0.29589844 -0.84824219 0.29589844 0 0 Z " fill="#D2C5C2" transform="translate(306,52)"/>
<path d="M0 0 C3.49844386 0.63389235 5.84086876 2.05177694 8.75 4.0625 C9.94882813 4.88427734 9.94882813 4.88427734 11.171875 5.72265625 C12.07679687 6.35494141 12.07679687 6.35494141 13 7 C12.34 7.66 11.68 8.32 11 9 C9.16384919 7.69144447 7.33114211 6.37805538 5.5 5.0625 C4.4790625 4.33160156 3.458125 3.60070312 2.40625 2.84765625 C1.6121875 2.23792969 0.818125 1.62820313 0 1 C0 0.67 0 0.34 0 0 Z " fill="#DEE3DC" transform="translate(115,499)"/>
<path d="M0 0 C0.66 0.33 1.32 0.66 2 1 C0.68 2.32 -0.64 3.64 -2 5 C-3.32 4.34 -4.64 3.68 -6 3 C-4.03533587 1.93224776 -2.03144641 0.93446535 0 0 Z " fill="#E4E6DF" transform="translate(404,516)"/>
<path d="M0 0 C1.98 0 3.96 0 6 0 C6 0.33 6 0.66 6 1 C4.02 1 2.04 1 0 1 C0 0.67 0 0.34 0 0 Z " fill="#FEF2ED" transform="translate(231,549)"/>
<path d="M0 0 C0.33 0 0.66 0 1 0 C1 1.98 1 3.96 1 6 C0.67 6 0.34 6 0 6 C0 4.02 0 2.04 0 0 Z " fill="#FEF2ED" transform="translate(0,310)"/>
<path d="M0 0 C0.33 0 0.66 0 1 0 C1 1.98 1 3.96 1 6 C0.67 6 0.34 6 0 6 C0 4.02 0 2.04 0 0 Z " fill="#FFF2ED" transform="translate(0,234)"/>
<path d="M0 0 C0.33 0 0.66 0 1 0 C1 1.98 1 3.96 1 6 C0.67 6 0.34 6 0 6 C0 4.02 0 2.04 0 0 Z " fill="#FEF2ED" transform="translate(549,231)"/>
<path d="M0 0 C1.98 0 3.96 0 6 0 C6 0.33 6 0.66 6 1 C4.02 1 2.04 1 0 1 C0 0.67 0 0.34 0 0 Z " fill="#FEF2ED" transform="translate(310,0)"/>
<path d="M0 0 C1.98 0 3.96 0 6 0 C6 0.33 6 0.66 6 1 C4.02 1 2.04 1 0 1 C0 0.67 0 0.34 0 0 Z " fill="#FFF2ED" transform="translate(234,0)"/>
<path d="M0 0 C1.65 0 3.3 0 5 0 C5 0.33 5 0.66 5 1 C3.35 1 1.7 1 0 1 C0 0.67 0 0.34 0 0 Z " fill="#FEF2ED" transform="translate(314,549)"/>
<path d="M0 0 C1.65 0 3.3 0 5 0 C5 0.33 5 0.66 5 1 C3.35 1 1.7 1 0 1 C0 0.67 0 0.34 0 0 Z " fill="#FEF2ED" transform="translate(225,548)"/>
<path d="M0 0 C1.65 0 3.3 0 5 0 C5 0.33 5 0.66 5 1 C3.35 1 1.7 1 0 1 C0 0.67 0 0.34 0 0 Z " fill="#FFF3ED" transform="translate(326,547)"/>
<path d="M0 0 C0.33 0 0.66 0 1 0 C1 1.65 1 3.3 1 5 C0.67 5 0.34 5 0 5 C0 3.35 0 1.7 0 0 Z " fill="#FEF2ED" transform="translate(547,326)"/>
<path d="M0 0 C0.33 0 0.66 0 1 0 C1 1.65 1 3.3 1 5 C0.67 5 0.34 5 0 5 C0 3.35 0 1.7 0 0 Z " fill="#FFF2ED" transform="translate(1,318)"/>
<path d="M0 0 C0.33 0 0.66 0 1 0 C1 1.65 1 3.3 1 5 C0.67 5 0.34 5 0 5 C0 3.35 0 1.7 0 0 Z " fill="#FFF2ED" transform="translate(549,314)"/>
<path d="M0 0 C0.33 0 0.66 0 1 0 C1 1.65 1 3.3 1 5 C0.67 5 0.34 5 0 5 C0 3.35 0 1.7 0 0 Z " fill="#FFF3ED" transform="translate(1,228)"/>
<path d="M0 0 C0.33 0 0.66 0 1 0 C1 1.65 1 3.3 1 5 C0.67 5 0.34 5 0 5 C0 3.35 0 1.7 0 0 Z " fill="#FEF2ED" transform="translate(548,225)"/>
<path d="M0 0 C0.33 0 0.66 0 1 0 C1 1.65 1 3.3 1 5 C0.67 5 0.34 5 0 5 C0 3.35 0 1.7 0 0 Z " fill="#FEF2ED" transform="translate(2,222)"/>
<path d="M0 0 C0.33 0 0.66 0 1 0 C1 1.65 1 3.3 1 5 C0.67 5 0.34 5 0 5 C0 3.35 0 1.7 0 0 Z " fill="#FEF2ED" transform="translate(3,217)"/>
<path d="M0 0 C1.65 0 3.3 0 5 0 C5 0.33 5 0.66 5 1 C3.35 1 1.7 1 0 1 C0 0.67 0 0.34 0 0 Z " fill="#FEF2ED" transform="translate(217,3)"/>
<path d="M0 0 C1.65 0 3.3 0 5 0 C5 0.33 5 0.66 5 1 C3.35 1 1.7 1 0 1 C0 0.67 0 0.34 0 0 Z " fill="#FEF2ED" transform="translate(222,2)"/>
<path d="M0 0 C1.65 0 3.3 0 5 0 C5 0.33 5 0.66 5 1 C3.35 1 1.7 1 0 1 C0 0.67 0 0.34 0 0 Z " fill="#FEF2EE" transform="translate(318,1)"/>
<path d="M0 0 C1.65 0 3.3 0 5 0 C5 0.33 5 0.66 5 1 C3.35 1 1.7 1 0 1 C0 0.67 0 0.34 0 0 Z " fill="#FFF2EE" transform="translate(228,1)"/>
<path d="M0 0 C4 1 4 1 4 1 Z " fill="#FFF3ED" transform="translate(321,548)"/>
<path d="M0 0 C4 1 4 1 4 1 Z " fill="#FFF3ED" transform="translate(220,547)"/>
<path d="M0 0 C4 1 4 1 4 1 Z " fill="#FEF2ED" transform="translate(331,546)"/>
<path d="M0 0 C4 1 4 1 4 1 Z " fill="#FEF2ED" transform="translate(215,546)"/>
<path d="M0 0 C4 1 4 1 4 1 Z " fill="#FEF2ED" transform="translate(211,545)"/>
<path d="M0 0 C4 1 4 1 4 1 Z " fill="#FFF3ED" transform="translate(340,544)"/>
<path d="M0 0 C0.99 0.33 1.98 0.66 3 1 C2.01 1 1.02 1 0 1 C0 0.67 0 0.34 0 0 Z " fill="#FEF3F2" transform="translate(85,477)"/>
<path d="M0 0 C1 4 1 4 1 4 Z " fill="#FFF2ED" transform="translate(6,342)"/>
<path d="M0 0 C1 4 1 4 1 4 Z " fill="#FFF2ED" transform="translate(544,340)"/>
<path d="M0 0 C1 4 1 4 1 4 Z " fill="#FFF2ED" transform="translate(5,338)"/>
<path d="M0 0 C1 4 1 4 1 4 Z " fill="#FFF2ED" transform="translate(546,331)"/>
<path d="M0 0 C1 4 1 4 1 4 Z " fill="#FEF2ED" transform="translate(3,329)"/>
<path d="M0 0 C1 4 1 4 1 4 Z " fill="#FEF2EE" transform="translate(2,324)"/>
<path d="M0 0 C1 4 1 4 1 4 Z " fill="#FFF2ED" transform="translate(548,321)"/>
<path d="M0 0 C1 4 1 4 1 4 Z " fill="#FFF2ED" transform="translate(547,220)"/>
<path d="M0 0 C1 4 1 4 1 4 Z " fill="#FFF2ED" transform="translate(546,215)"/>
<path d="M0 0 C1 4 1 4 1 4 Z " fill="#FEF2EE" transform="translate(4,213)"/>
<path d="M0 0 C1 4 1 4 1 4 Z " fill="#FFF3ED" transform="translate(545,211)"/>
<path d="M0 0 C0.99 0.33 1.98 0.66 3 1 C2.01 1 1.02 1 0 1 C0 0.67 0 0.34 0 0 Z " fill="#FEF2ED" transform="translate(462,71)"/>
<path d="M0 0 C4 1 4 1 4 1 Z " fill="#FEF2ED" transform="translate(342,6)"/>
<path d="M0 0 C4 1 4 1 4 1 Z " fill="#FEF2ED" transform="translate(338,5)"/>
<path d="M0 0 C4 1 4 1 4 1 Z " fill="#FEF2ED" transform="translate(213,4)"/>
<path d="M0 0 C4 1 4 1 4 1 Z " fill="#FEF2ED" transform="translate(329,3)"/>
<path d="M0 0 C4 1 4 1 4 1 Z " fill="#FFF3EE" transform="translate(324,2)"/>
<path d="M0 0 C3 1 3 1 3 1 Z " fill="#FFF3ED" transform="translate(336,545)"/>
<path d="M0 0 C3 1 3 1 3 1 Z " fill="#FFF2ED" transform="translate(207,544)"/>
<path d="M0 0 C3 1 3 1 3 1 Z " fill="#FEF2ED" transform="translate(344,543)"/>
<path d="M0 0 C3 1 3 1 3 1 Z " fill="#FEF2ED" transform="translate(203,543)"/>
<path d="M0 0 C3 1 3 1 3 1 Z " fill="#FEF2ED" transform="translate(348,542)"/>
<path d="M0 0 C3 1 3 1 3 1 Z " fill="#FEF2ED" transform="translate(200,542)"/>
<path d="M0 0 C3 1 3 1 3 1 Z " fill="#FEF2ED" transform="translate(351,541)"/>
<path d="M0 0 C3 1 3 1 3 1 Z " fill="#FEF2ED" transform="translate(196,541)"/>
<path d="M0 0 C3 1 3 1 3 1 Z " fill="#FFF3EE" transform="translate(355,540)"/>
<path d="M0 0 C3 1 3 1 3 1 Z " fill="#FEF2ED" transform="translate(193,540)"/>
<path d="M0 0 C3 1 3 1 3 1 Z " fill="#FEF2ED" transform="translate(358,539)"/>
<path d="M0 0 C3 1 3 1 3 1 Z " fill="#FEF2ED" transform="translate(361,538)"/>
<path d="M0 0 C3 1 3 1 3 1 Z " fill="#FEF2ED" transform="translate(364,537)"/>
<path d="M0 0 C3 1 3 1 3 1 Z " fill="#FEF2ED" transform="translate(178,535)"/>
<path d="" fill="#FFF2ED" transform="translate(0,0)"/>
<path d="" fill="#FFF3EE" transform="translate(0,0)"/>
<path d="" fill="#FEF3ED" transform="translate(0,0)"/>
<path d="" fill="#FFF3EE" transform="translate(0,0)"/>
<path d="" fill="#FEF3ED" transform="translate(0,0)"/>
<path d="" fill="#FFF2ED" transform="translate(0,0)"/>
<path d="" fill="#FEF2ED" transform="translate(0,0)"/>
<path d="" fill="#FFF2EE" transform="translate(0,0)"/>
<path d="" fill="#FEF3EE" transform="translate(0,0)"/>
<path d="" fill="#FEF3ED" transform="translate(0,0)"/>
<path d="" fill="#FFF3EE" transform="translate(0,0)"/>
<path d="" fill="#FFF3EE" transform="translate(0,0)"/>
<path d="" fill="#FFF3ED" transform="translate(0,0)"/>
<path d="" fill="#FFF3EE" transform="translate(0,0)"/>
<path d="" fill="#FEF2EE" transform="translate(0,0)"/>
<path d="" fill="#FFF2ED" transform="translate(0,0)"/>
<path d="" fill="#FFF2ED" transform="translate(0,0)"/>
<path d="" fill="#FEF2ED" transform="translate(0,0)"/>
<path d="" fill="#FFF2ED" transform="translate(0,0)"/>
<path d="" fill="#FFF3EE" transform="translate(0,0)"/>
<path d="" fill="#FEF3EE" transform="translate(0,0)"/>
<path d="" fill="#FEF3EE" transform="translate(0,0)"/>
<path d="" fill="#FEF2ED" transform="translate(0,0)"/>
<path d="" fill="#FEF2ED" transform="translate(0,0)"/>
<path d="" fill="#FFF2ED" transform="translate(0,0)"/>
<path d="" fill="#FEF3ED" transform="translate(0,0)"/>
<path d="" fill="#FFF2ED" transform="translate(0,0)"/>
<path d="M0 0 C3 1 3 1 3 1 Z " fill="#FEF2ED" transform="translate(371,15)"/>
<path d="M0 0 C3 1 3 1 3 1 Z " fill="#FFF3EE" transform="translate(182,13)"/>
<path d="M0 0 C3 1 3 1 3 1 Z " fill="#FEF2ED" transform="translate(185,12)"/>
<path d="M0 0 C3 1 3 1 3 1 Z " fill="#FEF2ED" transform="translate(188,11)"/>
<path d="M0 0 C3 1 3 1 3 1 Z " fill="#FEF2ED" transform="translate(191,10)"/>
<path d="M0 0 C3 1 3 1 3 1 Z " fill="#FEF2ED" transform="translate(353,9)"/>
<path d="M0 0 C3 1 3 1 3 1 Z " fill="#FFF2ED" transform="translate(194,9)"/>
<path d="M0 0 C3 1 3 1 3 1 Z " fill="#FFF3ED" transform="translate(350,8)"/>
<path d="M0 0 C3 1 3 1 3 1 Z " fill="#FFF3ED" transform="translate(198,8)"/>
<path d="M0 0 C3 1 3 1 3 1 Z " fill="#FFF2ED" transform="translate(346,7)"/>
<path d="M0 0 C3 1 3 1 3 1 Z " fill="#FEF2ED" transform="translate(201,7)"/>
<path d="M0 0 C3 1 3 1 3 1 Z " fill="#FFF2EE" transform="translate(205,6)"/>
<path d="M0 0 C3 1 3 1 3 1 Z " fill="#FEF3EE" transform="translate(209,5)"/>
<path d="M0 0 C3 1 3 1 3 1 Z " fill="#FFF3ED" transform="translate(334,4)"/>
<path d="M0 0 C2 1 2 1 2 1 Z " fill="#FEF2ED" transform="translate(190,539)"/>
<path d="M0 0 C2 1 2 1 2 1 Z " fill="#FEF2ED" transform="translate(187,538)"/>
<path d="M0 0 C2 1 2 1 2 1 Z " fill="#FEF2ED" transform="translate(184,537)"/>
<path d="M0 0 C2 1 2 1 2 1 Z " fill="#FEF2ED" transform="translate(367,536)"/>
<path d="M0 0 C2 1 2 1 2 1 Z " fill="#FEF2ED" transform="translate(181,536)"/>
<path d="M0 0 C2 1 2 1 2 1 Z " fill="#FEF2ED" transform="translate(370,535)"/>
<path d="M0 0 C2 1 2 1 2 1 Z " fill="#FEF2ED" transform="translate(373,534)"/>
<path d="M0 0 C2 1 2 1 2 1 Z " fill="#FEF2ED" transform="translate(176,534)"/>
<path d="M0 0 C2 1 2 1 2 1 Z " fill="#FEF2ED" transform="translate(375,533)"/>
<path d="M0 0 C2 1 2 1 2 1 Z " fill="#FEF2ED" transform="translate(173,533)"/>
<path d="M0 0 C2 1 2 1 2 1 Z " fill="#FEF2ED" transform="translate(378,532)"/>
<path d="M0 0 C2 1 2 1 2 1 Z " fill="#FEF2ED" transform="translate(171,532)"/>
<path d="M0 0 C2 1 2 1 2 1 Z " fill="#FEF2ED" transform="translate(380,531)"/>
<path d="M0 0 C2 1 2 1 2 1 Z " fill="#FEF2ED" transform="translate(168,531)"/>
<path d="M0 0 C2 1 2 1 2 1 Z " fill="#FEF2ED" transform="translate(383,530)"/>
<path d="M0 0 C2 1 2 1 2 1 Z " fill="#FEF2ED" transform="translate(166,530)"/>
<path d="M0 0 C2 1 2 1 2 1 Z " fill="#FEF2ED" transform="translate(385,529)"/>
<path d="M0 0 C2 1 2 1 2 1 Z " fill="#FEF2ED" transform="translate(164,529)"/>
<path d="M0 0 C2 1 2 1 2 1 Z " fill="#FEF2ED" transform="translate(387,528)"/>
<path d="M0 0 C2 1 2 1 2 1 Z " fill="#FEF2ED" transform="translate(161,528)"/>
<path d="M0 0 C2 1 2 1 2 1 Z " fill="#FEF2ED" transform="translate(389,527)"/>
<path d="M0 0 C2 1 2 1 2 1 Z " fill="#FEF2ED" transform="translate(159,527)"/>
<path d="M0 0 C2 1 2 1 2 1 Z " fill="#FEF2ED" transform="translate(157,526)"/>
<path d="M0 0 C2 1 2 1 2 1 Z " fill="#FEF2ED" transform="translate(155,525)"/>
<path d="M0 0 C2 1 2 1 2 1 Z " fill="#FEF2ED" transform="translate(153,524)"/>
<path d="M0 0 C2 1 2 1 2 1 Z " fill="#FEF2ED" transform="translate(151,523)"/>
<path d="M0 0 C2 1 2 1 2 1 Z " fill="#FEF2ED" transform="translate(149,522)"/>
<path d="M0 0 C2 1 2 1 2 1 Z " fill="#FEF2ED" transform="translate(147,521)"/>
<path d="M0 0 C2 1 2 1 2 1 Z " fill="#FEF2ED" transform="translate(145,520)"/>
<path d="M0 0 C2 1 2 1 2 1 Z " fill="#FEF2ED" transform="translate(143,519)"/>
<path d="M0 0 C2 1 2 1 2 1 Z " fill="#FDF2ED" transform="translate(407,518)"/>
<path d="M0 0 C2 1 2 1 2 1 Z " fill="#FEF2ED" transform="translate(409,517)"/>
<path d="M0 0 C2 1 2 1 2 1 Z " fill="#FEF2EE" transform="translate(138,516)"/>
<path d="M0 0 C2 1 2 1 2 1 Z " fill="#FEF2ED" transform="translate(136,515)"/>
<path d="M0 0 C2 1 2 1 2 1 Z " fill="#FDF1EC" transform="translate(414,514)"/>
<path d="M0 0 C2 1 2 1 2 1 Z " fill="#FEF2ED" transform="translate(416,513)"/>
<path d="M0 0 C2 1 2 1 2 1 Z " fill="#FEF2ED" transform="translate(131,512)"/>
<path d="M0 0 C2 1 2 1 2 1 Z " fill="#FDF2EC" transform="translate(419,511)"/>
<path d="M0 0 C2 1 2 1 2 1 Z " fill="#FDF2ED" transform="translate(126,509)"/>
<path d="M0 0 C2 1 2 1 2 1 Z " fill="#FEF2ED" transform="translate(424,508)"/>
<path d="M0 0 C2 1 2 1 2 1 Z " fill="#FDF3EE" transform="translate(123,507)"/>
<path d="M0 0 C2 1 2 1 2 1 Z " fill="#FDF2ED" transform="translate(427,506)"/>
<path d="M0 0 C2 1 2 1 2 1 Z " fill="#FDF3EE" transform="translate(120,505)"/>
<path d="M0 0 C2 1 2 1 2 1 Z " fill="#FDF2ED" transform="translate(430,504)"/>
<path d="M0 0 C2 1 2 1 2 1 Z " fill="#FDF3EE" transform="translate(117,503)"/>
<path d="M0 0 C2 1 2 1 2 1 Z " fill="#FDF7F3" transform="translate(113,500)"/>
<path d="M0 0 C2 1 2 1 2 1 Z " fill="#FDF2ED" transform="translate(437,499)"/>
<path d="M0 0 C2 1 2 1 2 1 Z " fill="#FDF2ED" transform="translate(441,496)"/>
<path d="M0 0 C2 1 2 1 2 1 Z " fill="#FCF5F0" transform="translate(101,491)"/>
<path d="M0 0 C2 1 2 1 2 1 Z " fill="#FEF2ED" transform="translate(451,488)"/>
<path d="M0 0 C2 1 2 1 2 1 Z " fill="#FEF3F0" transform="translate(95,486)"/>
<path d="M0 0 C2 1 2 1 2 1 Z " fill="#FEF3EE" transform="translate(458,482)"/>
<path d="" fill="#FFF2EE" transform="translate(0,0)"/>
<path d="" fill="#FEF2EF" transform="translate(0,0)"/>
<path d="" fill="#FFF2ED" transform="translate(0,0)"/>
<path d="" fill="#FEF2EE" transform="translate(0,0)"/>
<path d="" fill="#FEF3ED" transform="translate(0,0)"/>
<path d="" fill="#FFF3EE" transform="translate(0,0)"/>
<path d="" fill="#FFF2ED" transform="translate(0,0)"/>
<path d="" fill="#FFF3EE" transform="translate(0,0)"/>
<path d="" fill="#FFF3ED" transform="translate(0,0)"/>
<path d="" fill="#FFF3EE" transform="translate(0,0)"/>
<path d="" fill="#FFF3EE" transform="translate(0,0)"/>
<path d="" fill="#FFF2ED" transform="translate(0,0)"/>
<path d="" fill="#FEF3ED" transform="translate(0,0)"/>
<path d="" fill="#FFF3ED" transform="translate(0,0)"/>
<path d="" fill="#FFF2EE" transform="translate(0,0)"/>
<path d="" fill="#FFF3EE" transform="translate(0,0)"/>
<path d="" fill="#FEF3EE" transform="translate(0,0)"/>
<path d="" fill="#FFF2ED" transform="translate(0,0)"/>
<path d="" fill="#FFF2ED" transform="translate(0,0)"/>
<path d="" fill="#FFF3ED" transform="translate(0,0)"/>
<path d="" fill="#FFF2EE" transform="translate(0,0)"/>
<path d="" fill="#FEF3EE" transform="translate(0,0)"/>
<path d="" fill="#FEF2EE" transform="translate(0,0)"/>
<path d="" fill="#FEF2ED" transform="translate(0,0)"/>
<path d="" fill="#FFF2ED" transform="translate(0,0)"/>
<path d="" fill="#FFF3EE" transform="translate(0,0)"/>
<path d="" fill="#FFF3EE" transform="translate(0,0)"/>
<path d="" fill="#FEF2ED" transform="translate(0,0)"/>
<path d="" fill="#FFF3EE" transform="translate(0,0)"/>
<path d="" fill="#FFF3EE" transform="translate(0,0)"/>
<path d="" fill="#FFF2ED" transform="translate(0,0)"/>
<path d="" fill="#FFF3EE" transform="translate(0,0)"/>
<path d="" fill="#FFF2EE" transform="translate(0,0)"/>
<path d="" fill="#FFF2EE" transform="translate(0,0)"/>
<path d="" fill="#FFF2ED" transform="translate(0,0)"/>
<path d="" fill="#FFF2ED" transform="translate(0,0)"/>
<path d="" fill="#FFF3ED" transform="translate(0,0)"/>
<path d="" fill="#FEF2EE" transform="translate(0,0)"/>
<path d="" fill="#FFF3EE" transform="translate(0,0)"/>
<path d="" fill="#FFF3EE" transform="translate(0,0)"/>
<path d="" fill="#FFF2ED" transform="translate(0,0)"/>
<path d="" fill="#FEF2EE" transform="translate(0,0)"/>
<path d="" fill="#FEF2ED" transform="translate(0,0)"/>
<path d="" fill="#FFF2EE" transform="translate(0,0)"/>
<path d="" fill="#FFF3EE" transform="translate(0,0)"/>
<path d="" fill="#FEF3ED" transform="translate(0,0)"/>
<path d="" fill="#FFF3EE" transform="translate(0,0)"/>
<path d="" fill="#FFF2ED" transform="translate(0,0)"/>
<path d="" fill="#FEF2ED" transform="translate(0,0)"/>
<path d="" fill="#FFF2EE" transform="translate(0,0)"/>
<path d="" fill="#FFF3ED" transform="translate(0,0)"/>
<path d="" fill="#FEF2ED" transform="translate(0,0)"/>
<path d="" fill="#FFF3EE" transform="translate(0,0)"/>
<path d="" fill="#FFF3ED" transform="translate(0,0)"/>
<path d="" fill="#FEF2ED" transform="translate(0,0)"/>
<path d="" fill="#FFF3ED" transform="translate(0,0)"/>
<path d="" fill="#FEF2ED" transform="translate(0,0)"/>
<path d="" fill="#FFF3EE" transform="translate(0,0)"/>
<path d="" fill="#FEF2EE" transform="translate(0,0)"/>
<path d="" fill="#FFF2ED" transform="translate(0,0)"/>
<path d="" fill="#FEF2ED" transform="translate(0,0)"/>
<path d="" fill="#FFF2EE" transform="translate(0,0)"/>
<path d="" fill="#FFF3ED" transform="translate(0,0)"/>
<path d="" fill="#FFF3EE" transform="translate(0,0)"/>
<path d="" fill="#FFF2ED" transform="translate(0,0)"/>
<path d="" fill="#FFF3EE" transform="translate(0,0)"/>
<path d="" fill="#FEF2ED" transform="translate(0,0)"/>
<path d="" fill="#FFF2ED" transform="translate(0,0)"/>
<path d="" fill="#FFF3EE" transform="translate(0,0)"/>
<path d="" fill="#FEF2ED" transform="translate(0,0)"/>
<path d="" fill="#FFF3EE" transform="translate(0,0)"/>
<path d="" fill="#FFF2ED" transform="translate(0,0)"/>
<path d="" fill="#FEF2ED" transform="translate(0,0)"/>
<path d="" fill="#FFF3ED" transform="translate(0,0)"/>
<path d="" fill="#FFF2ED" transform="translate(0,0)"/>
<path d="" fill="#FEF3ED" transform="translate(0,0)"/>
<path d="" fill="#FFF2ED" transform="translate(0,0)"/>
<path d="" fill="#FFF2ED" transform="translate(0,0)"/>
<path d="" fill="#FEF3EE" transform="translate(0,0)"/>
<path d="" fill="#FEF3EE" transform="translate(0,0)"/>
<path d="" fill="#FEF2ED" transform="translate(0,0)"/>
<path d="" fill="#FFF2EE" transform="translate(0,0)"/>
<path d="" fill="#FFF3EE" transform="translate(0,0)"/>
<path d="" fill="#FEF2ED" transform="translate(0,0)"/>
<path d="" fill="#FFF2EE" transform="translate(0,0)"/>
<path d="" fill="#FEF3EE" transform="translate(0,0)"/>
<path d="" fill="#FFF3EE" transform="translate(0,0)"/>
<path d="" fill="#FFF2ED" transform="translate(0,0)"/>
<path d="" fill="#FFF2ED" transform="translate(0,0)"/>
<path d="" fill="#FFF2ED" transform="translate(0,0)"/>
<path d="" fill="#FFF3EE" transform="translate(0,0)"/>
<path d="" fill="#FFF3EE" transform="translate(0,0)"/>
<path d="" fill="#FEF3EE" transform="translate(0,0)"/>
<path d="" fill="#FEF3EE" transform="translate(0,0)"/>
<path d="" fill="#FEF2ED" transform="translate(0,0)"/>
<path d="" fill="#FFF2ED" transform="translate(0,0)"/>
<path d="" fill="#FFF2ED" transform="translate(0,0)"/>
<path d="" fill="#FEF2ED" transform="translate(0,0)"/>
<path d="" fill="#FFF2ED" transform="translate(0,0)"/>
<path d="" fill="#FFF2ED" transform="translate(0,0)"/>
<path d="" fill="#FFF3EE" transform="translate(0,0)"/>
<path d="" fill="#FFF3ED" transform="translate(0,0)"/>
<path d="" fill="#FFF3EE" transform="translate(0,0)"/>
<path d="" fill="#FFF2ED" transform="translate(0,0)"/>
<path d="" fill="#FFF3EE" transform="translate(0,0)"/>
<path d="" fill="#FFF3EE" transform="translate(0,0)"/>
<path d="" fill="#FFF2ED" transform="translate(0,0)"/>
<path d="" fill="#FFF3EE" transform="translate(0,0)"/>
<path d="" fill="#FFF2ED" transform="translate(0,0)"/>
<path d="M0 0 C2 1 2 1 2 1 Z " fill="#FFF2ED" transform="translate(91,67)"/>
<path d="M0 0 C2 1 2 1 2 1 Z " fill="#FEF3ED" transform="translate(98,61)"/>
<path d="M0 0 C2 1 2 1 2 1 Z " fill="#FFF3ED" transform="translate(448,59)"/>
<path d="M0 0 C2 1 2 1 2 1 Z " fill="#FFF2ED" transform="translate(103,57)"/>
<path d="M0 0 C2 1 2 1 2 1 Z " fill="#FFF2ED" transform="translate(443,55)"/>
<path d="M0 0 C2 1 2 1 2 1 Z " fill="#FEF2EE" transform="translate(108,53)"/>
<path d="M0 0 C2 1 2 1 2 1 Z " fill="#FFF3ED" transform="translate(439,52)"/>
<path d="M0 0 C2 1 2 1 2 1 Z " fill="#FFF3EE" transform="translate(112,50)"/>
<path d="M0 0 C2 1 2 1 2 1 Z " fill="#FFF3ED" transform="translate(435,49)"/>
<path d="M0 0 C2 1 2 1 2 1 Z " fill="#FFF2ED" transform="translate(115,48)"/>
<path d="M0 0 C2 1 2 1 2 1 Z " fill="#FFF3EE" transform="translate(432,47)"/>
<path d="M0 0 C2 1 2 1 2 1 Z " fill="#FFF3EE" transform="translate(423,41)"/>
<path d="M0 0 C2 1 2 1 2 1 Z " fill="#FEF2ED" transform="translate(127,40)"/>
<path d="M0 0 C2 1 2 1 2 1 Z " fill="#FEF3EE" transform="translate(420,39)"/>
<path d="M0 0 C2 1 2 1 2 1 Z " fill="#FEF2ED" transform="translate(130,38)"/>
<path d="M0 0 C2 1 2 1 2 1 Z " fill="#FFF3EE" transform="translate(415,36)"/>
<path d="M0 0 C2 1 2 1 2 1 Z " fill="#FEF2ED" transform="translate(135,35)"/>
<path d="M0 0 C2 1 2 1 2 1 Z " fill="#FEF2ED" transform="translate(137,34)"/>
<path d="M0 0 C2 1 2 1 2 1 Z " fill="#FFF3ED" transform="translate(410,33)"/>
<path d="M0 0 C2 1 2 1 2 1 Z " fill="#FFF3ED" transform="translate(408,32)"/>
<path d="M0 0 C2 1 2 1 2 1 Z " fill="#FFF3ED" transform="translate(142,31)"/>
<path d="M0 0 C2 1 2 1 2 1 Z " fill="#FFF3EE" transform="translate(144,30)"/>
<path d="M0 0 C2 1 2 1 2 1 Z " fill="#FFF3EE" transform="translate(146,29)"/>
<path d="M0 0 C2 1 2 1 2 1 Z " fill="#FFF2ED" transform="translate(148,28)"/>
<path d="M0 0 C2 1 2 1 2 1 Z " fill="#FEF2EE" transform="translate(399,27)"/>
<path d="M0 0 C2 1 2 1 2 1 Z " fill="#FFF3EE" transform="translate(150,27)"/>
<path d="M0 0 C2 1 2 1 2 1 Z " fill="#FFF2ED" transform="translate(397,26)"/>
<path d="M0 0 C2 1 2 1 2 1 Z " fill="#FFF3EE" transform="translate(152,26)"/>
<path d="M0 0 C2 1 2 1 2 1 Z " fill="#FFF2ED" transform="translate(395,25)"/>
<path d="M0 0 C2 1 2 1 2 1 Z " fill="#FFF3EE" transform="translate(154,25)"/>
<path d="M0 0 C2 1 2 1 2 1 Z " fill="#FFF3ED" transform="translate(156,24)"/>
<path d="M0 0 C2 1 2 1 2 1 Z " fill="#FFF3EE" transform="translate(158,23)"/>
<path d="M0 0 C2 1 2 1 2 1 Z " fill="#FEF2EE" transform="translate(388,22)"/>
<path d="M0 0 C2 1 2 1 2 1 Z " fill="#FFF3EE" transform="translate(160,22)"/>
<path d="M0 0 C2 1 2 1 2 1 Z " fill="#FFF3ED" transform="translate(386,21)"/>
<path d="M0 0 C2 1 2 1 2 1 Z " fill="#FFF3EE" transform="translate(162,21)"/>
<path d="M0 0 C2 1 2 1 2 1 Z " fill="#FFF3EE" transform="translate(384,20)"/>
<path d="M0 0 C2 1 2 1 2 1 Z " fill="#FFF3EE" transform="translate(165,20)"/>
<path d="M0 0 C2 1 2 1 2 1 Z " fill="#FEF2ED" transform="translate(381,19)"/>
<path d="M0 0 C2 1 2 1 2 1 Z " fill="#FFF2EE" transform="translate(167,19)"/>
<path d="M0 0 C2 1 2 1 2 1 Z " fill="#FFF2ED" transform="translate(379,18)"/>
<path d="M0 0 C2 1 2 1 2 1 Z " fill="#FFF3EE" transform="translate(169,18)"/>
<path d="M0 0 C2 1 2 1 2 1 Z " fill="#FFF3ED" transform="translate(377,17)"/>
<path d="M0 0 C2 1 2 1 2 1 Z " fill="#FEF3ED" transform="translate(172,17)"/>
<path d="M0 0 C2 1 2 1 2 1 Z " fill="#FFF3EE" transform="translate(374,16)"/>
<path d="M0 0 C2 1 2 1 2 1 Z " fill="#FEF2ED" transform="translate(174,16)"/>
<path d="M0 0 C2 1 2 1 2 1 Z " fill="#FFF3EE" transform="translate(177,15)"/>
<path d="M0 0 C2 1 2 1 2 1 Z " fill="#FFF3EE" transform="translate(369,14)"/>
<path d="M0 0 C2 1 2 1 2 1 Z " fill="#FFF3EE" transform="translate(180,14)"/>
<path d="M0 0 C2 1 2 1 2 1 Z " fill="#FFF2EE" transform="translate(366,13)"/>
<path d="M0 0 C2 1 2 1 2 1 Z " fill="#FFF2ED" transform="translate(363,12)"/>
<path d="M0 0 C2 1 2 1 2 1 Z " fill="#FFF3ED" transform="translate(360,11)"/>
<path d="M0 0 C2 1 2 1 2 1 Z " fill="#FEF3EE" transform="translate(357,10)"/>
<path d="" fill="#FEF2ED" transform="translate(0,0)"/>
<path d="" fill="#FEF2ED" transform="translate(0,0)"/>
<path d="" fill="#FEF2ED" transform="translate(0,0)"/>
<path d="" fill="#FEF2ED" transform="translate(0,0)"/>
<path d="" fill="#FEF2ED" transform="translate(0,0)"/>
<path d="" fill="#FEF2ED" transform="translate(0,0)"/>
<path d="" fill="#FEF2ED" transform="translate(0,0)"/>
<path d="" fill="#FEF2ED" transform="translate(0,0)"/>
<path d="" fill="#FEF2ED" transform="translate(0,0)"/>
<path d="" fill="#FEF2ED" transform="translate(0,0)"/>
<path d="" fill="#FEF2ED" transform="translate(0,0)"/>
<path d="" fill="#FEF2ED" transform="translate(0,0)"/>
<path d="" fill="#FEF2ED" transform="translate(0,0)"/>
<path d="" fill="#FEF2ED" transform="translate(0,0)"/>
<path d="" fill="#FEF2ED" transform="translate(0,0)"/>
<path d="" fill="#FEF2ED" transform="translate(0,0)"/>
<path d="" fill="#FEF2ED" transform="translate(0,0)"/>
<path d="" fill="#FEF2ED" transform="translate(0,0)"/>
<path d="" fill="#FEF2ED" transform="translate(0,0)"/>
<path d="" fill="#FDF2ED" transform="translate(0,0)"/>
<path d="" fill="#FEF2ED" transform="translate(0,0)"/>
<path d="" fill="#FEF2ED" transform="translate(0,0)"/>
<path d="" fill="#FEF2ED" transform="translate(0,0)"/>
<path d="" fill="#FEF2ED" transform="translate(0,0)"/>
<path d="" fill="#FEF2ED" transform="translate(0,0)"/>
<path d="" fill="#FDF2ED" transform="translate(0,0)"/>
<path d="" fill="#FDF2ED" transform="translate(0,0)"/>
<path d="" fill="#FEF2ED" transform="translate(0,0)"/>
<path d="" fill="#FFF4EF" transform="translate(0,0)"/>
<path d="" fill="#FEF2ED" transform="translate(0,0)"/>
<path d="" fill="#FFF3EE" transform="translate(0,0)"/>
<path d="" fill="#FEF2ED" transform="translate(0,0)"/>
<path d="" fill="#FFF6F1" transform="translate(0,0)"/>
<path d="" fill="#FDF2ED" transform="translate(0,0)"/>
<path d="" fill="#FDF2ED" transform="translate(0,0)"/>
<path d="" fill="#FFF3EF" transform="translate(0,0)"/>
<path d="" fill="#FEF2ED" transform="translate(0,0)"/>
<path d="" fill="#FFF7F2" transform="translate(0,0)"/>
<path d="" fill="#FDF2ED" transform="translate(0,0)"/>
<path d="" fill="#FCF1EC" transform="translate(0,0)"/>
<path d="" fill="#FDF2ED" transform="translate(0,0)"/>
<path d="" fill="#FFF3EE" transform="translate(0,0)"/>
<path d="" fill="#FEF2ED" transform="translate(0,0)"/>
<path d="" fill="#FFF5F1" transform="translate(0,0)"/>
<path d="" fill="#FEF2ED" transform="translate(0,0)"/>
<path d="" fill="#FDF2ED" transform="translate(0,0)"/>
<path d="" fill="#FDF2ED" transform="translate(0,0)"/>
<path d="" fill="#FDF2ED" transform="translate(0,0)"/>
<path d="" fill="#FFF3EF" transform="translate(0,0)"/>
<path d="" fill="#FFF3EF" transform="translate(0,0)"/>
<path d="" fill="#FEF2ED" transform="translate(0,0)"/>
<path d="" fill="#FFF3F1" transform="translate(0,0)"/>
<path d="" fill="#FDF2ED" transform="translate(0,0)"/>
<path d="" fill="#FDF2ED" transform="translate(0,0)"/>
<path d="" fill="#FEF2ED" transform="translate(0,0)"/>
<path d="" fill="#FDF2ED" transform="translate(0,0)"/>
<path d="" fill="#FFF3EE" transform="translate(0,0)"/>
<path d="" fill="#FEF2ED" transform="translate(0,0)"/>
<path d="" fill="#FFF3EF" transform="translate(0,0)"/>
<path d="" fill="#FFF3F0" transform="translate(0,0)"/>
<path d="" fill="#FDF2ED" transform="translate(0,0)"/>
<path d="" fill="#FFF3F1" transform="translate(0,0)"/>
<path d="" fill="#FDF2ED" transform="translate(0,0)"/>
<path d="" fill="#FFF4F2" transform="translate(0,0)"/>
<path d="" fill="#FDF2ED" transform="translate(0,0)"/>
<path d="" fill="#FFF4F3" transform="translate(0,0)"/>
<path d="" fill="#FDF2ED" transform="translate(0,0)"/>
<path d="" fill="#FDF2ED" transform="translate(0,0)"/>
<path d="" fill="#FDF2ED" transform="translate(0,0)"/>
<path d="" fill="#FEF2ED" transform="translate(0,0)"/>
<path d="" fill="#FDF2ED" transform="translate(0,0)"/>
<path d="" fill="#FFF3EE" transform="translate(0,0)"/>
<path d="" fill="#FDF2ED" transform="translate(0,0)"/>
<path d="" fill="#FFF3EE" transform="translate(0,0)"/>
<path d="" fill="#FDF2ED" transform="translate(0,0)"/>
<path d="" fill="#FFF3EE" transform="translate(0,0)"/>
<path d="" fill="#FDF2ED" transform="translate(0,0)"/>
<path d="" fill="#FFF3EE" transform="translate(0,0)"/>
<path d="" fill="#FEF2ED" transform="translate(0,0)"/>
<path d="" fill="#FEF3EE" transform="translate(0,0)"/>
<path d="" fill="#FEF2ED" transform="translate(0,0)"/>
<path d="" fill="#FFF3EE" transform="translate(0,0)"/>
<path d="" fill="#FDF2ED" transform="translate(0,0)"/>
<path d="" fill="#FFF3EE" transform="translate(0,0)"/>
<path d="" fill="#FDF2ED" transform="translate(0,0)"/>
<path d="" fill="#FFF3ED" transform="translate(0,0)"/>
<path d="" fill="#FDF2ED" transform="translate(0,0)"/>
<path d="" fill="#FFF2ED" transform="translate(0,0)"/>
<path d="" fill="#FEF2ED" transform="translate(0,0)"/>
<path d="" fill="#FFF3ED" transform="translate(0,0)"/>
<path d="" fill="#FEF2ED" transform="translate(0,0)"/>
<path d="" fill="#FEF3ED" transform="translate(0,0)"/>
<path d="" fill="#FEF2ED" transform="translate(0,0)"/>
<path d="" fill="#FEF2ED" transform="translate(0,0)"/>
<path d="" fill="#FEF2ED" transform="translate(0,0)"/>
<path d="" fill="#FFF3EE" transform="translate(0,0)"/>
<path d="" fill="#FEF2ED" transform="translate(0,0)"/>
<path d="" fill="#FEF2EE" transform="translate(0,0)"/>
<path d="" fill="#FEF2ED" transform="translate(0,0)"/>
<path d="" fill="#FFF3EE" transform="translate(0,0)"/>
<path d="" fill="#FFF2ED" transform="translate(0,0)"/>
<path d="" fill="#FFF2EE" transform="translate(0,0)"/>
<path d="" fill="#FFF3EE" transform="translate(0,0)"/>
<path d="" fill="#FEF3EE" transform="translate(0,0)"/>
<path d="" fill="#FEF2ED" transform="translate(0,0)"/>
<path d="" fill="#FFF3EE" transform="translate(0,0)"/>
<path d="" fill="#FEF2ED" transform="translate(0,0)"/>
<path d="" fill="#FEF2ED" transform="translate(0,0)"/>
<path d="" fill="#FEF2ED" transform="translate(0,0)"/>
<path d="" fill="#FFF2ED" transform="translate(0,0)"/>
<path d="" fill="#FFF3ED" transform="translate(0,0)"/>
<path d="" fill="#FFF2ED" transform="translate(0,0)"/>
<path d="" fill="#FEF3EE" transform="translate(0,0)"/>
<path d="" fill="#FFF3EE" transform="translate(0,0)"/>
<path d="" fill="#FFF3EE" transform="translate(0,0)"/>
<path d="" fill="#FEF2ED" transform="translate(0,0)"/>
<path d="" fill="#FFF3EE" transform="translate(0,0)"/>
<path d="" fill="#FFF3EE" transform="translate(0,0)"/>
<path d="" fill="#FFF3EE" transform="translate(0,0)"/>
<path d="" fill="#FEF2ED" transform="translate(0,0)"/>
<path d="" fill="#FFF2EE" transform="translate(0,0)"/>
<path d="" fill="#FFF3EE" transform="translate(0,0)"/>
<path d="" fill="#FEF2EE" transform="translate(0,0)"/>
<path d="" fill="#FFF2ED" transform="translate(0,0)"/>
<path d="" fill="#FFF3EE" transform="translate(0,0)"/>
<path d="" fill="#FFF3EE" transform="translate(0,0)"/>
<path d="" fill="#FFF3EE" transform="translate(0,0)"/>
<path d="" fill="#FFF3EE" transform="translate(0,0)"/>
<path d="" fill="#FFF2ED" transform="translate(0,0)"/>
<path d="" fill="#FFF3EE" transform="translate(0,0)"/>
<path d="" fill="#FFF2ED" transform="translate(0,0)"/>
<path d="" fill="#FFF2EE" transform="translate(0,0)"/>
<path d="" fill="#FFF3EE" transform="translate(0,0)"/>
<path d="" fill="#FFF2ED" transform="translate(0,0)"/>
<path d="" fill="#FFF2ED" transform="translate(0,0)"/>
<path d="" fill="#FEF2ED" transform="translate(0,0)"/>
<path d="" fill="#FFF2ED" transform="translate(0,0)"/>
<path d="" fill="#FFF2EE" transform="translate(0,0)"/>
<path d="" fill="#FFF3EE" transform="translate(0,0)"/>
<path d="" fill="#FFF3EE" transform="translate(0,0)"/>
<path d="" fill="#FFF3EE" transform="translate(0,0)"/>
<path d="" fill="#FFF3EE" transform="translate(0,0)"/>
<path d="" fill="#FFF3EE" transform="translate(0,0)"/>
<path d="" fill="#FFF3EE" transform="translate(0,0)"/>
<path d="" fill="#FEF3EE" transform="translate(0,0)"/>
<path d="" fill="#FFF3EE" transform="translate(0,0)"/>
<path d="" fill="#FFF3EE" transform="translate(0,0)"/>
<path d="" fill="#FEF2ED" transform="translate(0,0)"/>
<path d="" fill="#FFF3EE" transform="translate(0,0)"/>
<path d="" fill="#FFF3EE" transform="translate(0,0)"/>
<path d="" fill="#FFF3EE" transform="translate(0,0)"/>
<path d="" fill="#FFF3EE" transform="translate(0,0)"/>
<path d="" fill="#FEF3ED" transform="translate(0,0)"/>
<path d="" fill="#FFF3EE" transform="translate(0,0)"/>
<path d="" fill="#FFF3EE" transform="translate(0,0)"/>
<path d="" fill="#FEF2EE" transform="translate(0,0)"/>
<path d="" fill="#FFF3EE" transform="translate(0,0)"/>
<path d="" fill="#FFF3EE" transform="translate(0,0)"/>
<path d="" fill="#FFF3EE" transform="translate(0,0)"/>
<path d="" fill="#FFF3EE" transform="translate(0,0)"/>
<path d="" fill="#FFF3EE" transform="translate(0,0)"/>
<path d="" fill="#FEF2ED" transform="translate(0,0)"/>
<path d="" fill="#FFF3EE" transform="translate(0,0)"/>
<path d="" fill="#FFF3EE" transform="translate(0,0)"/>
<path d="" fill="#FFF3EE" transform="translate(0,0)"/>
<path d="" fill="#FFF3EE" transform="translate(0,0)"/>
<path d="" fill="#FFF3EE" transform="translate(0,0)"/>
<path d="" fill="#FFF3EE" transform="translate(0,0)"/>
<path d="" fill="#FFF3EE" transform="translate(0,0)"/>
<path d="" fill="#FFF3EE" transform="translate(0,0)"/>
<path d="" fill="#FFF3EE" transform="translate(0,0)"/>
<path d="" fill="#FFF3EE" transform="translate(0,0)"/>
<path d="" fill="#FFF3EE" transform="translate(0,0)"/>
<path d="" fill="#FFF3EE" transform="translate(0,0)"/>
<path d="" fill="#FFF3EE" transform="translate(0,0)"/>
<path d="" fill="#FFF3EE" transform="translate(0,0)"/>
<path d="" fill="#FFF3EE" transform="translate(0,0)"/>
<path d="" fill="#FFF3EE" transform="translate(0,0)"/>
<path d="" fill="#FFF3EE" transform="translate(0,0)"/>
<path d="" fill="#FEF2ED" transform="translate(0,0)"/>
<path d="" fill="#FFF3EE" transform="translate(0,0)"/>
<path d="" fill="#FFF2ED" transform="translate(0,0)"/>
<path d="" fill="#FFF3EE" transform="translate(0,0)"/>
<path d="" fill="#FFF3EE" transform="translate(0,0)"/>
<path d="" fill="#FFF3EE" transform="translate(0,0)"/>
<path d="" fill="#FFF3EE" transform="translate(0,0)"/>
<path d="" fill="#FFF2EE" transform="translate(0,0)"/>
<path d="" fill="#FFF2EE" transform="translate(0,0)"/>
<path d="" fill="#FFF2ED" transform="translate(0,0)"/>
<path d="" fill="#FFF3EE" transform="translate(0,0)"/>
<path d="" fill="#FEF3EE" transform="translate(0,0)"/>
<path d="" fill="#FFF3EE" transform="translate(0,0)"/>
<path d="" fill="#FFF3EE" transform="translate(0,0)"/>
<path d="" fill="#FFF2ED" transform="translate(0,0)"/>
<path d="" fill="#FFF3EE" transform="translate(0,0)"/>
<path d="" fill="#FFF3EE" transform="translate(0,0)"/>
<path d="" fill="#FFF3EE" transform="translate(0,0)"/>
<path d="" fill="#FFF2ED" transform="translate(0,0)"/>
<path d="" fill="#FFF3EE" transform="translate(0,0)"/>
<path d="" fill="#FFF3EE" transform="translate(0,0)"/>
<path d="" fill="#FFF3EE" transform="translate(0,0)"/>
<path d="" fill="#FFF3ED" transform="translate(0,0)"/>
<path d="" fill="#FFF2EE" transform="translate(0,0)"/>
<path d="" fill="#FFF3ED" transform="translate(0,0)"/>
<path d="" fill="#FFF3EE" transform="translate(0,0)"/>
<path d="" fill="#FEF2ED" transform="translate(0,0)"/>
<path d="" fill="#FFF3EE" transform="translate(0,0)"/>
<path d="" fill="#FFF3EE" transform="translate(0,0)"/>
<path d="" fill="#FEF2ED" transform="translate(0,0)"/>
<path d="" fill="#FFF3EE" transform="translate(0,0)"/>
<path d="" fill="#FFF3ED" transform="translate(0,0)"/>
<path d="" fill="#FFF2ED" transform="translate(0,0)"/>
<path d="" fill="#FFF2EE" transform="translate(0,0)"/>
<path d="" fill="#FFF3EE" transform="translate(0,0)"/>
<path d="" fill="#FFF2EE" transform="translate(0,0)"/>
<path d="" fill="#FFF3EE" transform="translate(0,0)"/>
<path d="" fill="#FFF2ED" transform="translate(0,0)"/>
<path d="" fill="#FFF3EE" transform="translate(0,0)"/>
<path d="" fill="#FFF2ED" transform="translate(0,0)"/>
<path d="" fill="#FFF3EE" transform="translate(0,0)"/>
<path d="" fill="#FFF3ED" transform="translate(0,0)"/>
<path d="" fill="#FFF3ED" transform="translate(0,0)"/>
<path d="" fill="#FFF3EE" transform="translate(0,0)"/>
<path d="" fill="#FFF3EE" transform="translate(0,0)"/>
<path d="" fill="#FFF3EE" transform="translate(0,0)"/>
<path d="" fill="#FFF2ED" transform="translate(0,0)"/>
<path d="" fill="#FFF3ED" transform="translate(0,0)"/>
<path d="" fill="#FFF2EE" transform="translate(0,0)"/>
<path d="" fill="#FFF2ED" transform="translate(0,0)"/>
<path d="" fill="#FFF3EE" transform="translate(0,0)"/>
<path d="" fill="#FFF2ED" transform="translate(0,0)"/>
<path d="" fill="#FFF2EE" transform="translate(0,0)"/>
<path d="" fill="#FEF2ED" transform="translate(0,0)"/>
<path d="" fill="#FEF2EE" transform="translate(0,0)"/>
<path d="" fill="#FFF3EE" transform="translate(0,0)"/>
<path d="" fill="#FEF2ED" transform="translate(0,0)"/>
<path d="" fill="#FFF3EE" transform="translate(0,0)"/>
<path d="" fill="#FFF3EE" transform="translate(0,0)"/>
<path d="" fill="#FEF3ED" transform="translate(0,0)"/>
<path d="" fill="#FFF3EE" transform="translate(0,0)"/>
<path d="" fill="#FEF2ED" transform="translate(0,0)"/>
<path d="" fill="#FFF3EE" transform="translate(0,0)"/>
<path d="" fill="#FEF2EE" transform="translate(0,0)"/>
<path d="" fill="#FFF3EE" transform="translate(0,0)"/>
<path d="" fill="#FEF2EE" transform="translate(0,0)"/>
<path d="" fill="#FEF2EE" transform="translate(0,0)"/>
<path d="" fill="#FFF3EE" transform="translate(0,0)"/>
<path d="" fill="#FFF2ED" transform="translate(0,0)"/>
<path d="" fill="#FFF3EE" transform="translate(0,0)"/>
<path d="" fill="#FFF3EE" transform="translate(0,0)"/>
<path d="" fill="#FFF2EE" transform="translate(0,0)"/>
<path d="" fill="#FFF3EE" transform="translate(0,0)"/>
<path d="" fill="#FFF2ED" transform="translate(0,0)"/>
<path d="" fill="#FFF3EE" transform="translate(0,0)"/>
<path d="" fill="#FFF3EE" transform="translate(0,0)"/>
<path d="" fill="#FFF3EE" transform="translate(0,0)"/>
<path d="" fill="#FFF3ED" transform="translate(0,0)"/>
<path d="" fill="#FEF2ED" transform="translate(0,0)"/>
<path d="" fill="#FFF3EE" transform="translate(0,0)"/>
<path d="" fill="#FFF3EE" transform="translate(0,0)"/>
<path d="" fill="#FFF3ED" transform="translate(0,0)"/>
<path d="" fill="#FFF3EE" transform="translate(0,0)"/>
<path d="" fill="#FFF3EE" transform="translate(0,0)"/>
<path d="" fill="#FFF3EE" transform="translate(0,0)"/>
<path d="" fill="#FFF3EE" transform="translate(0,0)"/>
<path d="" fill="#FFF3EE" transform="translate(0,0)"/>
<path d="" fill="#FEF3EE" transform="translate(0,0)"/>
<path d="" fill="#FFF3EE" transform="translate(0,0)"/>
<path d="" fill="#FFF3EE" transform="translate(0,0)"/>
<path d="" fill="#FEF3EE" transform="translate(0,0)"/>
<path d="" fill="#FFF3EE" transform="translate(0,0)"/>
<path d="" fill="#FFF3EE" transform="translate(0,0)"/>
<path d="" fill="#FFF2EE" transform="translate(0,0)"/>
<path d="" fill="#FFF3EE" transform="translate(0,0)"/>
<path d="" fill="#FFF3EE" transform="translate(0,0)"/>
<path d="" fill="#FFF3EE" transform="translate(0,0)"/>
<path d="" fill="#FEF2ED" transform="translate(0,0)"/>
<path d="" fill="#FFF2ED" transform="translate(0,0)"/>
<path d="" fill="#FFF2ED" transform="translate(0,0)"/>
<path d="" fill="#FEF3ED" transform="translate(0,0)"/>
<path d="" fill="#FFF2ED" transform="translate(0,0)"/>
<path d="" fill="#FFF3EE" transform="translate(0,0)"/>
<path d="" fill="#FFF2ED" transform="translate(0,0)"/>
<path d="" fill="#FEF2ED" transform="translate(0,0)"/>
<path d="" fill="#FFF3ED" transform="translate(0,0)"/>
<path d="" fill="#FFF3ED" transform="translate(0,0)"/>
<path d="" fill="#FFF2ED" transform="translate(0,0)"/>
<path d="" fill="#FEF2ED" transform="translate(0,0)"/>
<path d="" fill="#FFF2ED" transform="translate(0,0)"/>
<path d="" fill="#FFF2ED" transform="translate(0,0)"/>
<path d="" fill="#FFF3EE" transform="translate(0,0)"/>
<path d="" fill="#FFF3EE" transform="translate(0,0)"/>
<path d="" fill="#FFF2ED" transform="translate(0,0)"/>
<path d="" fill="#FFF3ED" transform="translate(0,0)"/>
<path d="" fill="#FFF2ED" transform="translate(0,0)"/>
<path d="" fill="#FFF3EE" transform="translate(0,0)"/>
<path d="" fill="#FFF3EE" transform="translate(0,0)"/>
<path d="" fill="#FFF2EE" transform="translate(0,0)"/>
<path d="" fill="#FFF3ED" transform="translate(0,0)"/>
<path d="" fill="#FFF3EE" transform="translate(0,0)"/>
<path d="" fill="#FFF3EE" transform="translate(0,0)"/>
<path d="" fill="#FFF2EE" transform="translate(0,0)"/>
<path d="" fill="#FFF2EE" transform="translate(0,0)"/>
<path d="" fill="#FFF3EE" transform="translate(0,0)"/>
<path d="" fill="#FFF2ED" transform="translate(0,0)"/>
<path d="" fill="#FFF2EE" transform="translate(0,0)"/>
<path d="" fill="#FEF2ED" transform="translate(0,0)"/>
<path d="" fill="#FFF3EE" transform="translate(0,0)"/>
<path d="" fill="#FFF3EE" transform="translate(0,0)"/>
<path d="" fill="#FFF3EE" transform="translate(0,0)"/>
<path d="" fill="#FFF2EE" transform="translate(0,0)"/>
<path d="" fill="#FFF2ED" transform="translate(0,0)"/>
<path d="" fill="#FFF3EE" transform="translate(0,0)"/>
<path d="" fill="#FFF2EE" transform="translate(0,0)"/>
<path d="" fill="#FFF3EE" transform="translate(0,0)"/>
<path d="" fill="#FEF2EE" transform="translate(0,0)"/>
<path d="" fill="#FEF3EE" transform="translate(0,0)"/>
<path d="" fill="#FFF3EE" transform="translate(0,0)"/>
</svg>
