<svg width="170" height="53" viewBox="0 0 170 53" fill="none" xmlns="http://www.w3.org/2000/svg">
<path d="M0 26.5C0 11.8645 11.8645 0 26.5 0H143.5C158.136 0 170 11.8645 170 26.5C170 41.1355 158.136 53 143.5 53H26.5C11.8645 53 0 41.1355 0 26.5Z" fill="#FFCC00"/>
<path d="M35 16C30.8 16 27 19.22 27 24.2C27 27.38 29.45 31.12 34.34 35.43C34.72 35.76 35.29 35.76 35.67 35.43C40.55 31.12 43 27.38 43 24.2C43 19.22 39.2 16 35 16ZM35 26C33.9 26 33 25.1 33 24C33 22.9 33.9 22 35 22C36.1 22 37 22.9 37 24C37 25.1 36.1 26 35 26Z" fill="black"/>
<path d="M61.0021 22.3643V20.8182H69.1257V22.3643H65.9787V31H64.1491V22.3643H61.0021ZM72.8358 31.1491C72.09 31.1491 71.4437 30.9851 70.8968 30.657C70.35 30.3288 69.9257 29.8698 69.6241 29.2798C69.3258 28.6899 69.1767 28.0005 69.1767 27.2116C69.1767 26.4228 69.3258 25.7318 69.6241 25.1385C69.9257 24.5452 70.35 24.0845 70.8968 23.7564C71.4437 23.4283 72.09 23.2642 72.8358 23.2642C73.5815 23.2642 74.2278 23.4283 74.7747 23.7564C75.3216 24.0845 75.7441 24.5452 76.0424 25.1385C76.344 25.7318 76.4949 26.4228 76.4949 27.2116C76.4949 28.0005 76.344 28.6899 76.0424 29.2798C75.7441 29.8698 75.3216 30.3288 74.7747 30.657C74.2278 30.9851 73.5815 31.1491 72.8358 31.1491ZM72.8457 29.7074C73.2501 29.7074 73.5881 29.5964 73.8599 29.3743C74.1317 29.1489 74.3339 28.8473 74.4664 28.4695C74.6023 28.0916 74.6703 27.6707 74.6703 27.2067C74.6703 26.7393 74.6023 26.3168 74.4664 25.9389C74.3339 25.5578 74.1317 25.2545 73.8599 25.0291C73.5881 24.8037 73.2501 24.6911 72.8457 24.6911C72.4314 24.6911 72.0867 24.8037 71.8116 25.0291C71.5398 25.2545 71.336 25.5578 71.2001 25.9389C71.0675 26.3168 71.0012 26.7393 71.0012 27.2067C71.0012 27.6707 71.0675 28.0916 71.2001 28.4695C71.336 28.8473 71.5398 29.1489 71.8116 29.3743C72.0867 29.5964 72.4314 29.7074 72.8457 29.7074ZM78.0224 33.8636V23.3636H79.7923V24.6264H79.8967C79.9895 24.4408 80.1204 24.2436 80.2894 24.0348C80.4585 23.8227 80.6871 23.642 80.9755 23.4929C81.2639 23.3404 81.6317 23.2642 82.0792 23.2642C82.6692 23.2642 83.2011 23.415 83.6751 23.7166C84.1523 24.0149 84.5302 24.4574 84.8086 25.044C85.0903 25.6274 85.2312 26.3433 85.2312 27.1918C85.2312 28.0303 85.0936 28.7429 84.8185 29.3295C84.5434 29.9162 84.1689 30.3636 83.695 30.6719C83.221 30.9801 82.6841 31.1342 82.0842 31.1342C81.6467 31.1342 81.2837 31.0613 80.9954 30.9155C80.707 30.7697 80.475 30.594 80.2994 30.3885C80.127 30.1797 79.9928 29.9825 79.8967 29.7969H79.8221V33.8636H78.0224ZM79.7873 27.1818C79.7873 27.6757 79.8569 28.1082 79.9961 28.4794C80.1386 28.8506 80.3425 29.1406 80.6076 29.3494C80.8761 29.5549 81.2009 29.6577 81.582 29.6577C81.9798 29.6577 82.3129 29.5516 82.5813 29.3395C82.8498 29.1241 83.052 28.8307 83.1879 28.4595C83.3271 28.085 83.3967 27.6591 83.3967 27.1818C83.3967 26.7079 83.3287 26.2869 83.1928 25.919C83.0569 25.5511 82.8548 25.2628 82.5863 25.054C82.3178 24.8452 81.9831 24.7408 81.582 24.7408C81.1976 24.7408 80.8711 24.8419 80.6026 25.044C80.3342 25.2462 80.1303 25.5296 79.9911 25.8942C79.8552 26.2588 79.7873 26.688 79.7873 27.1818ZM93.7972 31V20.8182H97.6154C98.3976 20.8182 99.0539 20.964 99.5842 21.2557C100.118 21.5473 100.52 21.9484 100.792 22.4588C101.067 22.9659 101.205 23.5426 101.205 24.1889C101.205 24.8419 101.067 25.4219 100.792 25.929C100.517 26.4361 100.111 26.8355 99.5742 27.1271C99.0373 27.4155 98.3761 27.5597 97.5906 27.5597H95.06V26.0433H97.342C97.7994 26.0433 98.1739 25.9638 98.4656 25.8047C98.7572 25.6456 98.9727 25.4268 99.1119 25.1484C99.2544 24.87 99.3256 24.5502 99.3256 24.1889C99.3256 23.8277 99.2544 23.5095 99.1119 23.2344C98.9727 22.9593 98.7556 22.7455 98.4606 22.593C98.1689 22.4373 97.7927 22.3594 97.332 22.3594H95.6417V31H93.7972ZM104.527 20.8182V31H102.727V20.8182H104.527ZM108.575 31.1541C108.091 31.1541 107.656 31.0679 107.268 30.8956C106.883 30.7199 106.578 30.4614 106.353 30.12C106.131 29.7786 106.02 29.3577 106.02 28.8572C106.02 28.4264 106.099 28.0701 106.259 27.7884C106.418 27.5066 106.635 27.2813 106.91 27.1122C107.185 26.9432 107.495 26.8156 107.839 26.7294C108.188 26.6399 108.547 26.5753 108.918 26.5355C109.366 26.4891 109.729 26.4477 110.007 26.4112C110.286 26.3715 110.488 26.3118 110.614 26.2322C110.743 26.1494 110.808 26.0218 110.808 25.8494V25.8196C110.808 25.4451 110.697 25.1551 110.474 24.9496C110.252 24.7441 109.933 24.6413 109.515 24.6413C109.074 24.6413 108.724 24.7375 108.466 24.9297C108.211 25.1219 108.038 25.349 107.949 25.6108L106.268 25.3722C106.401 24.9081 106.62 24.5204 106.925 24.2088C107.23 23.8939 107.603 23.6586 108.043 23.5028C108.484 23.3438 108.971 23.2642 109.505 23.2642C109.873 23.2642 110.239 23.3073 110.604 23.3935C110.968 23.4796 111.301 23.6222 111.603 23.821C111.905 24.0166 112.147 24.2834 112.329 24.6214C112.514 24.9595 112.607 25.3821 112.607 25.8892V31H110.877V29.951H110.817C110.708 30.1631 110.554 30.362 110.355 30.5476C110.16 30.7299 109.913 30.8774 109.614 30.9901C109.319 31.0994 108.973 31.1541 108.575 31.1541ZM109.043 29.8317C109.404 29.8317 109.717 29.7604 109.982 29.6179C110.247 29.4721 110.451 29.2798 110.594 29.0412C110.74 28.8026 110.813 28.5424 110.813 28.2607V27.3608C110.756 27.4072 110.66 27.4503 110.524 27.4901C110.392 27.5298 110.242 27.5646 110.077 27.5945C109.911 27.6243 109.747 27.6508 109.585 27.674C109.422 27.6972 109.281 27.7171 109.162 27.7337C108.893 27.7701 108.653 27.8298 108.441 27.9126C108.229 27.9955 108.062 28.1115 107.939 28.2607C107.816 28.4065 107.755 28.5954 107.755 28.8274C107.755 29.1589 107.876 29.4091 108.118 29.5781C108.36 29.7472 108.668 29.8317 109.043 29.8317ZM117.748 31.1491C116.986 31.1491 116.331 30.9818 115.784 30.647C115.241 30.3123 114.821 29.8499 114.526 29.2599C114.235 28.6667 114.089 27.9839 114.089 27.2116C114.089 26.4361 114.238 25.7517 114.536 25.1584C114.835 24.5618 115.255 24.0978 115.799 23.7663C116.346 23.4316 116.992 23.2642 117.738 23.2642C118.358 23.2642 118.906 23.3786 119.384 23.6072C119.864 23.8326 120.247 24.1525 120.532 24.5668C120.817 24.9777 120.979 25.4583 121.019 26.0085H119.299C119.229 25.6406 119.064 25.334 118.802 25.0888C118.543 24.8402 118.197 24.7159 117.763 24.7159C117.395 24.7159 117.072 24.8153 116.793 25.0142C116.515 25.2098 116.298 25.4915 116.142 25.8594C115.99 26.2273 115.913 26.6681 115.913 27.1818C115.913 27.7022 115.99 28.1496 116.142 28.5241C116.295 28.8954 116.508 29.1821 116.783 29.3842C117.062 29.5831 117.388 29.6825 117.763 29.6825C118.028 29.6825 118.265 29.6328 118.474 29.5334C118.686 29.4306 118.863 29.2831 119.006 29.0909C119.148 28.8987 119.246 28.665 119.299 28.3899H121.019C120.976 28.9302 120.817 29.4091 120.542 29.8267C120.267 30.241 119.892 30.5658 119.418 30.8011C118.944 31.0331 118.388 31.1491 117.748 31.1491ZM125.878 31.1491C125.112 31.1491 124.451 30.9901 123.894 30.6719C123.341 30.3504 122.915 29.8963 122.616 29.3097C122.318 28.7197 122.169 28.0253 122.169 27.2266C122.169 26.4411 122.318 25.7517 122.616 25.1584C122.918 24.5618 123.339 24.0978 123.879 23.7663C124.419 23.4316 125.054 23.2642 125.783 23.2642C126.254 23.2642 126.698 23.3404 127.116 23.4929C127.537 23.642 127.908 23.8741 128.229 24.1889C128.554 24.5038 128.809 24.9048 128.995 25.392C129.18 25.8759 129.273 26.4527 129.273 27.1222V27.674H123.014V26.4609H127.548C127.545 26.1162 127.47 25.8097 127.324 25.5412C127.179 25.2694 126.975 25.0556 126.713 24.8999C126.454 24.7441 126.153 24.6662 125.808 24.6662C125.44 24.6662 125.117 24.7557 124.839 24.9347C124.56 25.1103 124.343 25.3423 124.187 25.6307C124.035 25.9157 123.957 26.2289 123.954 26.5703V27.6293C123.954 28.0734 124.035 28.4545 124.197 28.7727C124.36 29.0876 124.587 29.3295 124.878 29.4986C125.17 29.6643 125.511 29.7472 125.903 29.7472C126.164 29.7472 126.401 29.7107 126.613 29.6378C126.826 29.5616 127.01 29.4505 127.165 29.3047C127.321 29.1589 127.439 28.9782 127.518 28.7628L129.199 28.9517C129.093 29.3958 128.89 29.7836 128.592 30.1151C128.297 30.4432 127.919 30.6984 127.459 30.8807C126.998 31.0597 126.471 31.1491 125.878 31.1491ZM136.831 25.3821L135.191 25.5611C135.144 25.3954 135.063 25.2396 134.947 25.0938C134.834 24.9479 134.682 24.8303 134.49 24.7408C134.297 24.6513 134.062 24.6065 133.784 24.6065C133.409 24.6065 133.094 24.6877 132.839 24.8501C132.587 25.0125 132.463 25.223 132.466 25.4815C132.463 25.7036 132.544 25.8842 132.71 26.0234C132.879 26.1626 133.157 26.277 133.545 26.3665L134.848 26.6449C135.57 26.8007 136.107 27.0476 136.458 27.3857C136.813 27.7237 136.992 28.1662 136.995 28.7131C136.992 29.1937 136.851 29.6179 136.573 29.9858C136.298 30.3504 135.915 30.6354 135.424 30.8409C134.934 31.0464 134.37 31.1491 133.734 31.1491C132.799 31.1491 132.047 30.9536 131.477 30.5625C130.907 30.1681 130.567 29.6196 130.458 28.9169L132.213 28.7479C132.292 29.0926 132.461 29.3527 132.72 29.5284C132.978 29.7041 133.315 29.7919 133.729 29.7919C134.157 29.7919 134.5 29.7041 134.758 29.5284C135.02 29.3527 135.151 29.1357 135.151 28.8771C135.151 28.6584 135.066 28.4777 134.897 28.3352C134.732 28.1927 134.473 28.0833 134.122 28.0071L132.819 27.7337C132.087 27.5812 131.545 27.3243 131.194 26.9631C130.842 26.5985 130.668 26.1378 130.672 25.581C130.668 25.1103 130.796 24.7027 131.054 24.358C131.316 24.0099 131.679 23.7415 132.143 23.5526C132.61 23.3603 133.149 23.2642 133.759 23.2642C134.654 23.2642 135.358 23.4548 135.872 23.8359C136.389 24.2171 136.709 24.7325 136.831 25.3821Z" fill="black"/>
</svg>
