<?xml version="1.0" encoding="UTF-8"?>
<svg version="1.1" xmlns="http://www.w3.org/2000/svg" width="550" height="550">
<path d="M0 0 C1.01474396 0.00182281 2.02948792 0.00364563 3.07498169 0.00552368 C17.68257879 0.04971193 31.9482895 0.43185732 46.3125 3.3125 C47.24384766 3.48942383 48.17519531 3.66634766 49.13476562 3.84863281 C90.67170736 11.8280254 129.8079862 28.31672577 163.3125 54.3125 C164.69501953 55.37597656 164.69501953 55.37597656 166.10546875 56.4609375 C172.08266521 61.15002495 177.71675476 66.17825952 183.3125 71.3125 C184.35256946 72.25943884 185.39294645 73.20603997 186.43359375 74.15234375 C197.11728705 83.89030471 197.11728705 83.89030471 200.3125 87.3125 C200.3125 87.9725 200.3125 88.6325 200.3125 89.3125 C200.89773438 89.38726562 201.48296875 89.46203125 202.0859375 89.5390625 C205.09885205 90.58565387 206.04716944 92.13756473 207.9375 94.6875 C210.78040256 98.40313184 213.71307137 101.86116793 216.9375 105.25 C229.3802236 118.83775951 239.24870087 134.33726384 248.3125 150.3125 C248.71807129 151.0152002 249.12364258 151.71790039 249.54150391 152.44189453 C260.52733641 171.58310835 267.83716263 192.34163398 273.57421875 213.58666992 C274.08084545 215.45720136 274.59973637 217.3244413 275.12890625 219.1887207 C276.59276422 224.381064 277.76914587 229.397091 278.4375 234.75 C278.93484834 238.99523296 278.93484834 238.99523296 279.80517578 243.16943359 C282.62436771 255.07841662 281.5553092 268.47121144 281.5625 280.625 C281.56351212 282.16343063 281.56351212 282.16343063 281.56454468 283.73294067 C281.54877847 298.82001893 281.12857611 313.45050316 278.3125 328.3125 C278.07901855 329.65320557 278.07901855 329.65320557 277.84082031 331.02099609 C273.55172456 355.32159147 265.26125489 379.22808425 254.3125 401.3125 C253.96928711 402.02051758 253.62607422 402.72853516 253.27246094 403.45800781 C243.26787233 423.9697852 229.84266518 443.27505231 214.390625 460.05078125 C212.50521065 462.10276416 210.68479967 464.19401954 208.875 466.3125 C202.13828816 474.00938687 194.86153249 480.88662494 186.8671875 487.26171875 C184.60443539 489.07814819 182.42135839 490.95141072 180.25 492.875 C177.3125 495.3125 177.3125 495.3125 175.3125 495.3125 C175.3125 495.9725 175.3125 496.6325 175.3125 497.3125 C173.48681641 498.7578125 173.48681641 498.7578125 170.9140625 500.4375 C169.49601318 501.36647095 169.49601318 501.36647095 168.04931641 502.31420898 C167.02241699 502.97364502 165.99551758 503.63308105 164.9375 504.3125 C163.89126465 504.98804932 162.8450293 505.66359863 161.76708984 506.35961914 C152.82148897 512.08368601 143.74995823 517.44283325 134.3125 522.3125 C133.64686035 522.65829102 132.9812207 523.00408203 132.29541016 523.36035156 C99.80335569 540.01600935 61.42776878 550.52700884 24.80078125 550.4453125 C23.82948776 550.44626923 22.85819427 550.44722595 21.85746765 550.44821167 C19.81456436 550.44888777 17.77165885 550.44707359 15.72875977 550.44287109 C12.65050256 550.43754413 9.5723932 550.44282059 6.49414062 550.44921875 C-22.08043382 550.46017896 -22.08043382 550.46017896 -33.6875 547.3125 C-36.09226239 547.06413929 -38.48827888 546.88226991 -40.90234375 546.75390625 C-44.18460098 546.23371682 -47.12400261 545.21234313 -50.25805664 544.1262207 C-53.43246076 543.06298194 -56.64660942 542.19828756 -59.87695312 541.32324219 C-92.92721339 532.31068075 -123.59573295 517.29872427 -150.6875 496.3125 C-152.03521484 495.28382813 -152.03521484 495.28382813 -153.41015625 494.234375 C-158.74069859 490.07807257 -163.73853118 485.61214694 -168.66674805 480.9921875 C-170.93305679 478.87387172 -173.09720212 477.03936526 -175.6875 475.3125 C-175.6875 474.6525 -175.6875 473.9925 -175.6875 473.3125 C-178.3275 472.9825 -180.9675 472.6525 -183.6875 472.3125 C-182.6975 471.3225 -181.7075 470.3325 -180.6875 469.3125 C-181.5125 468.69375 -182.3375 468.075 -183.1875 467.4375 C-184.0125 466.73625 -184.8375 466.035 -185.6875 465.3125 C-185.6875 464.6525 -185.6875 463.9925 -185.6875 463.3125 C-187.0075 462.9825 -188.3275 462.6525 -189.6875 462.3125 C-189.6875 461.6525 -189.6875 460.9925 -189.6875 460.3125 C-190.3475 460.3125 -191.0075 460.3125 -191.6875 460.3125 C-193.01953125 458.73828125 -193.01953125 458.73828125 -194.5 456.625 C-196.93897215 453.15289756 -199.67224646 450.29582196 -202.6875 447.3125 C-246.17364565 398.69682661 -269.24164745 334.64723676 -269 269.75 C-268.99817719 268.73436981 -268.99635437 267.71873962 -268.99447632 266.67233276 C-268.9491443 251.67127385 -268.48724152 237.08829018 -265.6875 222.3125 C-265.5318457 221.41869629 -265.37619141 220.52489258 -265.21582031 219.60400391 C-259.75643094 188.67291261 -247.75887493 159.70813895 -232.6875 132.3125 C-232.13449219 131.30445313 -231.58148438 130.29640625 -231.01171875 129.2578125 C-229.91300277 127.27083882 -228.80235283 125.29046471 -227.6875 123.3125 C-227.0275 123.3125 -226.3675 123.3125 -225.6875 123.3125 C-225.28241211 122.20672607 -225.28241211 122.20672607 -224.86914062 121.07861328 C-223.73340166 118.4199516 -222.48358595 116.37960731 -220.78125 114.0546875 C-220.20705322 113.26940674 -219.63285645 112.48412598 -219.04125977 111.67504883 C-218.12364868 110.44371216 -218.12364868 110.44371216 -217.1875 109.1875 C-216.24571899 107.91652466 -216.24571899 107.91652466 -215.28491211 106.61987305 C-210.42828933 100.14003918 -205.26555973 94.18360997 -199.6875 88.3125 C-198.53466152 86.98521885 -197.38835933 85.65222006 -196.25 84.3125 C-188.48237608 75.41702436 -179.98841023 67.57373693 -170.6875 60.3125 C-170.08196289 59.83055176 -169.47642578 59.34860352 -168.85253906 58.85205078 C-134.79713986 31.7613775 -95.55719031 13.2079787 -52.875 4.5 C-51.44631592 4.20754395 -51.44631592 4.20754395 -49.98876953 3.90917969 C-33.36389073 0.71652726 -16.89624462 -0.06307341 0 0 Z " fill="#FEC6A3" transform="translate(268.6875,-0.3125)"/>
<path d="M0 0 C1.17248291 0.01522705 1.17248291 0.01522705 2.36865234 0.03076172 C50.80601412 0.72013241 100.67752538 24.75662533 135.453125 57.60546875 C137.52265535 59.55120818 139.6186913 61.38682958 141.8125 63.1875 C145.63775871 66.43484193 148.76898245 70.17462698 152 74 C152.81339844 74.91394531 153.62679688 75.82789062 154.46484375 76.76953125 C191.99588762 119.26862456 210.08427223 176.76737155 207 233 C206.11532378 243.39686878 204.68206194 253.70309452 203 264 C202.86110352 264.85239258 202.72220703 265.70478516 202.57910156 266.58300781 C199.11607021 286.48882923 190.71010246 306.3632833 181 324 C180.38898438 325.14726562 179.77796875 326.29453125 179.1484375 327.4765625 C168.74727124 346.43835943 155.28782778 362.81052764 140.125 378.125 C139.41126221 378.84816406 138.69752441 379.57132812 137.9621582 380.31640625 C134.19620391 384.05892558 130.54638754 387.24936428 126 390 C125.00345515 385.79506683 124.83502157 381.7493448 124.6875 377.4375 C123.93640937 363.19116412 118.69272666 351.20373464 108.375 341.1875 C100.47011206 334.48032235 90.94428752 331.06778972 81.14453125 328.0546875 C78.46909339 327.15733567 75.89601285 326.16282638 73.28515625 325.09765625 C68.13506511 323.01319856 62.91064934 321.26712191 57.625 319.5625 C49.90688624 317.0349266 42.43795881 314.26634046 35 311 C33.33459625 310.33018468 31.66808416 309.66311195 30 309 C29.85039966 305.01679492 29.74221028 301.03470197 29.67041016 297.04931641 C29.62580212 295.03619878 29.54951583 293.02386314 29.47265625 291.01171875 C29.36420673 283.81790049 29.46786502 279.16196348 34.4140625 273.74511719 C36.99752208 270.90235717 38.51999041 267.55808322 40.1875 264.125 C40.52990723 263.42592529 40.87231445 262.72685059 41.22509766 262.0065918 C45.75746308 252.55852112 47.61829662 243.37090301 49 233 C49.74378906 233.65097656 50.48757813 234.30195313 51.25390625 234.97265625 C54.31318165 237.23121092 56.24221861 237.54564178 60.01953125 237.3046875 C64.18078998 236.66449385 66.82656847 235.3599182 69.59765625 232.1484375 C75.36048149 224.13428741 77.23592538 216.41058214 77.375 206.6875 C77.38901855 206.00550537 77.40303711 205.32351074 77.41748047 204.62084961 C77.37505664 200.20061276 76.48657951 197.61146071 74 194 C74 193.34 74 192.68 74 192 C70.7 191.01 67.4 190.02 64 189 C65.33212358 181.78433061 67.10413067 174.76726578 69.09765625 167.7109375 C73.59721024 149.20627823 73.59544708 127.2374654 64.05078125 110.49609375 C56.25957656 97.75726816 44.46859768 91.0433537 30.5625 86.5625 C26.26988676 84.67977489 25.45121412 82.9066225 23 79 C17.98953939 74.23142369 12.65380755 71.66092 6 70 C5.36989014 69.83226074 4.73978027 69.66452148 4.09057617 69.49169922 C-16.99885524 64.25386241 -41.59635264 67.82544822 -60.22314453 78.89697266 C-78.07033484 89.97606112 -91.06918007 106.357886 -96.40673828 126.81445312 C-97.44807555 132.40596287 -97.48150735 138.00909924 -97.44604492 143.67773438 C-97.43756554 145.73410441 -97.46635037 147.78765434 -97.49804688 149.84375 C-97.5579749 161.40277812 -94.94997121 171.30923673 -91.25 182.25 C-90 186 -90 186 -90 189 C-91.051875 189.20625 -92.10375 189.4125 -93.1875 189.625 C-97.56327054 190.89167042 -99.48586633 193.1928833 -102 197 C-105.59927487 205.91249016 -104.48710251 214.32604718 -101.26953125 223.16015625 C-98.94587783 228.3579902 -95.97015955 232.34091827 -91.625 236 C-88.02148982 237.37276578 -84.75602282 237.82002837 -81 237 C-78.61788686 235.54958016 -76.99471318 233.99471318 -75 232 C-74.98582031 232.6084375 -74.97164062 233.216875 -74.95703125 233.84375 C-74.28611034 246.17418842 -70.05133727 263.62801245 -61.26049805 272.81860352 C-55.84522992 278.68085921 -55.24586255 283.22182076 -55.38476562 291.09960938 C-55.44341797 292.40736328 -55.50207031 293.71511719 -55.5625 295.0625 C-55.59768598 296.41853854 -55.62961213 297.77466576 -55.65820312 299.13085938 C-55.74021057 302.42287236 -55.85494426 305.71026333 -56 309 C-57.00675781 309.35191406 -58.01351562 309.70382812 -59.05078125 310.06640625 C-68.20173575 313.26938686 -68.20173575 313.26938686 -77.3046875 316.60546875 C-78.01906982 316.87351318 -78.73345215 317.14155762 -79.46948242 317.41772461 C-80.97248854 317.98170346 -82.4752481 318.54633974 -83.9777832 319.11157227 C-89.10806801 321.01226708 -94.2778222 322.75497283 -99.48828125 324.421875 C-100.82269406 324.85247235 -102.15708518 325.28313688 -103.49145508 325.71386719 C-106.09947793 326.55486164 -108.71286506 327.3750815 -111.33081055 328.18457031 C-126.52376293 333.07213618 -137.97941371 340.77573905 -145.4375 355.1875 C-149.25696965 363.14200803 -150.43457406 370.73926497 -151.125 379.4375 C-151.25455078 380.96407227 -151.25455078 380.96407227 -151.38671875 382.52148438 C-151.59734326 385.01387442 -151.80160071 387.5066121 -152 390 C-161.64900659 382.91668654 -170.31747475 375.1930429 -178 366 C-178.78503906 365.12601562 -179.57007813 364.25203125 -180.37890625 363.3515625 C-200.14719499 341.16004044 -213.46466392 314.9518691 -223 287 C-223.39807861 285.856521 -223.39807861 285.856521 -223.80419922 284.68994141 C-241.40416138 233.38741834 -235.27487514 173.106766 -212.09741211 124.71142578 C-205.30535489 111.01135355 -197.56608513 97.94495286 -188 86 C-187.25878906 85.06671875 -186.51757812 84.1334375 -185.75390625 83.171875 C-175.24635149 70.13303755 -164.12858447 58.40214563 -151 48 C-150.04609375 47.21753906 -149.0921875 46.43507812 -148.109375 45.62890625 C-105.48731819 11.47661714 -53.68471454 -1.25505371 0 0 Z " fill="#D8EDFE" transform="translate(282,49)"/>
<path d="M0 0 C1.01474396 0.00182281 2.02948792 0.00364563 3.07498169 0.00552368 C17.68257879 0.04971193 31.9482895 0.43185732 46.3125 3.3125 C47.24384766 3.48942383 48.17519531 3.66634766 49.13476562 3.84863281 C90.67170736 11.8280254 129.8079862 28.31672577 163.3125 54.3125 C164.69501953 55.37597656 164.69501953 55.37597656 166.10546875 56.4609375 C172.08266521 61.15002495 177.71675476 66.17825952 183.3125 71.3125 C184.35256946 72.25943884 185.39294645 73.20603997 186.43359375 74.15234375 C197.11728705 83.89030471 197.11728705 83.89030471 200.3125 87.3125 C200.3125 87.9725 200.3125 88.6325 200.3125 89.3125 C200.89773438 89.38726562 201.48296875 89.46203125 202.0859375 89.5390625 C205.09885205 90.58565387 206.04716944 92.13756473 207.9375 94.6875 C210.78040256 98.40313184 213.71307137 101.86116793 216.9375 105.25 C229.3802236 118.83775951 239.24870087 134.33726384 248.3125 150.3125 C248.71807129 151.0152002 249.12364258 151.71790039 249.54150391 152.44189453 C260.52733641 171.58310835 267.83716263 192.34163398 273.57421875 213.58666992 C274.08084545 215.45720136 274.59973637 217.3244413 275.12890625 219.1887207 C276.59276422 224.381064 277.76914587 229.397091 278.4375 234.75 C278.93484834 238.99523296 278.93484834 238.99523296 279.80517578 243.16943359 C282.62436771 255.07841662 281.5553092 268.47121144 281.5625 280.625 C281.56351212 282.16343063 281.56351212 282.16343063 281.56454468 283.73294067 C281.54877847 298.82001893 281.12857611 313.45050316 278.3125 328.3125 C278.07901855 329.65320557 278.07901855 329.65320557 277.84082031 331.02099609 C273.55172456 355.32159147 265.26125489 379.22808425 254.3125 401.3125 C253.96928711 402.02051758 253.62607422 402.72853516 253.27246094 403.45800781 C243.26787233 423.9697852 229.84266518 443.27505231 214.390625 460.05078125 C212.50521065 462.10276416 210.68479967 464.19401954 208.875 466.3125 C202.13828816 474.00938687 194.86153249 480.88662494 186.8671875 487.26171875 C184.60443539 489.07814819 182.42135839 490.95141072 180.25 492.875 C177.3125 495.3125 177.3125 495.3125 175.3125 495.3125 C175.3125 495.9725 175.3125 496.6325 175.3125 497.3125 C173.48681641 498.7578125 173.48681641 498.7578125 170.9140625 500.4375 C169.49601318 501.36647095 169.49601318 501.36647095 168.04931641 502.31420898 C167.02241699 502.97364502 165.99551758 503.63308105 164.9375 504.3125 C163.89126465 504.98804932 162.8450293 505.66359863 161.76708984 506.35961914 C152.82148897 512.08368601 143.74995823 517.44283325 134.3125 522.3125 C133.64686035 522.65829102 132.9812207 523.00408203 132.29541016 523.36035156 C99.80335569 540.01600935 61.42776878 550.52700884 24.80078125 550.4453125 C23.82948776 550.44626923 22.85819427 550.44722595 21.85746765 550.44821167 C19.81456436 550.44888777 17.77165885 550.44707359 15.72875977 550.44287109 C12.65050256 550.43754413 9.5723932 550.44282059 6.49414062 550.44921875 C-22.08043382 550.46017896 -22.08043382 550.46017896 -33.6875 547.3125 C-36.09226239 547.06413929 -38.48827888 546.88226991 -40.90234375 546.75390625 C-44.18460098 546.23371682 -47.12400261 545.21234313 -50.25805664 544.1262207 C-53.43246076 543.06298194 -56.64660942 542.19828756 -59.87695312 541.32324219 C-92.92721339 532.31068075 -123.59573295 517.29872427 -150.6875 496.3125 C-152.03521484 495.28382813 -152.03521484 495.28382813 -153.41015625 494.234375 C-158.74069859 490.07807257 -163.73853118 485.61214694 -168.66674805 480.9921875 C-170.93305679 478.87387172 -173.09720212 477.03936526 -175.6875 475.3125 C-175.6875 474.6525 -175.6875 473.9925 -175.6875 473.3125 C-178.3275 472.9825 -180.9675 472.6525 -183.6875 472.3125 C-182.6975 471.3225 -181.7075 470.3325 -180.6875 469.3125 C-181.5125 468.69375 -182.3375 468.075 -183.1875 467.4375 C-184.0125 466.73625 -184.8375 466.035 -185.6875 465.3125 C-185.6875 464.6525 -185.6875 463.9925 -185.6875 463.3125 C-187.0075 462.9825 -188.3275 462.6525 -189.6875 462.3125 C-189.6875 461.6525 -189.6875 460.9925 -189.6875 460.3125 C-190.3475 460.3125 -191.0075 460.3125 -191.6875 460.3125 C-193.01953125 458.73828125 -193.01953125 458.73828125 -194.5 456.625 C-196.93897215 453.15289756 -199.67224646 450.29582196 -202.6875 447.3125 C-246.17364565 398.69682661 -269.24164745 334.64723676 -269 269.75 C-268.99817719 268.73436981 -268.99635437 267.71873962 -268.99447632 266.67233276 C-268.9491443 251.67127385 -268.48724152 237.08829018 -265.6875 222.3125 C-265.5318457 221.41869629 -265.37619141 220.52489258 -265.21582031 219.60400391 C-259.75643094 188.67291261 -247.75887493 159.70813895 -232.6875 132.3125 C-232.13449219 131.30445313 -231.58148438 130.29640625 -231.01171875 129.2578125 C-229.91300277 127.27083882 -228.80235283 125.29046471 -227.6875 123.3125 C-227.0275 123.3125 -226.3675 123.3125 -225.6875 123.3125 C-225.28241211 122.20672607 -225.28241211 122.20672607 -224.86914062 121.07861328 C-223.73340166 118.4199516 -222.48358595 116.37960731 -220.78125 114.0546875 C-220.20705322 113.26940674 -219.63285645 112.48412598 -219.04125977 111.67504883 C-218.12364868 110.44371216 -218.12364868 110.44371216 -217.1875 109.1875 C-216.24571899 107.91652466 -216.24571899 107.91652466 -215.28491211 106.61987305 C-210.42828933 100.14003918 -205.26555973 94.18360997 -199.6875 88.3125 C-198.53466152 86.98521885 -197.38835933 85.65222006 -196.25 84.3125 C-188.48237608 75.41702436 -179.98841023 67.57373693 -170.6875 60.3125 C-170.08196289 59.83055176 -169.47642578 59.34860352 -168.85253906 58.85205078 C-134.79713986 31.7613775 -95.55719031 13.2079787 -52.875 4.5 C-51.44631592 4.20754395 -51.44631592 4.20754395 -49.98876953 3.90917969 C-33.36389073 0.71652726 -16.89624462 -0.06307341 0 0 Z M-134.6875 72.3125 C-135.3072168 72.75851563 -135.92693359 73.20453125 -136.56542969 73.6640625 C-144.53348502 79.42540169 -152.14380555 85.35811309 -159.31640625 92.09375 C-161.36902646 94.01448852 -163.4675953 95.82495681 -165.625 97.625 C-176.84386536 107.45290848 -185.93997527 119.31001589 -194.6875 131.3125 C-195.12271973 131.90160156 -195.55793945 132.49070312 -196.00634766 133.09765625 C-209.44406458 151.46200344 -219.54076834 172.76924871 -226.6875 194.3125 C-226.93290527 195.05113281 -227.17831055 195.78976563 -227.43115234 196.55078125 C-247.15493832 257.15535546 -239.68292677 324.12599476 -211.09375 380.5078125 C-202.09713871 397.6855869 -190.94901484 413.46306062 -177.98339844 427.86523438 C-176.7864929 429.20194425 -175.61467956 430.5610088 -174.4453125 431.921875 C-170.80932155 436.13792676 -167.04417928 439.92978987 -162.7890625 443.51953125 C-160.52551946 445.45069529 -158.36465618 447.47211373 -156.1875 449.5 C-145.6045999 459.02623572 -133.98814436 467.17347354 -121.6875 474.3125 C-120.50240985 475.02441621 -119.31752091 475.73666747 -118.1328125 476.44921875 C-97.75001318 488.50623906 -75.71772192 496.77381794 -52.64648438 501.8671875 C-50.88748218 502.26704044 -49.13817936 502.7090086 -47.390625 503.15625 C-18.9162288 510.38325411 13.53256312 509.09764913 42.3125 504.3125 C43.11220215 504.1892334 43.9119043 504.0659668 44.73583984 503.93896484 C77.05998146 498.82867198 109.76742042 484.2586672 136.3125 465.3125 C136.91239746 464.88775391 137.51229492 464.46300781 138.13037109 464.02539062 C147.95761093 457.02462394 156.93655875 449.41613409 165.578125 441 C167.21797243 439.40447277 168.87290286 437.82625075 170.53125 436.25 C177.8953676 429.16704502 184.22596654 421.50816137 190.3125 413.3125 C190.74304688 412.73741699 191.17359375 412.16233398 191.6171875 411.56982422 C205.69772409 392.6731041 216.06491058 372.41342998 224.48876953 350.44628906 C225.14925602 348.73536675 225.83432566 347.03394324 226.52734375 345.3359375 C232.65543193 329.83113609 235.28712175 312.78183868 237.3125 296.3125 C237.45606934 295.22291992 237.45606934 295.22291992 237.60253906 294.11132812 C238.57888033 285.8316742 238.55516666 277.51278601 238.5625 269.1875 C238.56350708 268.39281311 238.56451416 267.59812622 238.56555176 266.77935791 C238.55387808 253.10296231 237.6901728 239.80269238 235.3125 226.3125 C235.1892334 225.56613281 235.0659668 224.81976563 234.93896484 224.05078125 C227.67591915 181.34757286 205.96647415 139.14289982 175.93359375 108.07421875 C174.09362349 106.13553175 172.38738735 104.22628798 170.703125 102.1640625 C168.76228684 99.84901044 166.92530258 97.93105661 164.625 96 C161.5926639 93.42420521 158.66063295 90.77490048 155.75 88.0625 C123.36997326 58.94519351 80.17493981 39.7222273 37.3125 33.3125 C36.54921387 33.19535645 35.78592773 33.07821289 34.99951172 32.95751953 C-23.26379019 24.46105102 -86.68360433 37.58099926 -134.6875 72.3125 Z " fill="#F0F0F0" transform="translate(268.6875,-0.3125)"/>
<path d="M0 0 C0.83418457 0.12858398 1.66836914 0.25716797 2.52783203 0.38964844 C45.47452609 7.30830011 85.99394471 29.97485251 117.7890625 59.01171875 C119.55080083 60.5960382 121.33088787 62.09390998 123.1875 63.5625 C126.11578078 66.10034334 128.53780834 68.78529804 131.0390625 71.734375 C132.39273918 73.29838392 133.78654509 74.82823476 135.2109375 76.328125 C147.01048753 88.77684122 156.6280505 103.06791217 165 118 C165.3707666 118.65258789 165.7415332 119.30517578 166.12353516 119.97753906 C179.52854949 143.72617546 188.49640716 170.11349204 193 197 C193.11714355 197.68755371 193.23428711 198.37510742 193.35498047 199.08349609 C197.13407486 222.69581692 196.56636989 248.92448772 192.44873047 272.43359375 C191.99576189 275.02423883 191.5920667 277.61955642 191.19140625 280.21875 C185.92528753 312.53755201 171.989388 344.39436466 153 371 C152.57525391 371.59989746 152.15050781 372.19979492 151.71289062 372.81787109 C144.71212394 382.64511093 137.10363409 391.62405875 128.6875 400.265625 C127.09197277 401.90547243 125.51375075 403.56040286 123.9375 405.21875 C116.85454502 412.5828676 109.19566137 418.91346654 101 425 C100.13737549 425.64582031 100.13737549 425.64582031 99.25732422 426.3046875 C67.74950811 449.78214574 30.85059678 465.17772416 -8 471 C-8.70350586 471.11714355 -9.40701172 471.23428711 -10.13183594 471.35498047 C-34.6166543 475.40768159 -61.66058777 474.30995624 -86 470 C-86.76231934 469.87141602 -87.52463867 469.74283203 -88.31005859 469.61035156 C-132.14513683 461.96910705 -172.22986476 439.72294291 -204.7890625 409.98828125 C-206.55080083 408.4039618 -208.33088787 406.90609002 -210.1875 405.4375 C-213.13733958 402.88097236 -215.58505274 400.16990516 -218.10546875 397.19921875 C-219.36667676 395.73517729 -220.66154543 394.29946368 -221.98828125 392.89453125 C-233.47254662 380.69643586 -242.80841713 366.56909973 -251 352 C-251.36544922 351.36336426 -251.73089844 350.72672852 -252.10742188 350.07080078 C-259.0659142 337.88740933 -264.15151965 325.14454816 -269 312 C-269.49989779 310.69266925 -269.99988412 309.38537234 -270.5 308.078125 C-289.97689611 254.27319949 -284.42598738 187.58902707 -260.66699219 136.28979492 C-249.94504354 113.84941507 -237.11542474 93.1611737 -220 75 C-218.95502136 73.75276743 -217.91331864 72.50278244 -216.875 71.25 C-187.37451154 37.62214962 -144.04327038 13.78332453 -101 3 C-100.2692627 2.81598633 -99.53852539 2.63197266 -98.78564453 2.44238281 C-66.91139573 -5.37441349 -32.28936768 -5.14323903 0 0 Z M-169 54 C-170.02609375 54.75539062 -171.0521875 55.51078125 -172.109375 56.2890625 C-188.80796883 68.78035418 -204.05696553 82.46201073 -216.62060547 99.171875 C-217.9935265 100.9914206 -219.38795842 102.79280849 -220.78515625 104.59375 C-227.40379302 113.23861855 -232.84484208 122.28815432 -237.90380859 131.921875 C-238.86872267 133.75112859 -239.86370824 135.56445266 -240.86328125 137.375 C-250.22226136 154.93115579 -256.28500049 174.50647907 -260 194 C-260.24339111 195.25151855 -260.24339111 195.25151855 -260.49169922 196.52832031 C-264.80605836 219.70742626 -264.44407595 244.72296671 -261 268 C-260.83854492 269.18021729 -260.83854492 269.18021729 -260.67382812 270.38427734 C-255.54476284 306.58475646 -239.57660913 341.44019057 -217 370 C-216.27039063 370.92296875 -215.54078125 371.8459375 -214.7890625 372.796875 C-207.87160134 381.38908992 -200.77271293 389.98025014 -192.2890625 397.078125 C-190.50517197 398.57586244 -188.75680222 400.11594132 -187.0234375 401.671875 C-142.51295977 441.42555786 -83.98383479 457.87568297 -25.17675781 454.85498047 C25.69576465 451.34135288 73.41190873 427.76094245 110 393 C110.53560547 392.49307617 111.07121094 391.98615234 111.62304688 391.46386719 C119.91372014 383.5625894 127.19466277 375.20722096 134 366 C134.63421875 365.14921875 135.2684375 364.2984375 135.921875 363.421875 C147.94275887 346.76909092 157.06922747 328.52496552 164.15258789 309.29589844 C164.75839241 307.65458882 165.37612313 306.01766137 166.00170898 304.38378906 C184.93779854 254.14210338 180.08701217 194.30874235 158.71875 145.72265625 C151.27524076 129.34723481 142.21989919 114.07036007 131 100 C130.29488281 99.1028125 129.58976562 98.205625 128.86328125 97.28125 C120.72123941 87.10735211 112.06707704 77.30391665 102 69 C101.20207031 68.29101562 100.40414063 67.58203125 99.58203125 66.8515625 C77.46846416 47.57626707 51.62666651 34.3788128 24 25 C23.22172852 24.73461426 22.44345703 24.46922852 21.64160156 24.19580078 C5.07581 18.66266201 -12.54051666 15.37125268 -30 15 C-31.0199707 14.96890137 -32.03994141 14.93780273 -33.09082031 14.90576172 C-81.09289293 13.56526039 -129.84083528 25.03137814 -169 54 Z " fill="#413B6F" transform="translate(312,34)"/>
<path d="M0 0 C0.47308594 0.89460938 0.94617188 1.78921875 1.43359375 2.7109375 C10.62982213 19.69638546 22.87324006 31.42195414 41.69140625 37.1171875 C46.5531435 38.27193597 51.33426798 38.34399925 56.3125 38.3125 C57.24312256 38.30686035 58.17374512 38.3012207 59.13256836 38.29541016 C74.84522137 38.0176022 88.56572214 31.83552345 100 21 C105.89616412 14.67215243 110.13268534 7.70533148 114 0 C121.53541879 1.16330198 128.42445359 3.41647044 135.54785156 6.08984375 C138.55329261 7.20536388 141.56960175 8.2892893 144.5859375 9.375 C146.99496511 10.24952235 149.40381751 11.12452753 151.8125 12 C152.96935303 12.41507812 154.12620605 12.83015625 155.31811523 13.2578125 C172.30231268 19.48327152 184.11515325 28.0623834 192.28125 44.59375 C193.53885091 47.71978654 194.30211414 50.69899988 195 54 C195.27070312 55.22251465 195.27070312 55.22251465 195.546875 56.46972656 C196.84843646 62.95661591 197.91129085 69.54722428 196 76 C192.15164688 81.45707029 186.19257954 84.58089312 180.42285156 87.6875 C178.22364222 88.87884919 176.12552529 90.14673385 174.0234375 91.5 C124.20231653 123.37601008 63.25377682 132.20917285 5.8828125 119.71484375 C-20.32280975 113.56095894 -44.77695044 102.1292813 -67.12011719 87.22802734 C-69.01294826 85.99154159 -70.94216812 84.83536285 -72.8828125 83.67578125 C-77.66436023 80.65433175 -81.44896481 78.24120592 -82.87109375 72.45703125 C-82.93936047 68.51763994 -82.59659783 64.89209061 -82 61 C-81.88269531 59.91847656 -81.76539063 58.83695312 -81.64453125 57.72265625 C-79.77206356 43.31763253 -72.83628397 31.14026054 -61.56225586 21.89306641 C-51.8475332 14.71555716 -39.97561475 11.41208003 -28.625 7.75 C-26.99581384 7.21700066 -25.36690555 6.68315119 -23.73828125 6.1484375 C-20.75899927 5.17151272 -17.77824326 4.19942435 -14.79541016 3.23339844 C-12.41518527 2.45989425 -10.04119262 1.66663655 -7.67724609 0.84472656 C-4.95799427 -0.01325368 -2.8312678 -0.16654516 0 0 Z " fill="#707CBF" transform="translate(212,364)"/>
<path d="M0 0 C0.80566406 0.28875 1.61132812 0.5775 2.44140625 0.875 C7.86945341 3.18217754 11.66533626 7.18557923 15 12 C15 12.66 15 13.32 15 14 C15.70898438 14.12117188 16.41796875 14.24234375 17.1484375 14.3671875 C32.49618108 17.77312512 44.7385685 26.69884411 53.1875 39.6875 C63.34830345 57.88432763 62.39328736 81.26187235 57 101 C56.77473633 101.84272461 56.54947266 102.68544922 56.31738281 103.55371094 C55.56785913 106.31372166 54.79189916 109.06436017 54 111.8125 C53.7510498 112.6799585 53.50209961 113.54741699 53.24560547 114.44116211 C52.99955566 115.25077393 52.75350586 116.06038574 52.5 116.89453125 C52.2834375 117.61487549 52.066875 118.33521973 51.84375 119.07739258 C50.8722871 121.29101246 49.88665245 122.4957068 48 124 C45 124.4375 45 124.4375 42 124 C36.15984736 117.88653972 35.94352162 107.80481907 35.8125 99.8125 C35.44807991 93.33153871 33.63009917 90.33242042 29.3203125 85.61328125 C26.67777923 82.63709479 24.52026708 79.53106957 22.375 76.1875 C21.99931885 75.60210449 21.6236377 75.01670898 21.23657227 74.41357422 C17.56555721 68.54027151 14.70127561 62.37712908 12 56 C10.89978516 57.11955078 10.89978516 57.11955078 9.77734375 58.26171875 C-7.21682027 75.01686499 -29.03415738 83.15114611 -52 88 C-53.25031006 88.26490234 -53.25031006 88.26490234 -54.52587891 88.53515625 C-64.99112209 90.71549466 -75.29507239 92.60278562 -86 93 C-85.95359375 93.92039062 -85.9071875 94.84078125 -85.859375 95.7890625 C-85.59125466 105.19242582 -86.51936424 113.12056791 -90 122 C-92 124 -92 124 -95.625 124.125 C-96.73875 124.08375 -97.8525 124.0425 -99 124 C-106.41018944 108.03655999 -110.61875609 92.87824247 -110.5 75.1875 C-110.49823761 74.48411499 -110.49647522 73.78072998 -110.49465942 73.05603027 C-110.37334912 51.34117763 -103.0099505 34.38996624 -87.7265625 18.66015625 C-64.95078745 -2.89943663 -29.71978043 -11.01582595 0 0 Z " fill="#413A6E" transform="translate(294,120)"/>
<path d="M0 0 C2.77005724 0.35388396 3.84499819 0.8355221 5.7890625 2.8984375 C6.39492188 3.71570313 7.00078125 4.53296875 7.625 5.375 C10.46790256 9.09063184 13.40057137 12.54866793 16.625 15.9375 C29.0677236 29.52525951 38.93620087 45.02476384 48 61 C48.40557129 61.7027002 48.81114258 62.40540039 49.22900391 63.12939453 C60.21483641 82.27060835 67.52466263 103.02913398 73.26171875 124.27416992 C73.76834545 126.14470136 74.28723637 128.0119413 74.81640625 129.8762207 C76.28026422 135.068564 77.45664587 140.084591 78.125 145.4375 C78.62234834 149.68273296 78.62234834 149.68273296 79.49267578 153.85693359 C82.31186771 165.76591662 81.2428092 179.15871144 81.25 191.3125 C81.25067474 192.33812042 81.25134949 193.36374084 81.25204468 194.42044067 C81.23627847 209.50751893 80.81607611 224.13800316 78 239 C77.76651855 240.34070557 77.76651855 240.34070557 77.52832031 241.70849609 C73.23922456 266.00909147 64.94875489 289.91558425 54 312 C53.48518066 313.06202637 53.48518066 313.06202637 52.95996094 314.14550781 C42.95537233 334.6572852 29.53016518 353.96255231 14.078125 370.73828125 C12.19271065 372.79026416 10.37229967 374.88151954 8.5625 377 C1.82578816 384.69688687 -5.45096751 391.57412494 -13.4453125 397.94921875 C-15.70806461 399.76564819 -17.89114161 401.63891072 -20.0625 403.5625 C-23 406 -23 406 -25 406 C-25 406.66 -25 407.32 -25 408 C-26.82568359 409.4453125 -26.82568359 409.4453125 -29.3984375 411.125 C-30.81648682 412.05397095 -30.81648682 412.05397095 -32.26318359 413.00170898 C-33.29008301 413.66114502 -34.31698242 414.32058105 -35.375 415 C-36.42123535 415.67554932 -37.4674707 416.35109863 -38.54541016 417.04711914 C-47.49101103 422.77118601 -56.56254177 428.13033325 -66 433 C-66.66563965 433.34579102 -67.3312793 433.69158203 -68.01708984 434.04785156 C-100.50914431 450.70350935 -138.88473122 461.21450884 -175.51171875 461.1328125 C-176.96865898 461.13424759 -176.96865898 461.13424759 -178.45503235 461.13571167 C-180.49793564 461.13638777 -182.54084115 461.13457359 -184.58374023 461.13037109 C-187.66199744 461.12504413 -190.7401068 461.13032059 -193.81835938 461.13671875 C-222.39293382 461.14767896 -222.39293382 461.14767896 -234 458 C-236.40476239 457.75163929 -238.80077888 457.56976991 -241.21484375 457.44140625 C-244.49710098 456.92121682 -247.43650261 455.89984313 -250.57055664 454.8137207 C-253.74496076 453.75048194 -256.95910942 452.88578756 -260.18945312 452.01074219 C-293.23971339 442.99818075 -323.90823295 427.98622427 -351 407 C-351.89847656 406.31421875 -352.79695313 405.6284375 -353.72265625 404.921875 C-359.05319859 400.76557257 -364.05103118 396.29964694 -368.97924805 391.6796875 C-371.24555679 389.56137172 -373.40970212 387.72686526 -376 386 C-375.67 385.34 -375.34 384.68 -375 384 C-374.16082031 384.70382812 -373.32164062 385.40765625 -372.45703125 386.1328125 C-331.76620329 419.75224533 -282.47540605 440.96751639 -230 447 C-229.2052124 447.0935376 -228.4104248 447.1870752 -227.59155273 447.28344727 C-158.700748 454.50466475 -88.24274202 433.86464705 -34 391 C-29.58804331 387.42395008 -25.27443762 383.73882335 -21 380 C-20.4946875 379.55930176 -19.989375 379.11860352 -19.46875 378.66455078 C25.16573492 339.47861138 55.72067351 282.53278863 65 224 C65.22429687 222.61312988 65.22429687 222.61312988 65.453125 221.19824219 C69.77789763 193.28295335 69.81753115 163.84768005 65 136 C64.82839355 135.00790527 64.65678711 134.01581055 64.47998047 132.99365234 C58.99016178 102.4047162 48.64249225 72.91328361 33 46 C32.43877441 45.03223633 32.43877441 45.03223633 31.86621094 44.04492188 C23.22294074 29.33017447 13.25569899 14.99598913 1.4765625 2.6171875 C0 1 0 1 0 0 Z " fill="#010101" transform="translate(469,89)"/>
<path d="M0 0 C0.99773437 0.4021875 0.99773437 0.4021875 2.015625 0.8125 C5.58465011 2.23263564 9.16245941 3.62749394 12.75 5 C13.41515625 5.26039063 14.0803125 5.52078125 14.765625 5.7890625 C23.84121592 9.24476827 32.17109139 10.34316975 41.875 10.3125 C42.88691406 10.32861328 43.89882813 10.34472656 44.94140625 10.36132812 C54.58383045 10.36750125 62.90069532 8.01343169 71.8125 4.4375 C75.84286299 2.83036147 79.87208726 1.33894927 84 0 C81.76055028 7.1662391 76.41121706 12.98472565 71 18 C70.52304687 18.48210937 70.04609375 18.96421875 69.5546875 19.4609375 C61.7090921 26.92751863 52.92516726 29.43581883 42.3125 29.5 C41.52907227 29.50628418 40.74564453 29.51256836 39.93847656 29.51904297 C28.7118138 29.27621511 18.82963644 24.51291596 10.69921875 16.82421875 C0 5.15783898 0 5.15783898 0 0 Z " fill="#BD9690" transform="translate(227,331)"/>
<path d="M0 0 C4.82419514 3.13572684 9.42284316 6.5148552 14 10 C13.67 10.66 13.34 11.32 13 12 C9.57143381 10.49017269 7.04321784 8.48286031 4.25 6 C3.45078125 5.29875 2.6515625 4.5975 1.828125 3.875 C0 2 0 2 0 0 Z " fill="#0F0F0F" transform="translate(93,473)"/>
<path d="" fill="#000000" transform="translate(0,0)"/>
</svg>
