<svg width="110" height="103" viewBox="0 0 110 103" fill="none" xmlns="http://www.w3.org/2000/svg">
<path d="M0 30C0 13.4315 13.4315 0 30 0H80C96.5685 0 110 13.4315 110 30V73C110 89.5685 96.5685 103 80 103H30C13.4315 103 0 89.5685 0 73V30Z" fill="#EA3FB8"/>
<path d="M73.4753 51.9759L75.6833 48.1599C75.9487 47.7008 76.0209 47.1551 75.884 46.6428C75.7471 46.1305 75.4123 45.6935 74.9533 45.4279L71.1333 43.2199V38.8199C71.1333 38.2895 70.9226 37.7808 70.5475 37.4057C70.1724 37.0307 69.6637 36.8199 69.1333 36.8199H64.7353L62.5293 33.0019C62.2642 32.5426 61.8275 32.2074 61.3153 32.0699C61.0615 32.0019 60.7969 31.9846 60.5364 32.0189C60.2759 32.0532 60.0248 32.1385 59.7973 32.2699L55.9773 34.4779L52.1573 32.2679C51.698 32.0027 51.1521 31.9309 50.6397 32.0681C50.1274 32.2054 49.6905 32.5406 49.4253 32.9999L47.2173 36.8199H42.8193C42.2889 36.8199 41.7802 37.0307 41.4051 37.4057C41.03 37.7808 40.8193 38.2895 40.8193 38.8199V43.2179L36.9993 45.4259C36.7718 45.5574 36.5724 45.7325 36.4125 45.9411C36.2527 46.1497 36.1355 46.3877 36.0677 46.6417C35.9999 46.8956 35.9828 47.1603 36.0174 47.4209C36.052 47.6814 36.1376 47.9325 36.2693 48.1599L38.4773 51.9759L36.2693 55.7919C36.0053 56.2515 35.9336 56.7968 36.07 57.3089C36.2064 57.8211 36.5397 58.2585 36.9973 58.5259L40.8173 60.7339V65.1319C40.8173 65.6624 41.028 66.1711 41.4031 66.5462C41.7782 66.9212 42.2869 67.1319 42.8173 67.1319H47.2173L49.4253 70.952C49.6024 71.2546 49.8552 71.506 50.1589 71.6813C50.4625 71.8567 50.8066 71.9499 51.1573 71.952C51.5053 71.952 51.8513 71.8599 52.1593 71.6819L55.9753 69.4739L59.7953 71.6819C60.2544 71.9473 60.8001 72.0195 61.3125 71.8826C61.8248 71.7457 62.2617 71.411 62.5273 70.952L64.7333 67.1319H69.1313C69.6617 67.1319 70.1704 66.9212 70.5455 66.5462C70.9206 66.1711 71.1313 65.6624 71.1313 65.1319V60.7339L74.9513 58.5259C75.1789 58.3945 75.3783 58.2194 75.5381 58.0108C75.698 57.8022 75.8151 57.5641 75.8829 57.3102C75.9507 57.0563 75.9678 56.7915 75.9332 56.531C75.8986 56.2705 75.813 56.0194 75.6813 55.7919L73.4753 51.9759ZM50.9753 41.9559C51.7712 41.9562 52.5344 42.2726 53.097 42.8356C53.6597 43.3986 53.9756 44.162 53.9753 44.9579C53.975 45.7539 53.6586 46.5171 53.0956 47.0797C52.5326 47.6423 51.7692 47.9582 50.9733 47.9579C50.1774 47.9577 49.4142 47.6413 48.8516 47.0783C48.289 46.5153 47.973 45.7519 47.9733 44.9559C47.9736 44.16 48.29 43.3968 48.853 42.8342C49.416 42.2716 50.1794 41.9557 50.9753 41.9559ZM51.5753 61.1559L48.3753 58.7579L60.3753 42.7579L63.5753 45.1559L51.5753 61.1559ZM60.9753 61.9559C60.5812 61.9558 60.191 61.8781 59.827 61.7271C59.4629 61.5762 59.1321 61.355 58.8536 61.0763C58.575 60.7975 58.3541 60.4666 58.2034 60.1025C58.0527 59.7383 57.9752 59.348 57.9753 58.9539C57.9754 58.5598 58.0532 58.1696 58.2041 57.8056C58.3551 57.4415 58.5762 57.1108 58.855 56.8322C59.1337 56.5536 59.4646 56.3327 59.8288 56.182C60.1929 56.0313 60.5832 55.9538 60.9773 55.9539C61.7732 55.9542 62.5364 56.2706 63.099 56.8336C63.6617 57.3966 63.9776 58.16 63.9773 58.9559C63.977 59.7519 63.6606 60.5151 63.0976 61.0777C62.5346 61.6403 61.7712 61.9562 60.9753 61.9559Z" fill="white"/>
</svg>
